<?xml version="1.0" standalone="no"?>
<!DOCTYPE svg PUBLIC "-//W3C//DTD SVG 1.1//EN"
  "http://www.w3.org/Graphics/SVG/1.1/DTD/svg11.dtd">
<svg width="566.92px" height="566.92px" version="1.1"
    xmlns="http://www.w3.org/2000/svg"
    xmlns:xlink="http://www.w3.org/1999/xlink">
<desc>Veusz output document</desc>
<defs>
<clipPath id="c0">
<path d="m0,0l566.92,0l0,566.92l-566.92,0l0,-566.92"/>
</clipPath>
<clipPath id="c1">
<path d="m64.25,7.55l495.11,0l0,495.11l-495.11,0l0,-495.11"/>
</clipPath>
</defs>
<g stroke-linejoin="bevel" stroke-linecap="square" stroke="#000000" fill-rule="evenodd">
<g clip-path="url(#c0)">
<g fill="#ffffff" stroke-width="0.66">
<path d="m64.25,7.55l495.11,0l0,495.11l-495.11,0l0,-495.11"/>
</g>
</g>
<g clip-path="url(#c1)">
<g fill="none" stroke="#e41a1c" stroke-linecap="butt" stroke-width="0.66">
<path d="M547.89,227.45l0,-162.53M486.39,359.15l0,-213.4M354.13,426.61l0,-84.28M270.69,478.15l0,-81.84M209.19,483.12l0,-32.37M76.93,499.56l0,-4.42"/>
<path d="M543.89,227.45l8,0M482.39,359.15l8,0M350.13,426.61l8,0M266.69,478.15l8,0M205.19,483.12l8,0M72.93,499.56l8,0"/>
<path d="M543.89,64.92l8,0M482.39,145.75l8,0M350.13,342.32l8,0M266.69,396.3l8,0M205.19,450.75l8,0M72.93,495.13l8,0"/>
</g>
<g fill="#e41a1c" stroke-linejoin="miter" stroke-width="0.66">
<g transform="translate(547.89,146.19)">
<path d="m4,0c0,2.2,-1.79,4,-4,4c-2.2,0,-4,-1.79,-4,-4c0,-2.2,1.79,-4,4,-4c2.2,0,4,1.79,4,4" id="p0"/>
</g>
<use xlink:href="#p0" x="486.39" y="252.45"/>
<use xlink:href="#p0" x="354.13" y="384.46"/>
<use xlink:href="#p0" x="270.69" y="437.22"/>
<use xlink:href="#p0" x="209.19" y="466.94"/>
<use xlink:href="#p0" x="76.93" y="497.34"/>
</g>
</g>
<g clip-path="url(#c0)">
<g fill="none" stroke-linecap="butt" stroke-width="0.66">
<path d="M64.25,502.67l0,-495.11"/>
<path d="M64.25,502.67l4,0M64.25,477.92l4,0M64.25,453.16l4,0M64.25,428.4l4,0M64.25,403.65l4,0M64.25,378.89l4,0M64.25,354.14l4,0M64.25,329.38l4,0M64.25,304.62l4,0M64.25,279.87l4,0M64.25,255.11l4,0M64.25,230.36l4,0M64.25,205.6l4,0M64.25,180.85l4,0M64.25,156.09l4,0M64.25,131.33l4,0M64.25,106.58l4,0M64.25,81.82l4,0M64.25,57.07l4,0M64.25,32.31l4,0M64.25,7.55l4,0"/>
<path d="M64.25,502.67l8,0M64.25,378.89l8,0M64.25,255.11l8,0M64.25,131.33l8,0M64.25,7.55l8,0"/>
</g>
<g fill="none" stroke-width="0.1">
<g transform="matrix(0 -1 1 0 16.7 359.91)">
<path d="m3.9,-11.7l0,4.89l2.72,0c0.7,0,1.17,-0.1,1.41,-0.31c0.31,-0.28,0.49,-0.77,0.52,-1.47l0.33,0l0,4.3l-0.33,0c-0.08,-0.6,-0.17,-0.98,-0.25,-1.15c-0.1,-0.21,-0.28,-0.38,-0.53,-0.5c-0.24,-0.12,-0.63,-0.18,-1.15,-0.18l-2.72,0l0,4.08c0,0.54,0.02,0.88,0.07,0.99c0.04,0.11,0.13,0.21,0.25,0.28c0.12,0.07,0.35,0.1,0.69,0.1l2.1,0c0.7,0,1.2,-0.04,1.52,-0.14c0.31,-0.09,0.62,-0.28,0.91,-0.57c0.37,-0.37,0.76,-0.94,1.15,-1.7l0.36,0l-1.06,3.1l-9.54,0l0,-0.33l0.43,0c0.29,0,0.56,-0.07,0.83,-0.21c0.19,-0.09,0.32,-0.24,0.39,-0.43c0.07,-0.19,0.1,-0.59,0.1,-1.19l0,-8.04c0,-0.78,-0.07,-1.26,-0.23,-1.45c-0.21,-0.24,-0.58,-0.36,-1.09,-0.36l-0.43,0l0,-0.33l9.54,0l0.13,2.71l-0.35,0c-0.12,-0.65,-0.26,-1.09,-0.42,-1.34c-0.15,-0.24,-0.38,-0.42,-0.68,-0.55c-0.24,-0.09,-0.67,-0.13,-1.28,-0.13l-3.39,0m15.18,8.52c-0.22,1.1,-0.66,1.94,-1.32,2.54c-0.65,0.59,-1.38,0.89,-2.18,0.89c-0.94,0,-1.77,-0.39,-2.48,-1.19c-0.7,-0.79,-1.05,-1.87,-1.05,-3.23c0,-1.31,0.39,-2.38,1.17,-3.2c0.78,-0.82,1.72,-1.23,2.81,-1.23c0.82,0,1.49,0.21,2.02,0.65c0.52,0.43,0.79,0.88,0.79,1.35c0,0.23,-0.07,0.41,-0.22,0.56c-0.14,0.14,-0.35,0.21,-0.62,0.21c-0.35,0,-0.63,-0.11,-0.81,-0.34c-0.1,-0.12,-0.17,-0.37,-0.2,-0.73c-0.03,-0.35,-0.15,-0.63,-0.36,-0.82c-0.21,-0.18,-0.5,-0.27,-0.88,-0.27c-0.6,0,-1.09,0.22,-1.47,0.67c-0.49,0.59,-0.73,1.38,-0.73,2.36c0,0.99,0.24,1.87,0.73,2.64c0.49,0.76,1.15,1.14,1.98,1.14c0.59,0,1.13,-0.2,1.6,-0.61c0.33,-0.28,0.66,-0.78,0.97,-1.52l0.26,0.12m5.93,1.97c-0.85,0.66,-1.39,1.04,-1.61,1.15c-0.32,0.15,-0.67,0.22,-1.05,0.22c-0.57,0,-1.05,-0.19,-1.42,-0.59c-0.37,-0.39,-0.56,-0.91,-0.56,-1.56c0,-0.4,0.09,-0.76,0.27,-1.05c0.24,-0.41,0.68,-0.8,1.3,-1.16c0.61,-0.36,1.64,-0.8,3.08,-1.33l0,-0.32c0,-0.83,-0.13,-1.4,-0.39,-1.71c-0.26,-0.31,-0.64,-0.46,-1.15,-0.46c-0.38,0,-0.68,0.1,-0.91,0.31c-0.23,0.2,-0.34,0.44,-0.34,0.71l0.01,0.52c0,0.28,-0.07,0.49,-0.21,0.64c-0.14,0.15,-0.33,0.22,-0.56,0.22c-0.22,0,-0.4,-0.07,-0.55,-0.23c-0.14,-0.15,-0.21,-0.37,-0.21,-0.64c0,-0.52,0.26,-1,0.8,-1.44c0.53,-0.43,1.28,-0.65,2.25,-0.65c0.74,0,1.35,0.12,1.82,0.37c0.35,0.18,0.62,0.48,0.79,0.88c0.1,0.26,0.16,0.79,0.16,1.6l0,2.83c0,0.79,0.01,1.28,0.04,1.46c0.03,0.17,0.08,0.29,0.15,0.36c0.07,0.06,0.15,0.09,0.24,0.09c0.09,0,0.18,-0.02,0.25,-0.06c0.12,-0.07,0.37,-0.3,0.73,-0.66l0,0.51c-0.68,0.91,-1.33,1.36,-1.95,1.36c-0.29,0,-0.53,-0.1,-0.71,-0.31c-0.17,-0.2,-0.26,-0.56,-0.27,-1.05m0,-0.59l0,-3.18c-0.91,0.36,-1.51,0.62,-1.78,0.77c-0.48,0.26,-0.82,0.54,-1.03,0.84c-0.2,0.29,-0.31,0.61,-0.31,0.95c0,0.43,0.13,0.8,0.39,1.09c0.26,0.28,0.56,0.43,0.9,0.43c0.46,0,1.07,-0.3,1.82,-0.91m6,-6.81l0,1.88c0.7,-1.25,1.41,-1.88,2.15,-1.88c0.33,0,0.61,0.1,0.83,0.3c0.21,0.2,0.32,0.43,0.32,0.7c0,0.23,-0.07,0.43,-0.23,0.6c-0.15,0.16,-0.34,0.24,-0.56,0.24c-0.21,0,-0.45,-0.1,-0.71,-0.31c-0.26,-0.21,-0.46,-0.31,-0.58,-0.31c-0.1,0,-0.22,0.06,-0.35,0.18c-0.27,0.24,-0.55,0.66,-0.84,1.23l0,4c0,0.46,0.05,0.81,0.17,1.05c0.07,0.16,0.21,0.3,0.42,0.41c0.2,0.1,0.49,0.16,0.86,0.16l0,0.32l-4.28,0l0,-0.32c0.42,0,0.74,-0.06,0.94,-0.2c0.15,-0.09,0.25,-0.25,0.31,-0.46c0.03,-0.1,0.04,-0.39,0.04,-0.88l0,-3.24c0,-0.97,-0.01,-1.55,-0.05,-1.73c-0.03,-0.18,-0.11,-0.32,-0.21,-0.4c-0.1,-0.08,-0.23,-0.12,-0.39,-0.12c-0.18,0,-0.4,0.04,-0.63,0.13l-0.09,-0.32l2.52,-1.02l0.38,0m6.18,-2.5l0,2.74l1.95,0l0,0.63l-1.95,0l0,5.42c0,0.54,0.07,0.9,0.23,1.09c0.15,0.18,0.35,0.28,0.59,0.28c0.2,0,0.39,-0.06,0.58,-0.18c0.18,-0.12,0.33,-0.3,0.43,-0.55l0.35,0c-0.21,0.59,-0.51,1.04,-0.9,1.34c-0.38,0.3,-0.79,0.45,-1.2,0.45c-0.28,0,-0.55,-0.07,-0.82,-0.23c-0.26,-0.15,-0.46,-0.37,-0.59,-0.66c-0.12,-0.28,-0.19,-0.73,-0.19,-1.33l0,-5.62l-1.32,0l0,-0.3c0.33,-0.13,0.67,-0.36,1.02,-0.68c0.35,-0.31,0.66,-0.69,0.93,-1.13c0.14,-0.23,0.33,-0.65,0.58,-1.26l0.28,0m13.37,10.17c-0.4,0.42,-0.8,0.73,-1.19,0.91c-0.38,0.18,-0.8,0.27,-1.26,0.27c-0.91,0,-1.71,-0.38,-2.39,-1.14c-0.68,-0.76,-1.02,-1.74,-1.02,-2.94c0,-1.19,0.37,-2.29,1.13,-3.29c0.75,-0.99,1.72,-1.49,2.91,-1.49c0.73,0,1.34,0.23,1.82,0.7l0,-1.54c0,-0.95,-0.02,-1.54,-0.06,-1.76c-0.04,-0.21,-0.11,-0.36,-0.21,-0.44c-0.09,-0.07,-0.21,-0.11,-0.36,-0.11c-0.15,0,-0.36,0.04,-0.63,0.14l-0.11,-0.31l2.49,-1.02l0.41,0l0,9.66c0,0.98,0.02,1.57,0.06,1.79c0.04,0.21,0.11,0.36,0.21,0.45c0.1,0.08,0.21,0.12,0.35,0.12c0.16,0,0.38,-0.05,0.65,-0.15l0.1,0.31l-2.48,1.03l-0.42,0l0,-1.19m0,-0.63l0,-4.3c-0.03,-0.41,-0.14,-0.79,-0.32,-1.13c-0.18,-0.34,-0.42,-0.59,-0.72,-0.77c-0.3,-0.17,-0.59,-0.26,-0.88,-0.26c-0.53,0,-1.01,0.24,-1.43,0.72c-0.55,0.63,-0.83,1.55,-0.83,2.77c0,1.22,0.26,2.17,0.8,2.82c0.53,0.65,1.13,0.98,1.78,0.98c0.55,0,1.08,-0.27,1.6,-0.83m4.89,-3.63c0,1.24,0.29,2.21,0.9,2.92c0.6,0.7,1.32,1.05,2.14,1.05c0.54,0,1.02,-0.15,1.42,-0.45c0.4,-0.3,0.74,-0.81,1.01,-1.54l0.28,0.18c-0.12,0.83,-0.49,1.59,-1.11,2.27c-0.61,0.68,-1.38,1.02,-2.31,1.02c-1,0,-1.86,-0.39,-2.57,-1.17c-0.71,-0.78,-1.07,-1.83,-1.07,-3.15c0,-1.43,0.36,-2.54,1.1,-3.34c0.73,-0.8,1.65,-1.2,2.76,-1.2c0.93,0,1.7,0.3,2.31,0.92c0.6,0.61,0.9,1.44,0.9,2.47l-5.77,0m0,-0.52l3.87,0c-0.03,-0.53,-0.09,-0.91,-0.19,-1.13c-0.15,-0.34,-0.37,-0.6,-0.68,-0.8c-0.3,-0.19,-0.61,-0.29,-0.94,-0.29c-0.5,0,-0.95,0.19,-1.35,0.58c-0.39,0.39,-0.63,0.93,-0.69,1.63m14.04,-2.86l0,1.88c0.7,-1.25,1.41,-1.88,2.15,-1.88c0.33,0,0.61,0.1,0.83,0.3c0.21,0.2,0.32,0.43,0.32,0.7c0,0.23,-0.07,0.43,-0.23,0.6c-0.15,0.16,-0.34,0.24,-0.56,0.24c-0.21,0,-0.45,-0.1,-0.71,-0.31c-0.26,-0.21,-0.46,-0.31,-0.58,-0.31c-0.1,0,-0.22,0.06,-0.35,0.18c-0.27,0.24,-0.55,0.66,-0.84,1.23l0,4c0,0.46,0.05,0.81,0.17,1.05c0.07,0.16,0.21,0.3,0.42,0.41c0.2,0.1,0.49,0.16,0.86,0.16l0,0.32l-4.28,0l0,-0.32c0.42,0,0.74,-0.06,0.94,-0.2c0.15,-0.09,0.25,-0.25,0.31,-0.46c0.03,-0.1,0.04,-0.39,0.04,-0.88l0,-3.24c0,-0.97,-0.01,-1.55,-0.05,-1.73c-0.03,-0.18,-0.11,-0.32,-0.21,-0.4c-0.1,-0.08,-0.23,-0.12,-0.39,-0.12c-0.18,0,-0.4,0.04,-0.63,0.13l-0.09,-0.32l2.52,-1.02l0.38,0m5.15,3.39c0,1.24,0.29,2.21,0.9,2.92c0.6,0.7,1.32,1.05,2.14,1.05c0.54,0,1.02,-0.15,1.42,-0.45c0.4,-0.3,0.74,-0.81,1.01,-1.54l0.28,0.18c-0.12,0.83,-0.49,1.59,-1.11,2.27c-0.61,0.68,-1.38,1.02,-2.31,1.02c-1,0,-1.86,-0.39,-2.57,-1.17c-0.71,-0.78,-1.07,-1.83,-1.07,-3.15c0,-1.43,0.36,-2.54,1.1,-3.34c0.73,-0.8,1.65,-1.2,2.76,-1.2c0.93,0,1.7,0.3,2.31,0.92c0.6,0.61,0.9,1.44,0.9,2.47l-5.77,0m0,-0.52l3.87,0c-0.03,-0.53,-0.09,-0.91,-0.19,-1.13c-0.15,-0.34,-0.37,-0.6,-0.68,-0.8c-0.3,-0.19,-0.61,-0.29,-0.94,-0.29c-0.5,0,-0.95,0.19,-1.35,0.58c-0.39,0.39,-0.63,0.93,-0.69,1.63m13.99,2.56c-0.22,1.1,-0.66,1.94,-1.32,2.54c-0.65,0.59,-1.38,0.89,-2.18,0.89c-0.94,0,-1.77,-0.39,-2.48,-1.19c-0.7,-0.79,-1.05,-1.87,-1.05,-3.23c0,-1.31,0.39,-2.38,1.17,-3.2c0.78,-0.82,1.72,-1.23,2.81,-1.23c0.82,0,1.49,0.21,2.02,0.65c0.52,0.43,0.79,0.88,0.79,1.35c0,0.23,-0.07,0.41,-0.22,0.56c-0.14,0.14,-0.35,0.21,-0.62,0.21c-0.35,0,-0.63,-0.11,-0.81,-0.34c-0.1,-0.12,-0.17,-0.37,-0.2,-0.73c-0.03,-0.35,-0.15,-0.63,-0.36,-0.82c-0.21,-0.18,-0.5,-0.27,-0.88,-0.27c-0.6,0,-1.09,0.22,-1.47,0.67c-0.49,0.59,-0.73,1.38,-0.73,2.36c0,0.99,0.24,1.87,0.73,2.64c0.49,0.76,1.15,1.14,1.98,1.14c0.59,0,1.13,-0.2,1.6,-0.61c0.33,-0.28,0.66,-0.78,0.97,-1.52l0.26,0.12m5.28,-5.43c1.26,0,2.28,0.48,3.04,1.44c0.65,0.82,0.97,1.76,0.97,2.83c0,0.74,-0.17,1.5,-0.53,2.27c-0.35,0.76,-0.85,1.34,-1.48,1.73c-0.63,0.38,-1.33,0.58,-2.1,0.58c-1.26,0,-2.26,-0.5,-3,-1.5c-0.62,-0.84,-0.94,-1.79,-0.94,-2.84c0,-0.76,0.19,-1.52,0.57,-2.28c0.38,-0.75,0.88,-1.31,1.5,-1.68c0.62,-0.36,1.27,-0.54,1.97,-0.54m-0.28,0.59c-0.32,0,-0.64,0.09,-0.97,0.28c-0.32,0.19,-0.58,0.52,-0.78,1c-0.2,0.48,-0.3,1.09,-0.3,1.85c0,1.21,0.24,2.26,0.72,3.15c0.48,0.88,1.12,1.32,1.91,1.32c0.59,0,1.07,-0.24,1.46,-0.73c0.38,-0.48,0.57,-1.32,0.57,-2.51c0,-1.48,-0.31,-2.65,-0.95,-3.5c-0.43,-0.58,-0.98,-0.87,-1.65,-0.87m8.03,1.17c0.98,-1.18,1.91,-1.77,2.8,-1.77c0.45,0,0.84,0.11,1.17,0.34c0.32,0.22,0.59,0.6,0.78,1.12c0.13,0.36,0.2,0.92,0.2,1.68l0,3.57c0,0.52,0.04,0.88,0.12,1.07c0.06,0.15,0.17,0.27,0.32,0.35c0.14,0.08,0.42,0.12,0.82,0.12l0,0.32l-4.13,0l0,-0.32l0.17,0c0.38,0,0.66,-0.05,0.81,-0.17c0.15,-0.11,0.26,-0.29,0.32,-0.52c0.02,-0.09,0.03,-0.37,0.03,-0.85l0,-3.42c0,-0.76,-0.09,-1.31,-0.29,-1.65c-0.19,-0.34,-0.53,-0.51,-0.99,-0.51c-0.72,0,-1.44,0.39,-2.16,1.18l0,4.41c0,0.56,0.03,0.91,0.1,1.05c0.08,0.17,0.2,0.3,0.35,0.38c0.14,0.08,0.45,0.12,0.9,0.12l0,0.32l-4.13,0l0,-0.32l0.18,0c0.42,0,0.71,-0.1,0.86,-0.32c0.14,-0.21,0.22,-0.62,0.22,-1.23l0,-3.1c0,-1,-0.02,-1.61,-0.06,-1.83c-0.04,-0.21,-0.11,-0.36,-0.21,-0.44c-0.09,-0.07,-0.22,-0.11,-0.37,-0.11c-0.17,0,-0.37,0.04,-0.61,0.13l-0.13,-0.32l2.52,-1.02l0.39,0l0,1.77m12.36,-1.77l0,2.84l-0.3,0c-0.23,-0.89,-0.52,-1.5,-0.89,-1.82c-0.36,-0.32,-0.82,-0.48,-1.38,-0.48c-0.42,0,-0.77,0.11,-1.03,0.33c-0.26,0.22,-0.39,0.47,-0.39,0.74c0,0.34,0.09,0.63,0.29,0.87c0.18,0.24,0.57,0.51,1.15,0.79l1.33,0.64c1.23,0.6,1.85,1.39,1.85,2.38c0,0.76,-0.28,1.37,-0.86,1.83c-0.57,0.46,-1.21,0.69,-1.93,0.69c-0.51,0,-1.09,-0.09,-1.75,-0.27c-0.2,-0.06,-0.36,-0.09,-0.49,-0.09c-0.14,0,-0.24,0.07,-0.32,0.23l-0.3,0l0,-2.98l0.3,0c0.17,0.85,0.49,1.49,0.97,1.92c0.48,0.43,1.01,0.64,1.61,0.64c0.42,0,0.76,-0.12,1.02,-0.36c0.26,-0.24,0.39,-0.54,0.39,-0.89c0,-0.42,-0.14,-0.77,-0.44,-1.05c-0.29,-0.28,-0.88,-0.64,-1.76,-1.08c-0.88,-0.43,-1.46,-0.83,-1.73,-1.18c-0.27,-0.34,-0.41,-0.78,-0.41,-1.31c0,-0.68,0.23,-1.26,0.7,-1.72c0.47,-0.46,1.08,-0.69,1.83,-0.69c0.32,0,0.72,0.07,1.19,0.21c0.31,0.09,0.51,0.13,0.62,0.13c0.09,0,0.17,-0.02,0.22,-0.06c0.05,-0.04,0.11,-0.13,0.19,-0.28l0.3,0m4.32,-2.5l0,2.74l1.95,0l0,0.63l-1.95,0l0,5.42c0,0.54,0.07,0.9,0.23,1.09c0.15,0.18,0.35,0.28,0.59,0.28c0.2,0,0.39,-0.06,0.58,-0.18c0.18,-0.12,0.33,-0.3,0.43,-0.55l0.35,0c-0.21,0.59,-0.51,1.04,-0.9,1.34c-0.38,0.3,-0.79,0.45,-1.2,0.45c-0.28,0,-0.55,-0.07,-0.82,-0.23c-0.26,-0.15,-0.46,-0.37,-0.59,-0.66c-0.12,-0.28,-0.19,-0.73,-0.19,-1.33l0,-5.62l-1.32,0l0,-0.3c0.33,-0.13,0.67,-0.36,1.02,-0.68c0.35,-0.31,0.66,-0.69,0.93,-1.13c0.14,-0.23,0.33,-0.65,0.58,-1.26l0.28,0m5.21,2.5l0,1.88c0.7,-1.25,1.41,-1.88,2.15,-1.88c0.33,0,0.61,0.1,0.83,0.3c0.21,0.2,0.32,0.43,0.32,0.7c0,0.23,-0.07,0.43,-0.23,0.6c-0.15,0.16,-0.34,0.24,-0.56,0.24c-0.21,0,-0.45,-0.1,-0.71,-0.31c-0.26,-0.21,-0.46,-0.31,-0.58,-0.31c-0.1,0,-0.22,0.06,-0.35,0.18c-0.27,0.24,-0.55,0.66,-0.84,1.23l0,4c0,0.46,0.05,0.81,0.17,1.05c0.07,0.16,0.21,0.3,0.42,0.41c0.2,0.1,0.49,0.16,0.86,0.16l0,0.32l-4.28,0l0,-0.32c0.42,0,0.74,-0.06,0.94,-0.2c0.15,-0.09,0.25,-0.25,0.31,-0.46c0.03,-0.1,0.04,-0.39,0.04,-0.88l0,-3.24c0,-0.97,-0.01,-1.55,-0.05,-1.73c-0.03,-0.18,-0.11,-0.32,-0.21,-0.4c-0.1,-0.08,-0.23,-0.12,-0.39,-0.12c-0.18,0,-0.4,0.04,-0.63,0.13l-0.09,-0.32l2.52,-1.02l0.38,0m11.08,0.24l0,5.06c0,0.96,0.02,1.55,0.06,1.77c0.04,0.21,0.11,0.36,0.21,0.45c0.1,0.08,0.21,0.12,0.35,0.12c0.18,0,0.4,-0.05,0.63,-0.15l0.12,0.31l-2.5,1.03l-0.41,0l0,-1.77c-0.71,0.77,-1.26,1.26,-1.64,1.47c-0.37,0.2,-0.77,0.3,-1.19,0.3c-0.46,0,-0.87,-0.13,-1.21,-0.4c-0.34,-0.27,-0.58,-0.61,-0.71,-1.04c-0.13,-0.42,-0.2,-1.02,-0.2,-1.8l0,-3.73c0,-0.39,-0.04,-0.66,-0.12,-0.82c-0.08,-0.15,-0.21,-0.26,-0.37,-0.35c-0.16,-0.08,-0.47,-0.12,-0.9,-0.11l0,-0.33l2.93,0l0,5.59c0,0.77,0.13,1.29,0.4,1.53c0.27,0.24,0.59,0.36,0.98,0.36c0.26,0,0.55,-0.08,0.89,-0.24c0.33,-0.16,0.72,-0.47,1.18,-0.94l0,-4.73c0,-0.47,-0.08,-0.79,-0.26,-0.96c-0.17,-0.16,-0.53,-0.25,-1.08,-0.26l0,-0.33l2.84,0m9.17,5.18c-0.22,1.1,-0.66,1.94,-1.32,2.54c-0.65,0.59,-1.38,0.89,-2.18,0.89c-0.94,0,-1.77,-0.39,-2.48,-1.19c-0.7,-0.79,-1.05,-1.87,-1.05,-3.23c0,-1.31,0.39,-2.38,1.17,-3.2c0.78,-0.82,1.72,-1.23,2.81,-1.23c0.82,0,1.49,0.21,2.02,0.65c0.52,0.43,0.79,0.88,0.79,1.35c0,0.23,-0.07,0.41,-0.22,0.56c-0.14,0.14,-0.35,0.21,-0.62,0.21c-0.35,0,-0.63,-0.11,-0.81,-0.34c-0.1,-0.12,-0.17,-0.37,-0.2,-0.73c-0.03,-0.35,-0.15,-0.63,-0.36,-0.82c-0.21,-0.18,-0.5,-0.27,-0.88,-0.27c-0.6,0,-1.09,0.22,-1.47,0.67c-0.49,0.59,-0.73,1.38,-0.73,2.36c0,0.99,0.24,1.87,0.73,2.64c0.49,0.76,1.15,1.14,1.98,1.14c0.59,0,1.13,-0.2,1.6,-0.61c0.33,-0.28,0.66,-0.78,0.97,-1.52l0.26,0.12m3.62,-7.93l0,2.74l1.95,0l0,0.63l-1.95,0l0,5.42c0,0.54,0.07,0.9,0.23,1.09c0.15,0.18,0.35,0.28,0.59,0.28c0.2,0,0.39,-0.06,0.58,-0.18c0.18,-0.12,0.33,-0.3,0.43,-0.55l0.35,0c-0.21,0.59,-0.51,1.04,-0.9,1.34c-0.38,0.3,-0.79,0.45,-1.2,0.45c-0.28,0,-0.55,-0.07,-0.82,-0.23c-0.26,-0.15,-0.46,-0.37,-0.59,-0.66c-0.12,-0.28,-0.19,-0.73,-0.19,-1.33l0,-5.62l-1.32,0l0,-0.3c0.33,-0.13,0.67,-0.36,1.02,-0.68c0.35,-0.31,0.66,-0.69,0.93,-1.13c0.14,-0.23,0.33,-0.65,0.58,-1.26l0.28,0m4.89,-1.87c0.25,0,0.47,0.08,0.65,0.26c0.17,0.17,0.26,0.39,0.26,0.65c0,0.25,-0.08,0.47,-0.26,0.65c-0.17,0.18,-0.39,0.27,-0.65,0.27c-0.25,0,-0.47,-0.09,-0.65,-0.27c-0.18,-0.18,-0.27,-0.4,-0.27,-0.65c0,-0.25,0.08,-0.47,0.26,-0.65c0.17,-0.17,0.4,-0.26,0.66,-0.26m0.75,4.37l0,6.72c0,0.52,0.03,0.87,0.11,1.04c0.07,0.17,0.18,0.3,0.33,0.38c0.14,0.08,0.42,0.12,0.81,0.12l0,0.32l-4.06,0l0,-0.32c0.4,0,0.68,-0.03,0.82,-0.11c0.14,-0.07,0.25,-0.21,0.33,-0.39c0.08,-0.18,0.12,-0.53,0.12,-1.05l0,-3.22c0,-0.9,-0.02,-1.49,-0.08,-1.76c-0.04,-0.19,-0.1,-0.33,-0.2,-0.4c-0.09,-0.07,-0.21,-0.11,-0.37,-0.11c-0.17,0,-0.37,0.04,-0.62,0.13l-0.12,-0.32l2.52,-1.02l0.4,0m6.4,0c1.26,0,2.28,0.48,3.04,1.44c0.65,0.82,0.97,1.76,0.97,2.83c0,0.74,-0.17,1.5,-0.53,2.27c-0.35,0.76,-0.85,1.34,-1.48,1.73c-0.63,0.38,-1.33,0.58,-2.1,0.58c-1.26,0,-2.26,-0.5,-3,-1.5c-0.62,-0.84,-0.94,-1.79,-0.94,-2.84c0,-0.76,0.19,-1.52,0.57,-2.28c0.38,-0.75,0.88,-1.31,1.5,-1.68c0.62,-0.36,1.27,-0.54,1.97,-0.54m-0.28,0.59c-0.32,0,-0.64,0.09,-0.97,0.28c-0.32,0.19,-0.58,0.52,-0.78,1c-0.2,0.48,-0.3,1.09,-0.3,1.85c0,1.21,0.24,2.26,0.72,3.15c0.48,0.88,1.12,1.32,1.91,1.32c0.59,0,1.07,-0.24,1.46,-0.73c0.38,-0.48,0.57,-1.32,0.57,-2.51c0,-1.48,-0.31,-2.65,-0.95,-3.5c-0.43,-0.58,-0.98,-0.87,-1.65,-0.87m8.03,1.17c0.98,-1.18,1.91,-1.77,2.8,-1.77c0.45,0,0.84,0.11,1.17,0.34c0.32,0.22,0.59,0.6,0.78,1.12c0.13,0.36,0.2,0.92,0.2,1.68l0,3.57c0,0.52,0.04,0.88,0.12,1.07c0.06,0.15,0.17,0.27,0.32,0.35c0.14,0.08,0.42,0.12,0.82,0.12l0,0.32l-4.13,0l0,-0.32l0.17,0c0.38,0,0.66,-0.05,0.81,-0.17c0.15,-0.11,0.26,-0.29,0.32,-0.52c0.02,-0.09,0.03,-0.37,0.03,-0.85l0,-3.42c0,-0.76,-0.09,-1.31,-0.29,-1.65c-0.19,-0.34,-0.53,-0.51,-0.99,-0.51c-0.72,0,-1.44,0.39,-2.16,1.18l0,4.41c0,0.56,0.03,0.91,0.1,1.05c0.08,0.17,0.2,0.3,0.35,0.38c0.14,0.08,0.45,0.12,0.9,0.12l0,0.32l-4.13,0l0,-0.32l0.18,0c0.42,0,0.71,-0.1,0.86,-0.32c0.14,-0.21,0.22,-0.62,0.22,-1.23l0,-3.1c0,-1,-0.02,-1.61,-0.06,-1.83c-0.04,-0.21,-0.11,-0.36,-0.21,-0.44c-0.09,-0.07,-0.22,-0.11,-0.37,-0.11c-0.17,0,-0.37,0.04,-0.61,0.13l-0.13,-0.32l2.52,-1.02l0.39,0l0,1.77m13.3,-6.14l0,17.01l-0.75,0l0,-17.01l0.75,0m3.8,0l0,17.01l-0.75,0l0,-17.01l0.75,0m8.84,11.66c-0.56,0.54,-1.08,0.92,-1.55,1.15c-0.55,0.28,-1.17,0.42,-1.87,0.42c-0.82,0,-1.54,-0.21,-2.15,-0.63c-0.69,-0.47,-1.04,-1.11,-1.04,-1.9c0,-0.97,0.74,-1.68,2.23,-2.14c-1.19,-0.42,-1.79,-1.07,-1.79,-1.93c0,-0.76,0.38,-1.34,1.15,-1.75c0.62,-0.32,1.34,-0.49,2.17,-0.49c0.62,0,1.19,0.09,1.71,0.27c0.72,0.26,1.08,0.65,1.08,1.16c0,0.2,-0.07,0.38,-0.23,0.54c-0.15,0.15,-0.34,0.23,-0.54,0.23c-0.34,0,-0.62,-0.23,-0.84,-0.71c-0.3,-0.65,-0.76,-0.98,-1.36,-0.98c-0.51,0,-0.92,0.17,-1.22,0.52c-0.28,0.32,-0.42,0.74,-0.42,1.27c0,1.11,0.57,1.67,1.72,1.67c0.1,0,0.24,-0.01,0.42,-0.03c0.26,-0.03,0.47,-0.05,0.63,-0.05c0.37,0,0.55,0.1,0.55,0.31c0,0.23,-0.18,0.35,-0.56,0.35c-0.15,0,-0.35,-0.02,-0.6,-0.06c-0.21,-0.03,-0.37,-0.05,-0.46,-0.05c-1.21,0,-1.82,0.62,-1.82,1.86c0,0.53,0.15,0.98,0.47,1.34c0.31,0.35,0.74,0.53,1.27,0.53c0.89,0,1.83,-0.38,2.83,-1.15l0.23,0.23" fill="#000000" stroke="none" fill-opacity="1"/>
<path d="m198.47,-1.4l1.59,2.37c0.44,0.65,0.76,1.07,0.98,1.24c0.21,0.17,0.48,0.26,0.81,0.28l0,0.2l-3.18,0l0,-0.2c0.21,0,0.36,-0.02,0.47,-0.06c0.07,-0.03,0.13,-0.08,0.18,-0.15c0.04,-0.06,0.07,-0.13,0.07,-0.2c0,-0.08,-0.01,-0.16,-0.04,-0.25c-0.02,-0.06,-0.12,-0.22,-0.3,-0.48l-1.25,-1.9l-1.55,1.99c-0.16,0.21,-0.26,0.35,-0.29,0.42c-0.03,0.07,-0.04,0.14,-0.04,0.22c0,0.11,0.04,0.21,0.14,0.28c0.09,0.07,0.28,0.12,0.56,0.13l0,0.2l-2.63,0l0,-0.2c0.18,-0.01,0.34,-0.05,0.48,-0.11c0.22,-0.09,0.44,-0.22,0.64,-0.38c0.2,-0.16,0.43,-0.4,0.7,-0.73l1.75,-2.2l-1.46,-2.13c-0.39,-0.57,-0.73,-0.95,-1.01,-1.14c-0.27,-0.18,-0.59,-0.27,-0.95,-0.28l0,-0.2l3.42,0l0,0.2c-0.29,0.01,-0.49,0.05,-0.59,0.14c-0.1,0.08,-0.16,0.17,-0.16,0.27c0,0.13,0.08,0.33,0.26,0.59l1.13,1.7l1.31,-1.66c0.15,-0.19,0.24,-0.33,0.28,-0.4c0.03,-0.07,0.05,-0.14,0.05,-0.22c0,-0.07,-0.02,-0.14,-0.06,-0.2c-0.05,-0.07,-0.12,-0.13,-0.2,-0.16c-0.08,-0.03,-0.25,-0.04,-0.51,-0.05l0,-0.2l2.63,0l0,0.2c-0.2,0.01,-0.37,0.04,-0.5,0.09c-0.19,0.08,-0.37,0.19,-0.54,0.33c-0.16,0.14,-0.39,0.4,-0.69,0.78l-1.47,1.88" fill="#000000" stroke="none" fill-opacity="1"/>
<path d="m204.22,-12.98l0,17.01l-0.75,0l0,-17.01l0.75,0m3.8,0l0,17.01l-0.75,0l0,-17.01l0.75,0" fill="#000000" stroke="none" fill-opacity="1"/>
</g>
<path d="m50.52,502.95c0,-1.41,0.21,-2.62,0.63,-3.64c0.42,-1.01,0.99,-1.77,1.69,-2.27c0.54,-0.39,1.11,-0.59,1.69,-0.59c0.94,0,1.8,0.48,2.55,1.45c0.94,1.19,1.41,2.82,1.41,4.87c0,1.43,-0.2,2.65,-0.62,3.66c-0.41,1,-0.94,1.73,-1.58,2.18c-0.64,0.45,-1.26,0.68,-1.85,0.68c-1.18,0,-2.16,-0.69,-2.94,-2.09c-0.66,-1.17,-0.99,-2.59,-0.99,-4.24m1.78,0.22c0,1.7,0.21,3.09,0.63,4.17c0.34,0.9,0.86,1.36,1.55,1.36c0.32,0,0.66,-0.14,1.02,-0.44c0.35,-0.29,0.62,-0.78,0.8,-1.48c0.28,-1.04,0.42,-2.52,0.42,-4.42c0,-1.41,-0.14,-2.59,-0.43,-3.53c-0.21,-0.7,-0.5,-1.19,-0.84,-1.48c-0.24,-0.2,-0.55,-0.3,-0.9,-0.3c-0.41,0,-0.78,0.18,-1.1,0.55c-0.43,0.5,-0.73,1.29,-0.89,2.38c-0.15,1.08,-0.23,2.15,-0.23,3.2" fill="#000000" stroke="none" fill-opacity="1"/>
<path d="m27.02,379.17c0,-1.41,0.21,-2.62,0.63,-3.64c0.42,-1.01,0.99,-1.77,1.69,-2.27c0.54,-0.39,1.11,-0.59,1.69,-0.59c0.94,0,1.8,0.48,2.55,1.45c0.94,1.19,1.41,2.82,1.41,4.87c0,1.43,-0.2,2.65,-0.62,3.66c-0.41,1,-0.94,1.73,-1.58,2.18c-0.64,0.45,-1.26,0.68,-1.85,0.68c-1.18,0,-2.16,-0.69,-2.94,-2.09c-0.66,-1.17,-0.99,-2.59,-0.99,-4.24m1.78,0.22c0,1.7,0.21,3.09,0.63,4.17c0.34,0.9,0.86,1.36,1.55,1.36c0.32,0,0.66,-0.14,1.02,-0.44c0.35,-0.29,0.62,-0.78,0.8,-1.48c0.28,-1.04,0.42,-2.52,0.42,-4.42c0,-1.41,-0.14,-2.59,-0.43,-3.53c-0.21,-0.7,-0.5,-1.19,-0.84,-1.48c-0.24,-0.2,-0.55,-0.3,-0.9,-0.3c-0.41,0,-0.78,0.18,-1.1,0.55c-0.43,0.5,-0.73,1.29,-0.89,2.38c-0.15,1.08,-0.23,2.15,-0.23,3.2m7.93,9l0,-0.4c0.62,-0.2,1.11,-0.52,1.45,-0.96c0.34,-0.43,0.51,-0.89,0.51,-1.38c0,-0.11,-0.02,-0.21,-0.08,-0.29c-0.04,-0.05,-0.08,-0.08,-0.12,-0.08c-0.06,0,-0.21,0.06,-0.43,0.18c-0.1,0.05,-0.22,0.08,-0.34,0.08c-0.29,0,-0.53,-0.08,-0.71,-0.26c-0.17,-0.17,-0.26,-0.42,-0.26,-0.73c0,-0.29,0.11,-0.55,0.34,-0.76c0.22,-0.21,0.5,-0.31,0.83,-0.31c0.4,0,0.75,0.17,1.07,0.52c0.31,0.35,0.47,0.81,0.47,1.39c0,0.62,-0.21,1.2,-0.65,1.74c-0.43,0.53,-1.12,0.96,-2.06,1.27m4.37,-9.23c0,-1.41,0.21,-2.62,0.63,-3.64c0.42,-1.01,0.99,-1.77,1.69,-2.27c0.54,-0.39,1.11,-0.59,1.69,-0.59c0.94,0,1.8,0.48,2.55,1.45c0.94,1.19,1.41,2.82,1.41,4.87c0,1.43,-0.2,2.65,-0.62,3.66c-0.41,1,-0.94,1.73,-1.58,2.18c-0.64,0.45,-1.26,0.68,-1.85,0.68c-1.18,0,-2.16,-0.69,-2.94,-2.09c-0.66,-1.17,-0.99,-2.59,-0.99,-4.24m1.78,0.22c0,1.7,0.21,3.09,0.63,4.17c0.34,0.9,0.86,1.36,1.55,1.36c0.32,0,0.66,-0.14,1.02,-0.44c0.35,-0.29,0.62,-0.78,0.8,-1.48c0.28,-1.04,0.42,-2.52,0.42,-4.42c0,-1.41,-0.14,-2.59,-0.43,-3.53c-0.21,-0.7,-0.5,-1.19,-0.84,-1.48c-0.24,-0.2,-0.55,-0.3,-0.9,-0.3c-0.41,0,-0.78,0.18,-1.1,0.55c-0.43,0.5,-0.73,1.29,-0.89,2.38c-0.15,1.08,-0.23,2.15,-0.23,3.2m15.05,-6.49l-0.71,1.55l-3.72,0l-0.81,1.66c1.61,0.23,2.89,0.83,3.83,1.79c0.8,0.82,1.21,1.8,1.21,2.92c0,0.65,-0.13,1.25,-0.39,1.8c-0.26,0.55,-0.59,1.02,-0.99,1.41c-0.4,0.38,-0.84,0.7,-1.34,0.94c-0.7,0.33,-1.41,0.5,-2.15,0.5c-0.74,0,-1.28,-0.12,-1.62,-0.37c-0.33,-0.25,-0.5,-0.53,-0.5,-0.83c0,-0.17,0.07,-0.32,0.21,-0.45c0.14,-0.13,0.31,-0.19,0.52,-0.19c0.15,0,0.29,0.02,0.41,0.07c0.11,0.04,0.32,0.17,0.6,0.37c0.45,0.31,0.91,0.47,1.38,0.47c0.71,0,1.33,-0.26,1.87,-0.8c0.53,-0.53,0.8,-1.19,0.8,-1.96c0,-0.74,-0.24,-1.44,-0.72,-2.09c-0.48,-0.64,-1.14,-1.14,-1.99,-1.5c-0.66,-0.27,-1.56,-0.43,-2.71,-0.47l2.37,-4.81l4.43,0" fill="#000000" stroke="none" fill-opacity="1"/>
<path d="m36.42,255.39c0,-1.41,0.21,-2.62,0.63,-3.64c0.42,-1.01,0.99,-1.77,1.69,-2.27c0.54,-0.39,1.11,-0.59,1.69,-0.59c0.94,0,1.8,0.48,2.55,1.45c0.94,1.19,1.41,2.82,1.41,4.87c0,1.43,-0.2,2.65,-0.62,3.66c-0.41,1,-0.94,1.73,-1.58,2.18c-0.64,0.45,-1.26,0.68,-1.85,0.68c-1.18,0,-2.16,-0.69,-2.94,-2.09c-0.66,-1.17,-0.99,-2.59,-0.99,-4.24m1.78,0.22c0,1.7,0.21,3.09,0.63,4.17c0.34,0.9,0.86,1.36,1.55,1.36c0.32,0,0.66,-0.14,1.02,-0.44c0.35,-0.29,0.62,-0.78,0.8,-1.48c0.28,-1.04,0.42,-2.52,0.42,-4.42c0,-1.41,-0.14,-2.59,-0.43,-3.53c-0.21,-0.7,-0.5,-1.19,-0.84,-1.48c-0.24,-0.2,-0.55,-0.3,-0.9,-0.3c-0.41,0,-0.78,0.18,-1.1,0.55c-0.43,0.5,-0.73,1.29,-0.89,2.38c-0.15,1.08,-0.23,2.15,-0.23,3.2m7.93,9l0,-0.4c0.62,-0.2,1.11,-0.52,1.45,-0.96c0.34,-0.43,0.51,-0.89,0.51,-1.38c0,-0.11,-0.02,-0.21,-0.08,-0.29c-0.04,-0.05,-0.08,-0.08,-0.12,-0.08c-0.06,0,-0.21,0.06,-0.43,0.18c-0.1,0.05,-0.22,0.08,-0.34,0.08c-0.29,0,-0.53,-0.08,-0.71,-0.26c-0.17,-0.17,-0.26,-0.42,-0.26,-0.73c0,-0.29,0.11,-0.55,0.34,-0.76c0.22,-0.21,0.5,-0.31,0.83,-0.31c0.4,0,0.75,0.17,1.07,0.52c0.31,0.35,0.47,0.81,0.47,1.39c0,0.62,-0.21,1.2,-0.65,1.74c-0.43,0.53,-1.12,0.96,-2.06,1.27m5.88,-14.28l3.01,-1.47l0.3,0l0,10.45c0,0.69,0.02,1.12,0.08,1.29c0.05,0.17,0.17,0.3,0.36,0.39c0.18,0.09,0.55,0.14,1.11,0.15l0,0.33l-4.65,0l0,-0.33c0.58,-0.01,0.96,-0.06,1.13,-0.15c0.17,-0.08,0.28,-0.2,0.35,-0.35c0.06,-0.14,0.1,-0.59,0.1,-1.33l0,-6.68c0,-0.9,-0.03,-1.47,-0.09,-1.73c-0.04,-0.19,-0.12,-0.33,-0.23,-0.42c-0.11,-0.09,-0.24,-0.13,-0.4,-0.13c-0.22,0,-0.53,0.09,-0.94,0.28l-0.13,-0.28" fill="#000000" stroke="none" fill-opacity="1"/>
<path d="m27.02,131.61c0,-1.41,0.21,-2.62,0.63,-3.64c0.42,-1.01,0.99,-1.77,1.69,-2.27c0.54,-0.39,1.11,-0.59,1.69,-0.59c0.94,0,1.8,0.48,2.55,1.45c0.94,1.19,1.41,2.82,1.41,4.87c0,1.43,-0.2,2.65,-0.62,3.66c-0.41,1,-0.94,1.73,-1.58,2.18c-0.64,0.45,-1.26,0.68,-1.85,0.68c-1.18,0,-2.16,-0.69,-2.94,-2.09c-0.66,-1.17,-0.99,-2.59,-0.99,-4.24m1.78,0.22c0,1.7,0.21,3.09,0.63,4.17c0.34,0.9,0.86,1.36,1.55,1.36c0.32,0,0.66,-0.14,1.02,-0.44c0.35,-0.29,0.62,-0.78,0.8,-1.48c0.28,-1.04,0.42,-2.52,0.42,-4.42c0,-1.41,-0.14,-2.59,-0.43,-3.53c-0.21,-0.7,-0.5,-1.19,-0.84,-1.48c-0.24,-0.2,-0.55,-0.3,-0.9,-0.3c-0.41,0,-0.78,0.18,-1.1,0.55c-0.43,0.5,-0.73,1.29,-0.89,2.38c-0.15,1.08,-0.23,2.15,-0.23,3.2m7.93,9l0,-0.4c0.62,-0.2,1.11,-0.52,1.45,-0.96c0.34,-0.43,0.51,-0.89,0.51,-1.38c0,-0.11,-0.02,-0.21,-0.08,-0.29c-0.04,-0.05,-0.08,-0.08,-0.12,-0.08c-0.06,0,-0.21,0.06,-0.43,0.18c-0.1,0.05,-0.22,0.08,-0.34,0.08c-0.29,0,-0.53,-0.08,-0.71,-0.26c-0.17,-0.17,-0.26,-0.42,-0.26,-0.73c0,-0.29,0.11,-0.55,0.34,-0.76c0.22,-0.21,0.5,-0.31,0.83,-0.31c0.4,0,0.75,0.17,1.07,0.52c0.31,0.35,0.47,0.81,0.47,1.39c0,0.62,-0.21,1.2,-0.65,1.74c-0.43,0.53,-1.12,0.96,-2.06,1.27m5.88,-14.28l3.01,-1.47l0.3,0l0,10.45c0,0.69,0.02,1.12,0.08,1.29c0.05,0.17,0.17,0.3,0.36,0.39c0.18,0.09,0.55,0.14,1.11,0.15l0,0.33l-4.65,0l0,-0.33c0.58,-0.01,0.96,-0.06,1.13,-0.15c0.17,-0.08,0.28,-0.2,0.35,-0.35c0.06,-0.14,0.1,-0.59,0.1,-1.33l0,-6.68c0,-0.9,-0.03,-1.47,-0.09,-1.73c-0.04,-0.19,-0.12,-0.33,-0.23,-0.42c-0.11,-0.09,-0.24,-0.13,-0.4,-0.13c-0.22,0,-0.53,0.09,-0.94,0.28l-0.13,-0.28m15.32,-1.21l-0.71,1.55l-3.72,0l-0.81,1.66c1.61,0.23,2.89,0.83,3.83,1.79c0.8,0.82,1.21,1.8,1.21,2.92c0,0.65,-0.13,1.25,-0.39,1.8c-0.26,0.55,-0.59,1.02,-0.99,1.41c-0.4,0.38,-0.84,0.7,-1.34,0.94c-0.7,0.33,-1.41,0.5,-2.15,0.5c-0.74,0,-1.28,-0.12,-1.62,-0.37c-0.33,-0.25,-0.5,-0.53,-0.5,-0.83c0,-0.17,0.07,-0.32,0.21,-0.45c0.14,-0.13,0.31,-0.19,0.52,-0.19c0.15,0,0.29,0.02,0.41,0.07c0.11,0.04,0.32,0.17,0.6,0.37c0.45,0.31,0.91,0.47,1.38,0.47c0.71,0,1.33,-0.26,1.87,-0.8c0.53,-0.53,0.8,-1.19,0.8,-1.96c0,-0.74,-0.24,-1.44,-0.72,-2.09c-0.48,-0.64,-1.14,-1.14,-1.99,-1.5c-0.66,-0.27,-1.56,-0.43,-2.71,-0.47l2.37,-4.81l4.43,0" fill="#000000" stroke="none" fill-opacity="1"/>
<path d="m36.42,10.86c0,-1.41,0.21,-2.62,0.63,-3.64c0.42,-1.01,0.99,-1.77,1.69,-2.27c0.54,-0.39,1.11,-0.59,1.69,-0.59c0.94,0,1.8,0.48,2.55,1.45c0.94,1.19,1.41,2.82,1.41,4.87c0,1.43,-0.2,2.65,-0.62,3.66c-0.41,1,-0.94,1.73,-1.58,2.18c-0.64,0.45,-1.26,0.68,-1.85,0.68c-1.18,0,-2.16,-0.69,-2.94,-2.09c-0.66,-1.17,-0.99,-2.59,-0.99,-4.24m1.78,0.22c0,1.7,0.21,3.09,0.63,4.17c0.34,0.9,0.86,1.36,1.55,1.36c0.32,0,0.66,-0.14,1.02,-0.44c0.35,-0.29,0.62,-0.78,0.8,-1.48c0.28,-1.04,0.42,-2.52,0.42,-4.42c0,-1.41,-0.14,-2.59,-0.43,-3.53c-0.21,-0.7,-0.5,-1.19,-0.84,-1.48c-0.24,-0.2,-0.55,-0.3,-0.9,-0.3c-0.41,0,-0.78,0.18,-1.1,0.55c-0.43,0.5,-0.73,1.29,-0.89,2.38c-0.15,1.08,-0.23,2.15,-0.23,3.2m7.93,9l0,-0.4c0.62,-0.2,1.11,-0.52,1.45,-0.96c0.34,-0.43,0.51,-0.89,0.51,-1.38c0,-0.11,-0.02,-0.21,-0.08,-0.29c-0.04,-0.05,-0.08,-0.08,-0.12,-0.08c-0.06,0,-0.21,0.06,-0.43,0.18c-0.1,0.05,-0.22,0.08,-0.34,0.08c-0.29,0,-0.53,-0.08,-0.71,-0.26c-0.17,-0.17,-0.26,-0.42,-0.26,-0.73c0,-0.29,0.11,-0.55,0.34,-0.76c0.22,-0.21,0.5,-0.31,0.83,-0.31c0.4,0,0.75,0.17,1.07,0.52c0.31,0.35,0.47,0.81,0.47,1.39c0,0.62,-0.21,1.2,-0.65,1.74c-0.43,0.53,-1.12,0.96,-2.06,1.27m12.26,-5.49l-0.86,2.38l-7.3,0l0,-0.33c2.14,-1.96,3.66,-3.56,4.53,-4.8c0.87,-1.24,1.31,-2.37,1.31,-3.4c0,-0.78,-0.24,-1.43,-0.72,-1.93c-0.48,-0.5,-1.05,-0.75,-1.72,-0.75c-0.6,0,-1.15,0.17,-1.63,0.53c-0.48,0.35,-0.84,0.87,-1.07,1.56l-0.33,0c0.15,-1.12,0.54,-1.99,1.17,-2.59c0.63,-0.6,1.41,-0.9,2.36,-0.9c1,0,1.84,0.32,2.51,0.96c0.67,0.64,1,1.4,1,2.28c0,0.62,-0.14,1.25,-0.43,1.88c-0.45,0.98,-1.18,2.03,-2.19,3.13c-1.51,1.65,-2.46,2.65,-2.83,2.99l3.23,0c0.65,0,1.11,-0.02,1.38,-0.07c0.26,-0.04,0.5,-0.14,0.71,-0.29c0.21,-0.14,0.39,-0.36,0.55,-0.63l0.33,0" fill="#000000" stroke="none" fill-opacity="1"/>
</g>
<g fill="none" stroke-linecap="butt" stroke-width="0.66">
<path d="M64.25,502.67l495.11,0"/>
<path d="M64.25,502.67l0,-4M160.38,502.67l0,-4M209.19,502.67l0,-4M243.82,502.67l0,-4M270.69,502.67l0,-4M292.64,502.67l0,-4M311.19,502.67l0,-4M327.27,502.67l0,-4M341.45,502.67l0,-4M437.58,502.67l0,-4M486.39,502.67l0,-4M521.03,502.67l0,-4M547.89,502.67l0,-4"/>
<path d="M76.93,502.67l0,-8M354.13,502.67l0,-8"/>
</g>
<g fill="none" stroke-width="0.1">
<path d="m225.71,539.37l0,4.89l2.72,0c0.7,0,1.17,-0.1,1.41,-0.31c0.31,-0.28,0.49,-0.77,0.52,-1.47l0.33,0l0,4.3l-0.33,0c-0.08,-0.6,-0.17,-0.98,-0.25,-1.15c-0.1,-0.21,-0.28,-0.38,-0.53,-0.5c-0.24,-0.12,-0.63,-0.18,-1.15,-0.18l-2.72,0l0,4.08c0,0.54,0.02,0.88,0.07,0.99c0.04,0.11,0.13,0.21,0.25,0.28c0.12,0.07,0.35,0.1,0.69,0.1l2.1,0c0.7,0,1.2,-0.04,1.52,-0.14c0.31,-0.09,0.62,-0.28,0.91,-0.57c0.37,-0.37,0.76,-0.94,1.15,-1.7l0.36,0l-1.06,3.1l-9.54,0l0,-0.33l0.43,0c0.29,0,0.56,-0.07,0.83,-0.21c0.19,-0.09,0.32,-0.24,0.39,-0.43c0.07,-0.19,0.1,-0.59,0.1,-1.19l0,-8.04c0,-0.78,-0.07,-1.26,-0.23,-1.45c-0.21,-0.24,-0.58,-0.36,-1.09,-0.36l-0.43,0l0,-0.33l9.54,0l0.13,2.71l-0.35,0c-0.12,-0.65,-0.26,-1.09,-0.42,-1.34c-0.15,-0.24,-0.38,-0.42,-0.68,-0.55c-0.24,-0.09,-0.67,-0.13,-1.28,-0.13l-3.39,0m15.18,8.52c-0.22,1.1,-0.66,1.94,-1.32,2.54c-0.65,0.59,-1.38,0.89,-2.18,0.89c-0.94,0,-1.77,-0.39,-2.48,-1.19c-0.7,-0.79,-1.05,-1.87,-1.05,-3.23c0,-1.31,0.39,-2.38,1.17,-3.2c0.78,-0.82,1.72,-1.23,2.81,-1.23c0.82,0,1.49,0.21,2.02,0.65c0.52,0.43,0.79,0.88,0.79,1.35c0,0.23,-0.07,0.41,-0.22,0.56c-0.14,0.14,-0.35,0.21,-0.62,0.21c-0.35,0,-0.63,-0.11,-0.81,-0.34c-0.1,-0.12,-0.17,-0.37,-0.2,-0.73c-0.03,-0.35,-0.15,-0.63,-0.36,-0.82c-0.21,-0.18,-0.5,-0.27,-0.88,-0.27c-0.6,0,-1.09,0.22,-1.47,0.67c-0.49,0.59,-0.73,1.38,-0.73,2.36c0,0.99,0.24,1.87,0.73,2.64c0.49,0.76,1.15,1.14,1.98,1.14c0.59,0,1.13,-0.2,1.6,-0.61c0.33,-0.28,0.66,-0.78,0.97,-1.52l0.26,0.12m5.93,1.97c-0.85,0.66,-1.39,1.04,-1.61,1.15c-0.32,0.15,-0.67,0.22,-1.05,0.22c-0.57,0,-1.05,-0.19,-1.42,-0.59c-0.37,-0.39,-0.56,-0.91,-0.56,-1.56c0,-0.4,0.09,-0.76,0.27,-1.05c0.24,-0.41,0.68,-0.8,1.3,-1.16c0.61,-0.36,1.64,-0.8,3.08,-1.33l0,-0.32c0,-0.83,-0.13,-1.4,-0.39,-1.71c-0.26,-0.31,-0.64,-0.46,-1.15,-0.46c-0.38,0,-0.68,0.1,-0.91,0.31c-0.23,0.2,-0.34,0.44,-0.34,0.71l0.01,0.52c0,0.28,-0.07,0.49,-0.21,0.64c-0.14,0.15,-0.33,0.22,-0.56,0.22c-0.22,0,-0.4,-0.07,-0.55,-0.23c-0.14,-0.15,-0.21,-0.37,-0.21,-0.64c0,-0.52,0.26,-1,0.8,-1.44c0.53,-0.43,1.28,-0.65,2.25,-0.65c0.74,0,1.35,0.12,1.82,0.37c0.35,0.18,0.62,0.48,0.79,0.88c0.1,0.26,0.16,0.79,0.16,1.6l0,2.83c0,0.79,0.01,1.28,0.04,1.46c0.03,0.17,0.08,0.29,0.15,0.36c0.07,0.06,0.15,0.09,0.24,0.09c0.09,0,0.18,-0.02,0.25,-0.06c0.12,-0.07,0.37,-0.3,0.73,-0.66l0,0.51c-0.68,0.91,-1.33,1.36,-1.95,1.36c-0.29,0,-0.53,-0.1,-0.71,-0.31c-0.17,-0.2,-0.26,-0.56,-0.27,-1.05m0,-0.59l0,-3.18c-0.91,0.36,-1.51,0.62,-1.78,0.77c-0.48,0.26,-0.82,0.54,-1.03,0.84c-0.2,0.29,-0.31,0.61,-0.31,0.95c0,0.43,0.13,0.8,0.39,1.09c0.26,0.28,0.56,0.43,0.9,0.43c0.46,0,1.07,-0.3,1.82,-0.91m6,-6.81l0,1.88c0.7,-1.25,1.41,-1.88,2.15,-1.88c0.33,0,0.61,0.1,0.83,0.3c0.21,0.2,0.32,0.43,0.32,0.7c0,0.23,-0.07,0.43,-0.23,0.6c-0.15,0.16,-0.34,0.24,-0.56,0.24c-0.21,0,-0.45,-0.1,-0.71,-0.31c-0.26,-0.21,-0.46,-0.31,-0.58,-0.31c-0.1,0,-0.22,0.06,-0.35,0.18c-0.27,0.24,-0.55,0.66,-0.84,1.23l0,4c0,0.46,0.05,0.81,0.17,1.05c0.07,0.16,0.21,0.3,0.42,0.41c0.2,0.1,0.49,0.16,0.86,0.16l0,0.32l-4.28,0l0,-0.32c0.42,0,0.74,-0.06,0.94,-0.2c0.15,-0.09,0.25,-0.25,0.31,-0.46c0.03,-0.1,0.04,-0.39,0.04,-0.88l0,-3.24c0,-0.97,-0.01,-1.55,-0.05,-1.73c-0.03,-0.18,-0.11,-0.32,-0.21,-0.4c-0.1,-0.08,-0.23,-0.12,-0.39,-0.12c-0.18,0,-0.4,0.04,-0.63,0.13l-0.09,-0.32l2.52,-1.02l0.38,0m6.18,-2.5l0,2.74l1.95,0l0,0.63l-1.95,0l0,5.42c0,0.54,0.07,0.9,0.23,1.09c0.15,0.18,0.35,0.28,0.59,0.28c0.2,0,0.39,-0.06,0.58,-0.18c0.18,-0.12,0.33,-0.3,0.43,-0.55l0.35,0c-0.21,0.59,-0.51,1.04,-0.9,1.34c-0.38,0.3,-0.79,0.45,-1.2,0.45c-0.28,0,-0.55,-0.07,-0.82,-0.23c-0.26,-0.15,-0.46,-0.37,-0.59,-0.66c-0.12,-0.28,-0.19,-0.73,-0.19,-1.33l0,-5.62l-1.32,0l0,-0.3c0.33,-0.13,0.67,-0.36,1.02,-0.68c0.35,-0.31,0.66,-0.69,0.93,-1.13c0.14,-0.23,0.33,-0.65,0.58,-1.26l0.28,0m12.69,14.77l0,0.33c-0.91,-0.46,-1.68,-1,-2.3,-1.62c-0.87,-0.88,-1.55,-1.92,-2.02,-3.12c-0.47,-1.19,-0.71,-2.44,-0.71,-3.73c0,-1.88,0.46,-3.6,1.39,-5.16c0.93,-1.55,2.14,-2.66,3.64,-3.33l0,0.38c-0.74,0.41,-1.36,0.98,-1.84,1.69c-0.48,0.71,-0.84,1.62,-1.07,2.73c-0.23,1.1,-0.35,2.25,-0.35,3.45c0,1.3,0.1,2.48,0.3,3.55c0.15,0.84,0.35,1.51,0.57,2.02c0.22,0.5,0.52,0.99,0.9,1.46c0.38,0.46,0.87,0.91,1.49,1.34m5.71,-4.86c-0.85,0.66,-1.39,1.04,-1.61,1.15c-0.32,0.15,-0.67,0.22,-1.05,0.22c-0.57,0,-1.05,-0.19,-1.42,-0.59c-0.37,-0.39,-0.56,-0.91,-0.56,-1.56c0,-0.4,0.09,-0.76,0.27,-1.05c0.24,-0.41,0.68,-0.8,1.3,-1.16c0.61,-0.36,1.64,-0.8,3.08,-1.33l0,-0.32c0,-0.83,-0.13,-1.4,-0.39,-1.71c-0.26,-0.31,-0.64,-0.46,-1.15,-0.46c-0.38,0,-0.68,0.1,-0.91,0.31c-0.23,0.2,-0.34,0.44,-0.34,0.71l0.01,0.52c0,0.28,-0.07,0.49,-0.21,0.64c-0.14,0.15,-0.33,0.22,-0.56,0.22c-0.22,0,-0.4,-0.07,-0.55,-0.23c-0.14,-0.15,-0.21,-0.37,-0.21,-0.64c0,-0.52,0.26,-1,0.8,-1.44c0.53,-0.43,1.28,-0.65,2.25,-0.65c0.74,0,1.35,0.12,1.82,0.37c0.35,0.18,0.62,0.48,0.79,0.88c0.1,0.26,0.16,0.79,0.16,1.6l0,2.83c0,0.79,0.01,1.28,0.04,1.46c0.03,0.17,0.08,0.29,0.15,0.36c0.07,0.06,0.15,0.09,0.24,0.09c0.09,0,0.18,-0.02,0.25,-0.06c0.12,-0.07,0.37,-0.3,0.73,-0.66l0,0.51c-0.68,0.91,-1.33,1.36,-1.95,1.36c-0.29,0,-0.53,-0.1,-0.71,-0.31c-0.17,-0.2,-0.26,-0.56,-0.27,-1.05m0,-0.59l0,-3.18c-0.91,0.36,-1.51,0.62,-1.78,0.77c-0.48,0.26,-0.82,0.54,-1.03,0.84c-0.2,0.29,-0.31,0.61,-0.31,0.95c0,0.43,0.13,0.8,0.39,1.09c0.26,0.28,0.56,0.43,0.9,0.43c0.46,0,1.07,-0.3,1.82,-0.91m5.99,-5.04c0.98,-1.18,1.91,-1.77,2.8,-1.77c0.45,0,0.84,0.11,1.17,0.34c0.32,0.22,0.59,0.6,0.78,1.12c0.13,0.36,0.2,0.92,0.2,1.68l0,3.57c0,0.52,0.04,0.88,0.12,1.07c0.06,0.15,0.17,0.27,0.32,0.35c0.14,0.08,0.42,0.12,0.82,0.12l0,0.32l-4.13,0l0,-0.32l0.17,0c0.38,0,0.66,-0.05,0.81,-0.17c0.15,-0.11,0.26,-0.29,0.32,-0.52c0.02,-0.09,0.03,-0.37,0.03,-0.85l0,-3.42c0,-0.76,-0.09,-1.31,-0.29,-1.65c-0.19,-0.34,-0.53,-0.51,-0.99,-0.51c-0.72,0,-1.44,0.39,-2.16,1.18l0,4.41c0,0.56,0.03,0.91,0.1,1.05c0.08,0.17,0.2,0.3,0.35,0.38c0.14,0.08,0.45,0.12,0.9,0.12l0,0.32l-4.13,0l0,-0.32l0.18,0c0.42,0,0.71,-0.1,0.86,-0.32c0.14,-0.21,0.22,-0.62,0.22,-1.23l0,-3.1c0,-1,-0.02,-1.61,-0.06,-1.83c-0.04,-0.21,-0.11,-0.36,-0.21,-0.44c-0.09,-0.07,-0.22,-0.11,-0.37,-0.11c-0.17,0,-0.37,0.04,-0.61,0.13l-0.13,-0.32l2.52,-1.02l0.39,0l0,1.77m9.19,3.78c-0.51,-0.24,-0.9,-0.59,-1.17,-1.04c-0.27,-0.44,-0.41,-0.94,-0.41,-1.48c0,-0.82,0.31,-1.54,0.93,-2.13c0.62,-0.59,1.42,-0.89,2.39,-0.89c0.79,0,1.48,0.19,2.07,0.58l1.77,0c0.26,0,0.41,0,0.45,0.02c0.04,0.01,0.07,0.04,0.09,0.07c0.03,0.05,0.05,0.15,0.05,0.29c0,0.15,-0.01,0.26,-0.04,0.32c-0.01,0.03,-0.05,0.05,-0.09,0.07c-0.04,0.01,-0.19,0.02,-0.46,0.02l-1.08,0c0.34,0.43,0.51,0.99,0.51,1.68c0,0.77,-0.29,1.44,-0.89,1.99c-0.59,0.55,-1.39,0.83,-2.4,0.83c-0.41,0,-0.83,-0.06,-1.26,-0.18c-0.26,0.23,-0.44,0.43,-0.54,0.6c-0.09,0.17,-0.14,0.32,-0.14,0.44c0,0.1,0.05,0.2,0.15,0.3c0.1,0.09,0.29,0.16,0.58,0.21c0.17,0.02,0.59,0.04,1.27,0.06c1.25,0.03,2.06,0.07,2.43,0.12c0.56,0.07,1.01,0.28,1.35,0.63c0.33,0.34,0.5,0.76,0.5,1.26c0,0.68,-0.32,1.33,-0.96,1.93c-0.94,0.88,-2.18,1.33,-3.71,1.33c-1.17,0,-2.16,-0.26,-2.97,-0.79c-0.45,-0.3,-0.68,-0.62,-0.68,-0.94c0,-0.14,0.03,-0.29,0.1,-0.43c0.1,-0.22,0.31,-0.53,0.63,-0.94c0.04,-0.05,0.35,-0.38,0.93,-0.98c-0.31,-0.18,-0.54,-0.35,-0.67,-0.5c-0.13,-0.14,-0.19,-0.31,-0.19,-0.5c0,-0.21,0.08,-0.46,0.26,-0.74c0.17,-0.28,0.57,-0.69,1.2,-1.21m1.58,-5.12c-0.45,0,-0.82,0.17,-1.13,0.53c-0.3,0.35,-0.45,0.91,-0.45,1.65c0,0.96,0.2,1.7,0.62,2.23c0.31,0.4,0.71,0.6,1.2,0.6c0.46,0,0.84,-0.17,1.14,-0.52c0.29,-0.34,0.44,-0.89,0.44,-1.63c0,-0.96,-0.21,-1.72,-0.63,-2.27c-0.31,-0.4,-0.7,-0.6,-1.19,-0.6m-1.68,8.17c-0.28,0.31,-0.5,0.59,-0.64,0.86c-0.14,0.26,-0.21,0.51,-0.21,0.73c0,0.29,0.17,0.54,0.52,0.76c0.6,0.37,1.48,0.56,2.63,0.56c1.09,0,1.9,-0.19,2.42,-0.57c0.52,-0.38,0.78,-0.79,0.78,-1.23c0,-0.31,-0.15,-0.54,-0.46,-0.67c-0.31,-0.13,-0.94,-0.21,-1.88,-0.23c-1.36,-0.03,-2.42,-0.1,-3.15,-0.21m10.13,-12.98l0,11.09c0,0.52,0.03,0.87,0.11,1.04c0.07,0.17,0.19,0.29,0.35,0.38c0.15,0.08,0.45,0.13,0.88,0.13l0,0.32l-4.09,0l0,-0.32c0.38,0,0.64,-0.03,0.78,-0.11c0.14,-0.07,0.24,-0.21,0.32,-0.39c0.07,-0.18,0.11,-0.53,0.11,-1.05l0,-7.59c0,-0.94,-0.02,-1.52,-0.06,-1.73c-0.04,-0.21,-0.11,-0.36,-0.2,-0.44c-0.09,-0.07,-0.21,-0.11,-0.36,-0.11c-0.15,0,-0.35,0.04,-0.6,0.14l-0.15,-0.31l2.49,-1.02l0.41,0m3.72,7.77c0,1.24,0.29,2.21,0.9,2.92c0.6,0.7,1.32,1.05,2.14,1.05c0.54,0,1.02,-0.15,1.42,-0.45c0.4,-0.3,0.74,-0.81,1.01,-1.54l0.28,0.18c-0.12,0.83,-0.49,1.59,-1.11,2.27c-0.61,0.68,-1.38,1.02,-2.31,1.02c-1,0,-1.86,-0.39,-2.57,-1.17c-0.71,-0.78,-1.07,-1.83,-1.07,-3.15c0,-1.43,0.36,-2.54,1.1,-3.34c0.73,-0.8,1.65,-1.2,2.76,-1.2c0.93,0,1.7,0.3,2.31,0.92c0.6,0.61,0.9,1.44,0.9,2.47l-5.77,0m0,-0.52l3.87,0c-0.03,-0.53,-0.09,-0.91,-0.19,-1.13c-0.15,-0.34,-0.37,-0.6,-0.68,-0.8c-0.3,-0.19,-0.61,-0.29,-0.94,-0.29c-0.5,0,-0.95,0.19,-1.35,0.58c-0.39,0.39,-0.63,0.93,-0.69,1.63m13.88,-1.17c0.8,-1.12,1.68,-1.68,2.62,-1.68c0.85,0,1.6,0.36,2.24,1.1c0.63,0.73,0.95,1.73,0.95,3c0,1.48,-0.49,2.68,-1.47,3.58c-0.84,0.77,-1.78,1.16,-2.83,1.16c-0.48,0,-0.98,-0.08,-1.48,-0.26c-0.5,-0.17,-1.01,-0.44,-1.53,-0.79l0,-8.66c0,-0.94,-0.02,-1.53,-0.06,-1.75c-0.04,-0.21,-0.11,-0.36,-0.21,-0.44c-0.09,-0.07,-0.21,-0.11,-0.36,-0.11c-0.17,0,-0.38,0.04,-0.63,0.14l-0.12,-0.31l2.51,-1.02l0.41,0l0,6.06m0,0.58l0,5c0.31,0.3,0.63,0.53,0.96,0.68c0.33,0.15,0.67,0.23,1.01,0.23c0.55,0,1.06,-0.3,1.54,-0.91c0.47,-0.6,0.71,-1.49,0.71,-2.65c0,-1.07,-0.23,-1.89,-0.71,-2.46c-0.47,-0.57,-1.02,-0.86,-1.62,-0.86c-0.32,0,-0.64,0.08,-0.96,0.24c-0.24,0.12,-0.55,0.36,-0.93,0.73m11.84,5.13c-0.85,0.66,-1.39,1.04,-1.61,1.15c-0.32,0.15,-0.67,0.22,-1.05,0.22c-0.57,0,-1.05,-0.19,-1.42,-0.59c-0.37,-0.39,-0.56,-0.91,-0.56,-1.56c0,-0.4,0.09,-0.76,0.27,-1.05c0.24,-0.41,0.68,-0.8,1.3,-1.16c0.61,-0.36,1.64,-0.8,3.08,-1.33l0,-0.32c0,-0.83,-0.13,-1.4,-0.39,-1.71c-0.26,-0.31,-0.64,-0.46,-1.15,-0.46c-0.38,0,-0.68,0.1,-0.91,0.31c-0.23,0.2,-0.34,0.44,-0.34,0.71l0.01,0.52c0,0.28,-0.07,0.49,-0.21,0.64c-0.14,0.15,-0.33,0.22,-0.56,0.22c-0.22,0,-0.4,-0.07,-0.55,-0.23c-0.14,-0.15,-0.21,-0.37,-0.21,-0.64c0,-0.52,0.26,-1,0.8,-1.44c0.53,-0.43,1.28,-0.65,2.25,-0.65c0.74,0,1.35,0.12,1.82,0.37c0.35,0.18,0.62,0.48,0.79,0.88c0.1,0.26,0.16,0.79,0.16,1.6l0,2.83c0,0.79,0.01,1.28,0.04,1.46c0.03,0.17,0.08,0.29,0.15,0.36c0.07,0.06,0.15,0.09,0.24,0.09c0.09,0,0.18,-0.02,0.25,-0.06c0.12,-0.07,0.37,-0.3,0.73,-0.66l0,0.51c-0.68,0.91,-1.33,1.36,-1.95,1.36c-0.29,0,-0.53,-0.1,-0.71,-0.31c-0.17,-0.2,-0.26,-0.56,-0.27,-1.05m0,-0.59l0,-3.18c-0.91,0.36,-1.51,0.62,-1.78,0.77c-0.48,0.26,-0.82,0.54,-1.03,0.84c-0.2,0.29,-0.31,0.61,-0.31,0.95c0,0.43,0.13,0.8,0.39,1.09c0.26,0.28,0.56,0.43,0.9,0.43c0.46,0,1.07,-0.3,1.82,-0.91m6.43,-11.18l0,11.09c0,0.52,0.03,0.87,0.11,1.04c0.07,0.17,0.19,0.29,0.35,0.38c0.15,0.08,0.45,0.13,0.88,0.13l0,0.32l-4.09,0l0,-0.32c0.38,0,0.64,-0.03,0.78,-0.11c0.14,-0.07,0.24,-0.21,0.32,-0.39c0.07,-0.18,0.11,-0.53,0.11,-1.05l0,-7.59c0,-0.94,-0.02,-1.52,-0.06,-1.73c-0.04,-0.21,-0.11,-0.36,-0.2,-0.44c-0.09,-0.07,-0.21,-0.11,-0.36,-0.11c-0.15,0,-0.35,0.04,-0.6,0.14l-0.15,-0.31l2.49,-1.02l0.41,0m7.06,11.77c-0.85,0.66,-1.39,1.04,-1.61,1.15c-0.32,0.15,-0.67,0.22,-1.05,0.22c-0.57,0,-1.05,-0.19,-1.42,-0.59c-0.37,-0.39,-0.56,-0.91,-0.56,-1.56c0,-0.4,0.09,-0.76,0.27,-1.05c0.24,-0.41,0.68,-0.8,1.3,-1.16c0.61,-0.36,1.64,-0.8,3.08,-1.33l0,-0.32c0,-0.83,-0.13,-1.4,-0.39,-1.71c-0.26,-0.31,-0.64,-0.46,-1.15,-0.46c-0.38,0,-0.68,0.1,-0.91,0.31c-0.23,0.2,-0.34,0.44,-0.34,0.71l0.01,0.52c0,0.28,-0.07,0.49,-0.21,0.64c-0.14,0.15,-0.33,0.22,-0.56,0.22c-0.22,0,-0.4,-0.07,-0.55,-0.23c-0.14,-0.15,-0.21,-0.37,-0.21,-0.64c0,-0.52,0.26,-1,0.8,-1.44c0.53,-0.43,1.28,-0.65,2.25,-0.65c0.74,0,1.35,0.12,1.82,0.37c0.35,0.18,0.62,0.48,0.79,0.88c0.1,0.26,0.16,0.79,0.16,1.6l0,2.83c0,0.79,0.01,1.28,0.04,1.46c0.03,0.17,0.08,0.29,0.15,0.36c0.07,0.06,0.15,0.09,0.24,0.09c0.09,0,0.18,-0.02,0.25,-0.06c0.12,-0.07,0.37,-0.3,0.73,-0.66l0,0.51c-0.68,0.91,-1.33,1.36,-1.95,1.36c-0.29,0,-0.53,-0.1,-0.71,-0.31c-0.17,-0.2,-0.26,-0.56,-0.27,-1.05m0,-0.59l0,-3.18c-0.91,0.36,-1.51,0.62,-1.78,0.77c-0.48,0.26,-0.82,0.54,-1.03,0.84c-0.2,0.29,-0.31,0.61,-0.31,0.95c0,0.43,0.13,0.8,0.39,1.09c0.26,0.28,0.56,0.43,0.9,0.43c0.46,0,1.07,-0.3,1.82,-0.91m3.08,-6.56l3.89,0l0,0.33l-0.19,0c-0.27,0,-0.47,0.05,-0.61,0.17c-0.13,0.11,-0.2,0.26,-0.2,0.44c0,0.23,0.1,0.56,0.3,0.98l2.03,4.21l1.87,-4.62c0.1,-0.24,0.15,-0.49,0.15,-0.73c0,-0.1,-0.02,-0.19,-0.06,-0.24c-0.04,-0.06,-0.12,-0.12,-0.22,-0.15c-0.1,-0.03,-0.28,-0.05,-0.54,-0.05l0,-0.33l2.72,0l0,0.33c-0.22,0.02,-0.39,0.07,-0.52,0.14c-0.12,0.07,-0.25,0.21,-0.4,0.41c-0.05,0.08,-0.15,0.31,-0.31,0.7l-3.4,8.34c-0.32,0.8,-0.75,1.42,-1.29,1.83c-0.53,0.41,-1.04,0.62,-1.53,0.62c-0.35,0,-0.65,-0.1,-0.88,-0.31c-0.23,-0.2,-0.34,-0.44,-0.34,-0.71c0,-0.25,0.08,-0.46,0.25,-0.61c0.16,-0.15,0.39,-0.23,0.68,-0.23c0.2,0,0.47,0.06,0.82,0.2c0.24,0.09,0.39,0.13,0.45,0.13c0.18,0,0.38,-0.09,0.59,-0.28c0.21,-0.18,0.43,-0.55,0.65,-1.09l0.59,-1.45l-3,-6.3c-0.09,-0.18,-0.23,-0.42,-0.43,-0.7c-0.15,-0.21,-0.27,-0.35,-0.37,-0.42c-0.14,-0.09,-0.36,-0.18,-0.67,-0.25l0,-0.33m11.28,3.15c0,1.24,0.29,2.21,0.9,2.92c0.6,0.7,1.32,1.05,2.14,1.05c0.54,0,1.02,-0.15,1.42,-0.45c0.4,-0.3,0.74,-0.81,1.01,-1.54l0.28,0.18c-0.12,0.83,-0.49,1.59,-1.11,2.27c-0.61,0.68,-1.38,1.02,-2.31,1.02c-1,0,-1.86,-0.39,-2.57,-1.17c-0.71,-0.78,-1.07,-1.83,-1.07,-3.15c0,-1.43,0.36,-2.54,1.1,-3.34c0.73,-0.8,1.65,-1.2,2.76,-1.2c0.93,0,1.7,0.3,2.31,0.92c0.6,0.61,0.9,1.44,0.9,2.47l-5.77,0m0,-0.52l3.87,0c-0.03,-0.53,-0.09,-0.91,-0.19,-1.13c-0.15,-0.34,-0.37,-0.6,-0.68,-0.8c-0.3,-0.19,-0.61,-0.29,-0.94,-0.29c-0.5,0,-0.95,0.19,-1.35,0.58c-0.39,0.39,-0.63,0.93,-0.69,1.63m4.35,-6.94l-2.69,3.15l-0.31,0l0.95,-3.15l2.04,0m6.99,4.62l9.85,0l0,0.74l-9.85,0l0,-0.74m0,2.97l9.85,0l0,0.74l-9.85,0l0,-0.74m23.43,2.7l-0.86,2.38l-7.3,0l0,-0.33c2.14,-1.96,3.66,-3.56,4.53,-4.8c0.87,-1.24,1.31,-2.37,1.31,-3.4c0,-0.78,-0.24,-1.43,-0.72,-1.93c-0.48,-0.5,-1.05,-0.75,-1.72,-0.75c-0.6,0,-1.15,0.17,-1.63,0.53c-0.48,0.35,-0.84,0.87,-1.07,1.56l-0.33,0c0.15,-1.12,0.54,-1.99,1.17,-2.59c0.63,-0.6,1.41,-0.9,2.36,-0.9c1,0,1.84,0.32,2.51,0.96c0.67,0.64,1,1.4,1,2.28c0,0.62,-0.14,1.25,-0.43,1.88c-0.45,0.98,-1.18,2.03,-2.19,3.13c-1.51,1.65,-2.46,2.65,-2.83,2.99l3.23,0c0.65,0,1.11,-0.02,1.38,-0.07c0.26,-0.04,0.5,-0.14,0.71,-0.29c0.21,-0.14,0.39,-0.36,0.55,-0.63l0.33,0m1.24,-10.21l0,-0.38c0.92,0.45,1.69,0.99,2.31,1.61c0.87,0.88,1.54,1.93,2.01,3.12c0.47,1.19,0.71,2.44,0.71,3.73c0,1.88,-0.46,3.6,-1.39,5.16c-0.92,1.55,-2.14,2.66,-3.64,3.33l0,-0.33c0.74,-0.42,1.36,-0.98,1.84,-1.7c0.48,-0.71,0.84,-1.62,1.07,-2.73c0.23,-1.1,0.35,-2.25,0.35,-3.45c0,-1.29,-0.1,-2.48,-0.3,-3.55c-0.15,-0.84,-0.34,-1.51,-0.57,-2.01c-0.22,-0.5,-0.53,-0.99,-0.9,-1.46c-0.37,-0.46,-0.87,-0.91,-1.49,-1.34" fill="#000000" stroke="none" fill-opacity="1"/>
<path d="m63.77,513.2l3.01,-1.47l0.3,0l0,10.45c0,0.69,0.02,1.12,0.08,1.29c0.05,0.17,0.17,0.3,0.36,0.39c0.18,0.09,0.55,0.14,1.11,0.15l0,0.33l-4.65,0l0,-0.33c0.58,-0.01,0.96,-0.06,1.13,-0.15c0.17,-0.08,0.28,-0.2,0.35,-0.35c0.06,-0.14,0.1,-0.59,0.1,-1.33l0,-6.68c0,-0.9,-0.03,-1.47,-0.09,-1.73c-0.04,-0.19,-0.12,-0.33,-0.23,-0.42c-0.11,-0.09,-0.24,-0.13,-0.4,-0.13c-0.22,0,-0.53,0.09,-0.94,0.28l-0.13,-0.28m7.88,5.04c0,-1.41,0.21,-2.62,0.63,-3.64c0.42,-1.01,0.99,-1.77,1.69,-2.27c0.54,-0.39,1.11,-0.59,1.69,-0.59c0.94,0,1.8,0.48,2.55,1.45c0.94,1.19,1.41,2.82,1.41,4.87c0,1.43,-0.2,2.65,-0.62,3.66c-0.41,1,-0.94,1.73,-1.58,2.18c-0.64,0.45,-1.26,0.68,-1.85,0.68c-1.18,0,-2.16,-0.69,-2.94,-2.09c-0.66,-1.17,-0.99,-2.59,-0.99,-4.24m1.78,0.22c0,1.7,0.21,3.09,0.63,4.17c0.34,0.9,0.86,1.36,1.55,1.36c0.32,0,0.66,-0.14,1.02,-0.44c0.35,-0.29,0.62,-0.78,0.8,-1.48c0.28,-1.04,0.42,-2.52,0.42,-4.42c0,-1.41,-0.14,-2.59,-0.43,-3.53c-0.21,-0.7,-0.5,-1.19,-0.84,-1.48c-0.24,-0.2,-0.55,-0.3,-0.9,-0.3c-0.41,0,-0.78,0.18,-1.1,0.55c-0.43,0.5,-0.73,1.29,-0.89,2.38c-0.15,1.08,-0.23,2.15,-0.23,3.2" fill="#000000" stroke="none" fill-opacity="1"/>
<path d="m86.48,512.51l-5.89,0l0,-0.44l5.89,0l0,0.44m0.77,-2.5c0.21,-0.49,0.47,-0.88,0.8,-1.15c0.32,-0.27,0.72,-0.4,1.2,-0.4c0.59,0,1.05,0.19,1.36,0.57c0.24,0.28,0.36,0.59,0.36,0.92c0,0.53,-0.33,1.09,-1.01,1.67c0.45,0.17,0.8,0.43,1.03,0.76c0.23,0.33,0.35,0.72,0.35,1.17c0,0.64,-0.2,1.19,-0.61,1.66c-0.53,0.61,-1.3,0.91,-2.31,0.91c-0.49,0,-0.83,-0.06,-1.01,-0.18c-0.18,-0.12,-0.27,-0.25,-0.27,-0.39c0,-0.1,0.04,-0.19,0.12,-0.27c0.08,-0.08,0.18,-0.12,0.3,-0.12c0.09,0,0.18,0.01,0.27,0.04c0.06,0.01,0.2,0.08,0.42,0.19c0.21,0.11,0.37,0.18,0.45,0.2c0.13,0.04,0.27,0.06,0.43,0.06c0.37,0,0.69,-0.14,0.97,-0.43c0.27,-0.28,0.41,-0.62,0.41,-1.02c0,-0.28,-0.06,-0.56,-0.19,-0.84c-0.09,-0.2,-0.19,-0.35,-0.31,-0.46c-0.15,-0.14,-0.37,-0.27,-0.64,-0.39c-0.27,-0.11,-0.55,-0.17,-0.83,-0.17l-0.17,0l0,-0.16c0.28,-0.03,0.57,-0.14,0.86,-0.31c0.28,-0.17,0.5,-0.37,0.63,-0.61c0.13,-0.24,0.19,-0.5,0.19,-0.79c0,-0.37,-0.11,-0.67,-0.35,-0.91c-0.23,-0.23,-0.52,-0.34,-0.87,-0.34c-0.56,0,-1.03,0.3,-1.41,0.9l-0.18,-0.08" fill="#000000" stroke="none" fill-opacity="1"/>
<path d="m338.36,518.25c0,-1.41,0.21,-2.62,0.63,-3.64c0.42,-1.01,0.99,-1.77,1.69,-2.27c0.54,-0.39,1.11,-0.59,1.69,-0.59c0.94,0,1.8,0.48,2.55,1.45c0.94,1.19,1.41,2.82,1.41,4.87c0,1.43,-0.2,2.65,-0.62,3.66c-0.41,1,-0.94,1.73,-1.58,2.18c-0.64,0.45,-1.26,0.68,-1.85,0.68c-1.18,0,-2.16,-0.69,-2.94,-2.09c-0.66,-1.17,-0.99,-2.59,-0.99,-4.24m1.78,0.22c0,1.7,0.21,3.09,0.63,4.17c0.34,0.9,0.86,1.36,1.55,1.36c0.32,0,0.66,-0.14,1.02,-0.44c0.35,-0.29,0.62,-0.78,0.8,-1.48c0.28,-1.04,0.42,-2.52,0.42,-4.42c0,-1.41,-0.14,-2.59,-0.43,-3.53c-0.21,-0.7,-0.5,-1.19,-0.84,-1.48c-0.24,-0.2,-0.55,-0.3,-0.9,-0.3c-0.41,0,-0.78,0.18,-1.1,0.55c-0.43,0.5,-0.73,1.29,-0.89,2.38c-0.15,1.08,-0.23,2.15,-0.23,3.2m7.93,9l0,-0.4c0.62,-0.2,1.11,-0.52,1.45,-0.96c0.34,-0.43,0.51,-0.89,0.51,-1.38c0,-0.11,-0.02,-0.21,-0.08,-0.29c-0.04,-0.05,-0.08,-0.08,-0.12,-0.08c-0.06,0,-0.21,0.06,-0.43,0.18c-0.1,0.05,-0.22,0.08,-0.34,0.08c-0.29,0,-0.53,-0.08,-0.71,-0.26c-0.17,-0.17,-0.26,-0.42,-0.26,-0.73c0,-0.29,0.11,-0.55,0.34,-0.76c0.22,-0.21,0.5,-0.31,0.83,-0.31c0.4,0,0.75,0.17,1.07,0.52c0.31,0.35,0.47,0.81,0.47,1.39c0,0.62,-0.21,1.2,-0.65,1.74c-0.43,0.53,-1.12,0.96,-2.06,1.27m4.37,-9.23c0,-1.41,0.21,-2.62,0.63,-3.64c0.42,-1.01,0.99,-1.77,1.69,-2.27c0.54,-0.39,1.11,-0.59,1.69,-0.59c0.94,0,1.8,0.48,2.55,1.45c0.94,1.19,1.41,2.82,1.41,4.87c0,1.43,-0.2,2.65,-0.62,3.66c-0.41,1,-0.94,1.73,-1.58,2.18c-0.64,0.45,-1.26,0.68,-1.85,0.68c-1.18,0,-2.16,-0.69,-2.94,-2.09c-0.66,-1.17,-0.99,-2.59,-0.99,-4.24m1.78,0.22c0,1.7,0.21,3.09,0.63,4.17c0.34,0.9,0.86,1.36,1.55,1.36c0.32,0,0.66,-0.14,1.02,-0.44c0.35,-0.29,0.62,-0.78,0.8,-1.48c0.28,-1.04,0.42,-2.52,0.42,-4.42c0,-1.41,-0.14,-2.59,-0.43,-3.53c-0.21,-0.7,-0.5,-1.19,-0.84,-1.48c-0.24,-0.2,-0.55,-0.3,-0.9,-0.3c-0.41,0,-0.78,0.18,-1.1,0.55c-0.43,0.5,-0.73,1.29,-0.89,2.38c-0.15,1.08,-0.23,2.15,-0.23,3.2m9.12,-5.27l3.01,-1.47l0.3,0l0,10.45c0,0.69,0.02,1.12,0.08,1.29c0.05,0.17,0.17,0.3,0.36,0.39c0.18,0.09,0.55,0.14,1.11,0.15l0,0.33l-4.65,0l0,-0.33c0.58,-0.01,0.96,-0.06,1.13,-0.15c0.17,-0.08,0.28,-0.2,0.35,-0.35c0.06,-0.14,0.1,-0.59,0.1,-1.33l0,-6.68c0,-0.9,-0.03,-1.47,-0.09,-1.73c-0.04,-0.19,-0.12,-0.33,-0.23,-0.42c-0.11,-0.09,-0.24,-0.13,-0.4,-0.13c-0.22,0,-0.53,0.09,-0.94,0.28l-0.13,-0.28" fill="#000000" stroke="none" fill-opacity="1"/>
</g>
<g fill="none" stroke-linecap="butt" stroke-width="0.66">
<path d="M559.37,502.67l0,-495.11"/>
<path d="M559.37,502.67l-4,0M559.37,477.92l-4,0M559.37,453.16l-4,0M559.37,428.4l-4,0M559.37,403.65l-4,0M559.37,378.89l-4,0M559.37,354.14l-4,0M559.37,329.38l-4,0M559.37,304.62l-4,0M559.37,279.87l-4,0M559.37,255.11l-4,0M559.37,230.36l-4,0M559.37,205.6l-4,0M559.37,180.85l-4,0M559.37,156.09l-4,0M559.37,131.33l-4,0M559.37,106.58l-4,0M559.37,81.82l-4,0M559.37,57.07l-4,0M559.37,32.31l-4,0M559.37,7.55l-4,0"/>
<path d="M559.37,502.67l-8,0M559.37,378.89l-8,0M559.37,255.11l-8,0M559.37,131.33l-8,0M559.37,7.55l-8,0"/>
<path d="M64.25,7.55l495.11,0"/>
<path d="M64.25,7.55l0,4M160.38,7.55l0,4M209.19,7.55l0,4M243.82,7.55l0,4M270.69,7.55l0,4M292.64,7.55l0,4M311.19,7.55l0,4M327.27,7.55l0,4M341.45,7.55l0,4M437.58,7.55l0,4M486.39,7.55l0,4M521.03,7.55l0,4M547.89,7.55l0,4"/>
<path d="M76.93,7.55l0,8M354.13,7.55l0,8"/>
</g>
</g>
</g>
</svg>
