<?xml version="1.0" standalone="no"?>
<!DOCTYPE svg PUBLIC "-//W3C//DTD SVG 1.1//EN"
  "http://www.w3.org/Graphics/SVG/1.1/DTD/svg11.dtd">
<svg width="1181.1px" height="1181.1px" version="1.1"
    xmlns="http://www.w3.org/2000/svg"
    xmlns:xlink="http://www.w3.org/1999/xlink">
<desc>Veusz output document</desc>
<defs>
<clipPath id="c0">
<path d="m0,0l1181.1,0l0,1181.1l-1181.1,0l0,-1181.1"/>
</clipPath>
<clipPath id="c1">
<path d="m133.85,15.74l1031.49,0l0,1031.49l-1031.49,0l0,-1031.49"/>
</clipPath>
</defs>
<g stroke-linejoin="bevel" stroke-linecap="square" stroke="#000000" fill-rule="evenodd">
<g clip-path="url(#c0)">
<g fill="#ffffff" stroke="none" stroke-width="0.1">
<path d="m0,0l1181.1,0l0,1181.1l-1181.1,0l0,-1181.1"/>
</g>
<g fill="#ffffff" stroke-width="1.38">
<path d="m133.85,15.74l1031.49,0l0,1031.49l-1031.49,0l0,-1031.49"/>
</g>
</g>
<g clip-path="url(#c1)">
<g fill="none" stroke="#e41a1c" stroke-linecap="butt" stroke-width="1.38">
<path d="M1148.65,49.34l0,-33.6M1131.48,141.1l0,-55.38M1081.49,243.91l0,-38.35M996.72,339.93l0,-54.09M758.35,557.78l0,-127.14M588.66,709.32l0,-132.44M437.42,817.63l0,-167.61M155.52,978.94l0,-161.51"/>
<path d="M1147.71,30.65l1.88,0M1129.28,108.34l4.35,0M1070.1,222.28l21.9,0M978.95,308.04l33.51,0M731.06,469.73l50.07,0M552.51,616.75l64.76,0M409.89,694.01l50.46,0M133.85,860.83l40.38,0"/>
<path d="M1144.48,49.34l8.33,0M1127.31,141.1l8.33,0M1077.32,243.91l8.33,0M992.55,339.93l8.33,0M754.19,557.78l8.33,0M584.5,709.32l8.33,0M433.25,817.63l8.33,0M151.35,978.94l8.33,0"/>
<path d="M1144.48,15.74l8.33,0M1127.31,85.71l8.33,0M1077.32,205.56l8.33,0M992.55,285.83l8.33,0M754.19,430.64l8.33,0M584.5,576.88l8.33,0M433.25,650.01l8.33,0M151.35,817.42l8.33,0"/>
<path d="M1147.71,26.49l0,8.33M1129.28,104.17l0,8.33M1070.1,218.11l0,8.33M978.95,303.88l0,8.33M731.06,465.57l0,8.33M552.51,612.59l0,8.33M409.89,689.84l0,8.33M133.85,856.66l0,8.33"/>
<path d="M1149.59,26.49l0,8.33M1133.64,104.17l0,8.33M1092,218.11l0,8.33M1012.46,303.88l0,8.33M781.13,465.57l0,8.33M617.27,612.59l0,8.33M460.35,689.84l0,8.33M174.24,856.66l0,8.33"/>
</g>
<g fill="#e41a1c" stroke-linejoin="miter" stroke-width="1.38">
<g transform="translate(1148.65,30.65)">
<path d="m0,5.22l5.22,-5.22l-5.22,-5.22l-5.22,5.22l5.22,5.22" id="p0"/>
</g>
<use xlink:href="#p0" x="1131.48" y="108.34"/>
<use xlink:href="#p0" x="1081.49" y="222.28"/>
<use xlink:href="#p0" x="996.72" y="308.04"/>
<use xlink:href="#p0" x="758.35" y="469.73"/>
<use xlink:href="#p0" x="588.66" y="616.75"/>
<use xlink:href="#p0" x="437.42" y="694.01"/>
<use xlink:href="#p0" x="155.52" y="860.83"/>
</g>
</g>
<g clip-path="url(#c0)">
<g fill="none" stroke-linecap="butt" stroke-width="1.38">
<path d="M133.85,1047.24l0,-1031.49"/>
<path d="M133.85,995.92l8.33,0M133.85,965.9l8.33,0M133.85,944.6l8.33,0M133.85,928.07l8.33,0M133.85,914.57l8.33,0M133.85,903.16l8.33,0M133.85,893.27l8.33,0M133.85,884.55l8.33,0M133.85,825.43l8.33,0M133.85,795.41l8.33,0M133.85,774.11l8.33,0M133.85,757.59l8.33,0M133.85,744.09l8.33,0M133.85,732.67l8.33,0M133.85,722.79l8.33,0M133.85,714.07l8.33,0M133.85,654.94l8.33,0M133.85,624.92l8.33,0M133.85,603.62l8.33,0M133.85,587.1l8.33,0M133.85,573.6l8.33,0M133.85,562.19l8.33,0M133.85,552.3l8.33,0M133.85,543.58l8.33,0M133.85,484.46l8.33,0M133.85,454.44l8.33,0M133.85,433.14l8.33,0M133.85,416.61l8.33,0M133.85,403.11l8.33,0M133.85,391.7l8.33,0M133.85,381.81l8.33,0M133.85,373.09l8.33,0M133.85,313.97l8.33,0M133.85,283.95l8.33,0M133.85,262.65l8.33,0M133.85,246.13l8.33,0M133.85,232.63l8.33,0M133.85,221.21l8.33,0M133.85,211.33l8.33,0M133.85,202.61l8.33,0M133.85,143.48l8.33,0M133.85,113.46l8.33,0M133.85,92.16l8.33,0M133.85,75.64l8.33,0M133.85,62.14l8.33,0M133.85,50.73l8.33,0M133.85,40.84l8.33,0M133.85,32.12l8.33,0"/>
<path d="M133.85,1047.24l16.66,0M133.85,876.75l16.66,0M133.85,706.27l16.66,0M133.85,535.78l16.66,0M133.85,365.29l16.66,0M133.85,194.81l16.66,0M133.85,24.32l16.66,0"/>
</g>
<g fill="none" stroke-width="0.1">
<g transform="matrix(0 -1 1 0 36.1 803.09)">
<path d="m3.62,0l0,-28.11l15.74,0l0,2.98l-11.75,0l0,9.02l9.85,0l0,2.94l-9.85,0l0,10.18l12.57,0l0,2.98l-16.56,0m21.21,0l0,-20.62l3.74,0l0,3.85c0.7,-1.38,1.63,-2.44,2.76,-3.2c1.13,-0.75,2.36,-1.13,3.69,-1.13c0.37,0,0.77,0.03,1.19,0.09l0,3.49c-0.63,-0.21,-1.2,-0.32,-1.7,-0.32c-1.17,0,-2.26,0.35,-3.25,1.05c-0.99,0.7,-1.88,1.75,-2.68,3.16l0,13.61l-3.74,0m15.9,0l0,-20.62l3.74,0l0,3.85c0.7,-1.38,1.63,-2.44,2.76,-3.2c1.13,-0.75,2.36,-1.13,3.69,-1.13c0.37,0,0.77,0.03,1.19,0.09l0,3.49c-0.63,-0.21,-1.2,-0.32,-1.7,-0.32c-1.17,0,-2.26,0.35,-3.25,1.05c-0.99,0.7,-1.88,1.75,-2.68,3.16l0,13.61l-3.74,0m31.26,-0.66c-2.54,0.75,-4.72,1.13,-6.53,1.13c-3.25,0,-5.8,-1.07,-7.67,-3.23c-1.86,-2.15,-2.79,-4.7,-2.79,-7.64c0,-1.93,0.41,-3.77,1.23,-5.52c0.82,-1.74,1.89,-3.04,3.22,-3.89c1.32,-0.84,2.89,-1.27,4.69,-1.27c2.41,0,4.34,0.85,5.78,2.56c1.43,1.7,2.15,4.26,2.15,7.67l-0.01,1.13l-13.25,0c0.2,1.82,0.6,3.22,1.2,4.21c0.59,0.98,1.38,1.75,2.37,2.3c0.98,0.55,2.24,0.82,3.76,0.82c0.77,0,1.54,-0.06,2.31,-0.19c0.76,-0.13,1.94,-0.48,3.53,-1.05l0,2.96m-13.01,-11.87l9.36,0c0,-2.06,-0.41,-3.53,-1.24,-4.42c-0.82,-0.88,-1.88,-1.32,-3.17,-1.32c-1.47,0,-2.62,0.47,-3.45,1.43c-0.82,0.95,-1.32,2.39,-1.49,4.32m32.24,12.53l0,-3.87c-0.96,1.39,-2.07,2.46,-3.32,3.21c-1.25,0.75,-2.55,1.13,-3.91,1.13c-1.73,0,-3.14,-0.55,-4.24,-1.66c-1.09,-1.1,-1.64,-2.64,-1.64,-4.62l0,-14.81l3.74,0l0,13.59c0,1.43,0.12,2.37,0.37,2.83c0.25,0.45,0.6,0.81,1.06,1.06c0.45,0.25,0.94,0.37,1.48,0.37c0.91,0,1.9,-0.28,2.97,-0.85c1.07,-0.56,2.23,-1.78,3.48,-3.64l0,-13.37l3.74,0l0,20.62l-3.74,0m11.2,0l0,-20.62l3.74,0l0,3.85c0.7,-1.38,1.63,-2.44,2.76,-3.2c1.13,-0.75,2.36,-1.13,3.69,-1.13c0.37,0,0.77,0.03,1.19,0.09l0,3.49c-0.63,-0.21,-1.2,-0.32,-1.7,-0.32c-1.17,0,-2.26,0.35,-3.25,1.05c-0.99,0.7,-1.88,1.75,-2.68,3.16l0,13.61l-3.74,0m41.41,0l0,-3.87c-0.75,1.44,-1.71,2.53,-2.85,3.25c-1.14,0.72,-2.48,1.09,-4.01,1.09c-2.52,0,-4.49,-0.93,-5.89,-2.8c-1.39,-1.86,-2.09,-4.31,-2.09,-7.34c0,-3.27,0.78,-5.99,2.35,-8.16c1.56,-2.17,3.71,-3.26,6.43,-3.26c0.79,0,1.55,0.09,2.27,0.28c0.72,0.18,1.36,0.45,1.92,0.8c0.56,0.34,1.18,0.92,1.86,1.71l0,-11.7l3.74,0l0,29.99l-3.74,0m0,-15.72c-1.29,-1.14,-2.31,-1.85,-3.06,-2.13c-0.75,-0.28,-1.56,-0.42,-2.44,-0.42c-1.82,0,-3.17,0.76,-4.05,2.3c-0.88,1.53,-1.32,3.51,-1.32,5.93c0,2.24,0.38,4.01,1.16,5.3c0.77,1.29,1.98,1.93,3.61,1.93c1.03,0,2.06,-0.28,3.08,-0.85c1.01,-0.57,2.02,-1.42,3.01,-2.54l0,-9.5m26.64,15.05c-2.54,0.75,-4.72,1.13,-6.53,1.13c-3.25,0,-5.8,-1.07,-7.67,-3.23c-1.86,-2.15,-2.79,-4.7,-2.79,-7.64c0,-1.93,0.41,-3.77,1.23,-5.52c0.82,-1.74,1.89,-3.04,3.22,-3.89c1.32,-0.84,2.89,-1.27,4.69,-1.27c2.41,0,4.34,0.85,5.78,2.56c1.43,1.7,2.15,4.26,2.15,7.67l-0.01,1.13l-13.25,0c0.2,1.82,0.6,3.22,1.2,4.21c0.59,0.98,1.38,1.75,2.37,2.3c0.98,0.55,2.24,0.82,3.76,0.82c0.77,0,1.54,-0.06,2.31,-0.19c0.76,-0.13,1.94,-0.48,3.53,-1.05l0,2.96m-13.01,-11.87l9.36,0c0,-2.06,-0.41,-3.53,-1.24,-4.42c-0.82,-0.88,-1.88,-1.32,-3.17,-1.32c-1.47,0,-2.62,0.47,-3.45,1.43c-0.82,0.95,-1.32,2.39,-1.49,4.32m31.64,12.53l0,-20.62l3.74,0l0,3.85c0.7,-1.38,1.63,-2.44,2.76,-3.2c1.13,-0.75,2.36,-1.13,3.69,-1.13c0.37,0,0.77,0.03,1.19,0.09l0,3.49c-0.63,-0.21,-1.2,-0.32,-1.7,-0.32c-1.17,0,-2.26,0.35,-3.25,1.05c-0.99,0.7,-1.88,1.75,-2.68,3.16l0,13.61l-3.74,0m31.26,-0.66c-2.54,0.75,-4.72,1.13,-6.53,1.13c-3.25,0,-5.8,-1.07,-7.67,-3.23c-1.86,-2.15,-2.79,-4.7,-2.79,-7.64c0,-1.93,0.41,-3.77,1.23,-5.52c0.82,-1.74,1.89,-3.04,3.22,-3.89c1.32,-0.84,2.89,-1.27,4.69,-1.27c2.41,0,4.34,0.85,5.78,2.56c1.43,1.7,2.15,4.26,2.15,7.67l-0.01,1.13l-13.25,0c0.2,1.82,0.6,3.22,1.2,4.21c0.59,0.98,1.38,1.75,2.37,2.3c0.98,0.55,2.24,0.82,3.76,0.82c0.77,0,1.54,-0.06,2.31,-0.19c0.76,-0.13,1.94,-0.48,3.53,-1.05l0,2.96m-13.01,-11.87l9.36,0c0,-2.06,-0.41,-3.53,-1.24,-4.42c-0.82,-0.88,-1.88,-1.32,-3.17,-1.32c-1.47,0,-2.62,0.47,-3.45,1.43c-0.82,0.95,-1.32,2.39,-1.49,4.32m33.53,11.9c-2.39,0.73,-4.47,1.1,-6.21,1.1c-1.82,0,-3.49,-0.49,-5.01,-1.49c-1.51,-0.99,-2.66,-2.3,-3.43,-3.92c-0.77,-1.62,-1.15,-3.45,-1.15,-5.49c0,-3.04,0.83,-5.57,2.5,-7.61c1.66,-2.03,4.25,-3.05,7.74,-3.05c1.6,0,3.38,0.22,5.34,0.66l0,3.13c-2.09,-0.62,-3.79,-0.93,-5.1,-0.93c-2.07,0,-3.64,0.78,-4.69,2.34c-1.05,1.56,-1.57,3.41,-1.57,5.56c0,2.32,0.59,4.19,1.77,5.62c1.18,1.43,2.71,2.14,4.61,2.14c1.69,0,3.43,-0.43,5.22,-1.31l0,3.22m13.92,1.1c-1.96,0,-3.67,-0.4,-5.12,-1.2c-1.45,-0.8,-2.6,-2.07,-3.45,-3.8c-0.84,-1.73,-1.27,-3.65,-1.27,-5.78c0,-2,0.38,-3.86,1.15,-5.57c0.77,-1.71,1.89,-3.01,3.37,-3.88c1.47,-0.87,3.24,-1.31,5.31,-1.31c1.96,0,3.67,0.39,5.13,1.19c1.45,0.79,2.6,2.06,3.45,3.8c0.84,1.73,1.26,3.66,1.26,5.77c0,2.02,-0.39,3.9,-1.17,5.61c-0.78,1.71,-1.91,3.01,-3.37,3.87c-1.46,0.86,-3.22,1.3,-5.29,1.3m0,-2.81c1.86,0,3.31,-0.69,4.34,-2.08c1.02,-1.38,1.54,-3.35,1.54,-5.9c0,-2.56,-0.51,-4.52,-1.55,-5.9c-1.03,-1.37,-2.48,-2.06,-4.33,-2.06c-1.85,0,-3.29,0.68,-4.32,2.06c-1.02,1.37,-1.54,3.34,-1.54,5.9c0,2.54,0.51,4.51,1.54,5.9c1.02,1.38,2.47,2.08,4.32,2.08m15.69,2.33l0,-20.62l3.74,0l0,3.85c0.94,-1.38,2.05,-2.44,3.31,-3.2c1.25,-0.75,2.56,-1.13,3.92,-1.13c1.74,0,3.16,0.55,4.25,1.66c1.08,1.1,1.63,2.64,1.63,4.61l0,14.82l-3.74,0l0,-13.61c0,-1.43,-0.12,-2.37,-0.37,-2.83c-0.25,-0.45,-0.6,-0.8,-1.06,-1.05c-0.45,-0.24,-0.94,-0.37,-1.46,-0.37c-0.92,0,-1.92,0.28,-2.99,0.85c-1.07,0.57,-2.23,1.78,-3.48,3.65l0,13.36l-3.74,0m23.34,-0.72l0,-3.43c2.44,1.21,4.57,1.82,6.38,1.82c1.06,0,1.95,-0.29,2.66,-0.87c0.71,-0.58,1.07,-1.31,1.07,-2.18c0,-0.54,-0.17,-1.07,-0.53,-1.59c-0.35,-0.51,-1.17,-1.04,-2.45,-1.57l-2.18,-0.93c-1.68,-0.69,-2.91,-1.5,-3.69,-2.43c-0.77,-0.91,-1.16,-2.03,-1.16,-3.36c0,-1.66,0.6,-3.04,1.81,-4.14c1.2,-1.1,2.99,-1.65,5.35,-1.65c1.15,0,2.58,0.15,4.28,0.47l0.78,0.15l0,3.13c-2.09,-0.63,-3.77,-0.94,-5.01,-0.94c-1.2,0,-2.11,0.25,-2.7,0.77c-0.59,0.51,-0.89,1.13,-0.89,1.84c0,0.55,0.2,1.05,0.6,1.5c0.39,0.45,1.1,0.9,2.13,1.35l1.8,0.76c2.42,1.02,3.96,2.04,4.62,3.04c0.65,1,0.98,2.09,0.98,3.26c0,1.12,-0.3,2.17,-0.92,3.13c-0.61,0.96,-1.51,1.71,-2.71,2.26c-1.19,0.54,-2.52,0.81,-3.99,0.81c-1.7,0,-3.78,-0.39,-6.23,-1.19m29.75,0.72c-1.15,0.31,-2.15,0.47,-3,0.47c-1.84,0,-3.31,-0.53,-4.4,-1.6c-1.08,-1.07,-1.63,-2.59,-1.63,-4.56l0,-12.11l-2.58,0l0,-2.81l2.58,0l0,-3.74l3.74,-0.36l0,4.1l5.39,0l0,2.81l-5.39,0l0,11.43c0,1.44,0.27,2.47,0.83,3.1c0.55,0.62,1.44,0.94,2.65,0.94c0.49,0,1.09,-0.08,1.8,-0.24l0,2.58m5.3,0l0,-20.62l3.74,0l0,3.85c0.7,-1.38,1.63,-2.44,2.76,-3.2c1.13,-0.75,2.36,-1.13,3.69,-1.13c0.37,0,0.77,0.03,1.19,0.09l0,3.49c-0.63,-0.21,-1.2,-0.32,-1.7,-0.32c-1.17,0,-2.26,0.35,-3.25,1.05c-0.99,0.7,-1.88,1.75,-2.68,3.16l0,13.61l-3.74,0m28.79,0l0,-3.87c-0.96,1.39,-2.07,2.46,-3.32,3.21c-1.25,0.75,-2.55,1.13,-3.91,1.13c-1.73,0,-3.14,-0.55,-4.24,-1.66c-1.09,-1.1,-1.64,-2.64,-1.64,-4.62l0,-14.81l3.74,0l0,13.59c0,1.43,0.12,2.37,0.37,2.83c0.25,0.45,0.6,0.81,1.06,1.06c0.45,0.25,0.94,0.37,1.48,0.37c0.91,0,1.9,-0.28,2.97,-0.85c1.07,-0.56,2.23,-1.78,3.48,-3.64l0,-13.37l3.74,0l0,20.62l-3.74,0m25.39,-0.62c-2.39,0.73,-4.47,1.1,-6.21,1.1c-1.82,0,-3.49,-0.49,-5.01,-1.49c-1.51,-0.99,-2.66,-2.3,-3.43,-3.92c-0.77,-1.62,-1.15,-3.45,-1.15,-5.49c0,-3.04,0.83,-5.57,2.5,-7.61c1.66,-2.03,4.25,-3.05,7.74,-3.05c1.6,0,3.38,0.22,5.34,0.66l0,3.13c-2.09,-0.62,-3.79,-0.93,-5.1,-0.93c-2.07,0,-3.64,0.78,-4.69,2.34c-1.05,1.56,-1.57,3.41,-1.57,5.56c0,2.32,0.59,4.19,1.77,5.62c1.18,1.43,2.71,2.14,4.61,2.14c1.69,0,3.43,-0.43,5.22,-1.31l0,3.22m14.9,0.62c-1.15,0.31,-2.15,0.47,-3,0.47c-1.84,0,-3.31,-0.53,-4.4,-1.6c-1.08,-1.07,-1.63,-2.59,-1.63,-4.56l0,-12.11l-2.58,0l0,-2.81l2.58,0l0,-3.74l3.74,-0.36l0,4.1l5.39,0l0,2.81l-5.39,0l0,11.43c0,1.44,0.27,2.47,0.83,3.1c0.55,0.62,1.44,0.94,2.65,0.94c0.49,0,1.09,-0.08,1.8,-0.24l0,2.58m5.3,0l0,-20.62l3.74,0l0,20.62l-3.74,0m0,-24.36l0,-3.74l3.74,0l0,3.74l-3.74,0m19.41,24.84c-1.96,0,-3.67,-0.4,-5.12,-1.2c-1.45,-0.8,-2.6,-2.07,-3.45,-3.8c-0.84,-1.73,-1.27,-3.65,-1.27,-5.78c0,-2,0.38,-3.86,1.15,-5.57c0.77,-1.71,1.89,-3.01,3.37,-3.88c1.47,-0.87,3.24,-1.31,5.31,-1.31c1.96,0,3.67,0.39,5.13,1.19c1.45,0.79,2.6,2.06,3.45,3.8c0.84,1.73,1.26,3.66,1.26,5.77c0,2.02,-0.39,3.9,-1.17,5.61c-0.78,1.71,-1.91,3.01,-3.37,3.87c-1.46,0.86,-3.22,1.3,-5.29,1.3m0,-2.81c1.86,0,3.31,-0.69,4.34,-2.08c1.02,-1.38,1.54,-3.35,1.54,-5.9c0,-2.56,-0.51,-4.52,-1.55,-5.9c-1.03,-1.37,-2.48,-2.06,-4.33,-2.06c-1.85,0,-3.29,0.68,-4.32,2.06c-1.02,1.37,-1.54,3.34,-1.54,5.9c0,2.54,0.51,4.51,1.54,5.9c1.02,1.38,2.47,2.08,4.32,2.08m15.69,2.33l0,-20.62l3.74,0l0,3.85c0.94,-1.38,2.05,-2.44,3.31,-3.2c1.25,-0.75,2.56,-1.13,3.92,-1.13c1.74,0,3.16,0.55,4.25,1.66c1.08,1.1,1.63,2.64,1.63,4.61l0,14.82l-3.74,0l0,-13.61c0,-1.43,-0.12,-2.37,-0.37,-2.83c-0.25,-0.45,-0.6,-0.8,-1.06,-1.05c-0.45,-0.24,-0.94,-0.37,-1.46,-0.37c-0.92,0,-1.92,0.28,-2.99,0.85c-1.07,0.57,-2.23,1.78,-3.48,3.65l0,13.36l-3.74,0m36.4,5.62l0,-35.61l2.81,0l0,35.61l-2.81,0m10.3,0l0,-35.61l2.81,0l0,35.61l-2.81,0" fill="#000000" stroke="none" fill-opacity="1"/>
<path d="m506.81,-2.75c-1.17,1.12,-2.25,1.93,-3.22,2.41c-1.15,0.58,-2.45,0.87,-3.89,0.87c-1.7,0,-3.2,-0.43,-4.48,-1.31c-1.44,-0.98,-2.16,-2.31,-2.16,-3.96c0,-2.02,1.55,-3.51,4.65,-4.46c-2.49,-0.88,-3.74,-2.22,-3.74,-4.02c0,-1.58,0.79,-2.79,2.39,-3.64c1.29,-0.68,2.79,-1.02,4.52,-1.02c1.3,0,2.49,0.18,3.57,0.56c1.5,0.54,2.26,1.35,2.26,2.43c0,0.43,-0.16,0.8,-0.49,1.13c-0.32,0.32,-0.7,0.48,-1.13,0.48c-0.7,0,-1.29,-0.49,-1.74,-1.48c-0.63,-1.36,-1.58,-2.05,-2.84,-2.05c-1.07,0,-1.92,0.36,-2.54,1.08c-0.59,0.67,-0.89,1.55,-0.89,2.65c0,2.31,1.19,3.47,3.58,3.47c0.22,0,0.51,-0.02,0.87,-0.07c0.54,-0.07,0.98,-0.11,1.32,-0.11c0.77,0,1.15,0.22,1.15,0.66c0,0.49,-0.39,0.74,-1.17,0.74c-0.31,0,-0.73,-0.04,-1.25,-0.13c-0.45,-0.07,-0.77,-0.11,-0.96,-0.11c-2.53,0,-3.79,1.29,-3.79,3.87c0,1.11,0.33,2.04,0.99,2.79c0.66,0.74,1.54,1.12,2.64,1.12c1.86,0,3.82,-0.79,5.88,-2.39l0.49,0.49" fill="#000000" stroke="none" fill-opacity="1"/>
<path d="m508.19,4.9l5.58,-8.46l-5.31,-8.37l2.82,0l4.03,6.35l4.25,-6.35l2.26,0l-5.38,8.13l5.52,8.69l-2.82,0l-4.27,-6.67l-4.41,6.67l-2.27,0" fill="#000000" stroke="none" fill-opacity="1"/>
<path d="m526.34,5.62l0,-35.61l2.81,0l0,35.61l-2.81,0m10.3,0l0,-35.61l2.81,0l0,35.61l-2.81,0" fill="#000000" stroke="none" fill-opacity="1"/>
</g>
<path d="m64.51,1037.31l6.26,-3.05l0.62,0l0,21.74c0,1.44,0.06,2.34,0.18,2.69c0.12,0.35,0.37,0.62,0.75,0.81c0.37,0.18,1.15,0.29,2.31,0.32l0,0.7l-9.68,0l0,-0.7c1.21,-0.02,2,-0.12,2.35,-0.31c0.35,-0.18,0.6,-0.43,0.74,-0.74c0.13,-0.31,0.2,-1.23,0.2,-2.78l0,-13.9c0,-1.87,-0.06,-3.07,-0.18,-3.6c-0.08,-0.4,-0.25,-0.7,-0.48,-0.89c-0.23,-0.18,-0.51,-0.28,-0.84,-0.28c-0.46,0,-1.12,0.19,-1.95,0.58l-0.28,-0.58m16.34,10.5c0,-2.93,0.44,-5.46,1.32,-7.58c0.88,-2.12,2.06,-3.7,3.53,-4.73c1.13,-0.82,2.31,-1.23,3.53,-1.23c1.97,0,3.74,1,5.31,3.02c1.96,2.49,2.94,5.87,2.94,10.14c0,2.98,-0.43,5.52,-1.29,7.61c-0.86,2.08,-1.95,3.6,-3.29,4.54c-1.33,0.94,-2.62,1.41,-3.86,1.41c-2.45,0,-4.5,-1.44,-6.13,-4.34c-1.38,-2.44,-2.07,-5.38,-2.07,-8.83m3.72,0.47c0,3.54,0.43,6.43,1.31,8.68c0.72,1.88,1.79,2.83,3.22,2.83c0.68,0,1.39,-0.3,2.12,-0.92c0.73,-0.61,1.29,-1.64,1.67,-3.08c0.58,-2.17,0.87,-5.24,0.87,-9.21c0,-2.93,-0.3,-5.38,-0.91,-7.35c-0.45,-1.45,-1.04,-2.48,-1.76,-3.09c-0.51,-0.41,-1.14,-0.62,-1.88,-0.62c-0.86,0,-1.62,0.38,-2.29,1.15c-0.91,1.05,-1.53,2.7,-1.86,4.95c-0.32,2.25,-0.49,4.47,-0.49,6.66" fill="#000000" stroke="none" fill-opacity="1"/>
<path d="m111.64,1036.02l-12.26,0l0,-0.93l12.26,0l0,0.93m2.75,-8.14l8.27,0l0,0.43l-5.14,15.31l-1.27,0l4.6,-13.89l-4.24,0c-0.85,0,-1.46,0.1,-1.83,0.3c-0.63,0.34,-1.14,0.88,-1.53,1.61l-0.32,-0.12l1.47,-3.65" fill="#000000" stroke="none" fill-opacity="1"/>
<path d="m64.51,866.82l6.26,-3.05l0.62,0l0,21.74c0,1.44,0.06,2.34,0.18,2.69c0.12,0.35,0.37,0.62,0.75,0.81c0.37,0.18,1.15,0.29,2.31,0.32l0,0.7l-9.68,0l0,-0.7c1.21,-0.02,2,-0.12,2.35,-0.31c0.35,-0.18,0.6,-0.43,0.74,-0.74c0.13,-0.31,0.2,-1.23,0.2,-2.78l0,-13.9c0,-1.87,-0.06,-3.07,-0.18,-3.6c-0.08,-0.4,-0.25,-0.7,-0.48,-0.89c-0.23,-0.18,-0.51,-0.28,-0.84,-0.28c-0.46,0,-1.12,0.19,-1.95,0.58l-0.28,-0.58m16.34,10.5c0,-2.93,0.44,-5.46,1.32,-7.58c0.88,-2.12,2.06,-3.7,3.53,-4.73c1.13,-0.82,2.31,-1.23,3.53,-1.23c1.97,0,3.74,1,5.31,3.02c1.96,2.49,2.94,5.87,2.94,10.14c0,2.98,-0.43,5.52,-1.29,7.61c-0.86,2.08,-1.95,3.6,-3.29,4.54c-1.33,0.94,-2.62,1.41,-3.86,1.41c-2.45,0,-4.5,-1.44,-6.13,-4.34c-1.38,-2.44,-2.07,-5.38,-2.07,-8.83m3.72,0.47c0,3.54,0.43,6.43,1.31,8.68c0.72,1.88,1.79,2.83,3.22,2.83c0.68,0,1.39,-0.3,2.12,-0.92c0.73,-0.61,1.29,-1.64,1.67,-3.08c0.58,-2.17,0.87,-5.24,0.87,-9.21c0,-2.93,-0.3,-5.38,-0.91,-7.35c-0.45,-1.45,-1.04,-2.48,-1.76,-3.09c-0.51,-0.41,-1.14,-0.62,-1.88,-0.62c-0.86,0,-1.62,0.38,-2.29,1.15c-0.91,1.05,-1.53,2.7,-1.86,4.95c-0.32,2.25,-0.49,4.47,-0.49,6.66" fill="#000000" stroke="none" fill-opacity="1"/>
<path d="m111.64,865.53l-12.26,0l0,-0.93l12.26,0l0,0.93m10.85,-8.46l0,0.42c-1,0.09,-1.81,0.29,-2.45,0.59c-0.63,0.29,-1.25,0.75,-1.87,1.37c-0.61,0.61,-1.13,1.29,-1.53,2.05c-0.4,0.75,-0.74,1.65,-1.01,2.69c1.09,-0.75,2.18,-1.12,3.28,-1.12c1.05,0,1.96,0.42,2.74,1.27c0.77,0.84,1.16,1.94,1.16,3.27c0,1.28,-0.39,2.46,-1.17,3.52c-0.94,1.28,-2.18,1.93,-3.73,1.93c-1.05,0,-1.94,-0.34,-2.68,-1.04c-1.44,-1.35,-2.16,-3.11,-2.16,-5.27c0,-1.38,0.27,-2.69,0.83,-3.93c0.55,-1.24,1.34,-2.34,2.37,-3.31c1.02,-0.96,2.01,-1.61,2.95,-1.94c0.94,-0.33,1.81,-0.5,2.62,-0.5l0.65,0m-7.07,7.96c-0.13,1.02,-0.2,1.85,-0.2,2.48c0,0.72,0.13,1.51,0.4,2.37c0.26,0.85,0.66,1.53,1.2,2.03c0.38,0.35,0.85,0.53,1.41,0.53c0.65,0,1.24,-0.31,1.76,-0.93c0.51,-0.62,0.77,-1.5,0.77,-2.66c0,-1.29,-0.25,-2.41,-0.77,-3.36c-0.51,-0.94,-1.24,-1.42,-2.19,-1.42c-0.28,0,-0.59,0.06,-0.92,0.18c-0.32,0.12,-0.81,0.38,-1.46,0.78" fill="#000000" stroke="none" fill-opacity="1"/>
<path d="m64.51,696.34l6.26,-3.05l0.62,0l0,21.74c0,1.44,0.06,2.34,0.18,2.69c0.12,0.35,0.37,0.62,0.75,0.81c0.37,0.18,1.15,0.29,2.31,0.32l0,0.7l-9.68,0l0,-0.7c1.21,-0.02,2,-0.12,2.35,-0.31c0.35,-0.18,0.6,-0.43,0.74,-0.74c0.13,-0.31,0.2,-1.23,0.2,-2.78l0,-13.9c0,-1.87,-0.06,-3.07,-0.18,-3.6c-0.08,-0.4,-0.25,-0.7,-0.48,-0.89c-0.23,-0.18,-0.51,-0.28,-0.84,-0.28c-0.46,0,-1.12,0.19,-1.95,0.58l-0.28,-0.58m16.34,10.5c0,-2.93,0.44,-5.46,1.32,-7.58c0.88,-2.12,2.06,-3.7,3.53,-4.73c1.13,-0.82,2.31,-1.23,3.53,-1.23c1.97,0,3.74,1,5.31,3.02c1.96,2.49,2.94,5.87,2.94,10.14c0,2.98,-0.43,5.52,-1.29,7.61c-0.86,2.08,-1.95,3.6,-3.29,4.54c-1.33,0.94,-2.62,1.41,-3.86,1.41c-2.45,0,-4.5,-1.44,-6.13,-4.34c-1.38,-2.44,-2.07,-5.38,-2.07,-8.83m3.72,0.47c0,3.54,0.43,6.43,1.31,8.68c0.72,1.88,1.79,2.83,3.22,2.83c0.68,0,1.39,-0.3,2.12,-0.92c0.73,-0.61,1.29,-1.64,1.67,-3.08c0.58,-2.17,0.87,-5.24,0.87,-9.21c0,-2.93,-0.3,-5.38,-0.91,-7.35c-0.45,-1.45,-1.04,-2.48,-1.76,-3.09c-0.51,-0.41,-1.14,-0.62,-1.88,-0.62c-0.86,0,-1.62,0.38,-2.29,1.15c-0.91,1.05,-1.53,2.7,-1.86,4.95c-0.32,2.25,-0.49,4.47,-0.49,6.66" fill="#000000" stroke="none" fill-opacity="1"/>
<path d="m111.64,695.04l-12.26,0l0,-0.93l12.26,0l0,0.93m10.52,-8.14l-0.88,1.93l-4.64,0l-1.01,2.07c2,0.29,3.6,1.04,4.77,2.24c1,1.03,1.51,2.24,1.51,3.64c0,0.81,-0.16,1.56,-0.49,2.25c-0.32,0.69,-0.74,1.27,-1.24,1.76c-0.5,0.48,-1.05,0.87,-1.67,1.17c-0.87,0.41,-1.76,0.62,-2.68,0.62c-0.92,0,-1.59,-0.15,-2.01,-0.47c-0.42,-0.31,-0.63,-0.66,-0.63,-1.04c0,-0.21,0.08,-0.4,0.26,-0.56c0.17,-0.16,0.39,-0.24,0.65,-0.24c0.19,0,0.36,0.03,0.51,0.09c0.14,0.06,0.4,0.21,0.75,0.46c0.56,0.39,1.14,0.59,1.72,0.59c0.88,0,1.66,-0.33,2.33,-1c0.67,-0.67,1,-1.48,1,-2.45c0,-0.93,-0.29,-1.8,-0.89,-2.61c-0.59,-0.8,-1.42,-1.43,-2.48,-1.87c-0.82,-0.34,-1.95,-0.53,-3.37,-0.59l2.95,-5.99l5.52,0" fill="#000000" stroke="none" fill-opacity="1"/>
<path d="m64.51,525.85l6.26,-3.05l0.62,0l0,21.74c0,1.44,0.06,2.34,0.18,2.69c0.12,0.35,0.37,0.62,0.75,0.81c0.37,0.18,1.15,0.29,2.31,0.32l0,0.7l-9.68,0l0,-0.7c1.21,-0.02,2,-0.12,2.35,-0.31c0.35,-0.18,0.6,-0.43,0.74,-0.74c0.13,-0.31,0.2,-1.23,0.2,-2.78l0,-13.9c0,-1.87,-0.06,-3.07,-0.18,-3.6c-0.08,-0.4,-0.25,-0.7,-0.48,-0.89c-0.23,-0.18,-0.51,-0.28,-0.84,-0.28c-0.46,0,-1.12,0.19,-1.95,0.58l-0.28,-0.58m16.34,10.5c0,-2.93,0.44,-5.46,1.32,-7.58c0.88,-2.12,2.06,-3.7,3.53,-4.73c1.13,-0.82,2.31,-1.23,3.53,-1.23c1.97,0,3.74,1,5.31,3.02c1.96,2.49,2.94,5.87,2.94,10.14c0,2.98,-0.43,5.52,-1.29,7.61c-0.86,2.08,-1.95,3.6,-3.29,4.54c-1.33,0.94,-2.62,1.41,-3.86,1.41c-2.45,0,-4.5,-1.44,-6.13,-4.34c-1.38,-2.44,-2.07,-5.38,-2.07,-8.83m3.72,0.47c0,3.54,0.43,6.43,1.31,8.68c0.72,1.88,1.79,2.83,3.22,2.83c0.68,0,1.39,-0.3,2.12,-0.92c0.73,-0.61,1.29,-1.64,1.67,-3.08c0.58,-2.17,0.87,-5.24,0.87,-9.21c0,-2.93,-0.3,-5.38,-0.91,-7.35c-0.45,-1.45,-1.04,-2.48,-1.76,-3.09c-0.51,-0.41,-1.14,-0.62,-1.88,-0.62c-0.86,0,-1.62,0.38,-2.29,1.15c-0.91,1.05,-1.53,2.7,-1.86,4.95c-0.32,2.25,-0.49,4.47,-0.49,6.66" fill="#000000" stroke="none" fill-opacity="1"/>
<path d="m111.64,524.56l-12.26,0l0,-0.93l12.26,0l0,0.93m11.25,1.59l0,1.61l-2.07,0l0,4.07l-1.87,0l0,-4.07l-6.53,0l0,-1.45l7.15,-10.21l1.25,0l0,10.05l2.07,0m-3.94,0l0,-7.65l-5.41,7.65l5.41,0" fill="#000000" stroke="none" fill-opacity="1"/>
<path d="m64.51,355.36l6.26,-3.05l0.62,0l0,21.74c0,1.44,0.06,2.34,0.18,2.69c0.12,0.35,0.37,0.62,0.75,0.81c0.37,0.18,1.15,0.29,2.31,0.32l0,0.7l-9.68,0l0,-0.7c1.21,-0.02,2,-0.12,2.35,-0.31c0.35,-0.18,0.6,-0.43,0.74,-0.74c0.13,-0.31,0.2,-1.23,0.2,-2.78l0,-13.9c0,-1.87,-0.06,-3.07,-0.18,-3.6c-0.08,-0.4,-0.25,-0.7,-0.48,-0.89c-0.23,-0.18,-0.51,-0.28,-0.84,-0.28c-0.46,0,-1.12,0.19,-1.95,0.58l-0.28,-0.58m16.34,10.5c0,-2.93,0.44,-5.46,1.32,-7.58c0.88,-2.12,2.06,-3.7,3.53,-4.73c1.13,-0.82,2.31,-1.23,3.53,-1.23c1.97,0,3.74,1,5.31,3.02c1.96,2.49,2.94,5.87,2.94,10.14c0,2.98,-0.43,5.52,-1.29,7.61c-0.86,2.08,-1.95,3.6,-3.29,4.54c-1.33,0.94,-2.62,1.41,-3.86,1.41c-2.45,0,-4.5,-1.44,-6.13,-4.34c-1.38,-2.44,-2.07,-5.38,-2.07,-8.83m3.72,0.47c0,3.54,0.43,6.43,1.31,8.68c0.72,1.88,1.79,2.83,3.22,2.83c0.68,0,1.39,-0.3,2.12,-0.92c0.73,-0.61,1.29,-1.64,1.67,-3.08c0.58,-2.17,0.87,-5.24,0.87,-9.21c0,-2.93,-0.3,-5.38,-0.91,-7.35c-0.45,-1.45,-1.04,-2.48,-1.76,-3.09c-0.51,-0.41,-1.14,-0.62,-1.88,-0.62c-0.86,0,-1.62,0.38,-2.29,1.15c-0.91,1.05,-1.53,2.7,-1.86,4.95c-0.32,2.25,-0.49,4.47,-0.49,6.66" fill="#000000" stroke="none" fill-opacity="1"/>
<path d="m111.64,354.07l-12.26,0l0,-0.93l12.26,0l0,0.93m1.59,-5.21c0.43,-1.03,0.99,-1.84,1.66,-2.4c0.67,-0.56,1.5,-0.84,2.5,-0.84c1.23,0,2.18,0.4,2.84,1.2c0.5,0.59,0.75,1.24,0.75,1.92c0,1.12,-0.7,2.28,-2.11,3.48c0.94,0.37,1.66,0.9,2.15,1.59c0.48,0.69,0.72,1.5,0.72,2.43c0,1.33,-0.42,2.49,-1.27,3.47c-1.1,1.27,-2.71,1.91,-4.81,1.91c-1.03,0,-1.74,-0.12,-2.12,-0.38c-0.37,-0.25,-0.56,-0.53,-0.56,-0.83c0,-0.22,0.08,-0.41,0.26,-0.58c0.17,-0.16,0.39,-0.25,0.64,-0.25c0.18,0,0.38,0.03,0.58,0.09c0.12,0.03,0.42,0.17,0.87,0.41c0.45,0.23,0.76,0.38,0.94,0.42c0.28,0.08,0.58,0.12,0.89,0.12c0.77,0,1.44,-0.29,2.01,-0.89c0.57,-0.59,0.85,-1.3,0.85,-2.12c0,-0.59,-0.13,-1.18,-0.39,-1.75c-0.19,-0.42,-0.41,-0.74,-0.64,-0.96c-0.32,-0.3,-0.77,-0.57,-1.34,-0.82c-0.56,-0.24,-1.14,-0.36,-1.74,-0.36l-0.36,0l0,-0.34c0.59,-0.07,1.2,-0.29,1.8,-0.64c0.6,-0.35,1.04,-0.78,1.31,-1.28c0.27,-0.5,0.4,-1.05,0.4,-1.64c0,-0.78,-0.24,-1.41,-0.73,-1.89c-0.48,-0.48,-1.09,-0.72,-1.82,-0.72c-1.17,0,-2.15,0.62,-2.94,1.88l-0.37,-0.18" fill="#000000" stroke="none" fill-opacity="1"/>
<path d="m56.96,195.38c0,-2.93,0.44,-5.46,1.32,-7.58c0.88,-2.12,2.06,-3.7,3.53,-4.73c1.13,-0.82,2.31,-1.23,3.53,-1.23c1.97,0,3.74,1,5.31,3.02c1.96,2.49,2.94,5.87,2.94,10.14c0,2.98,-0.43,5.52,-1.29,7.61c-0.86,2.08,-1.95,3.6,-3.29,4.54c-1.33,0.94,-2.62,1.41,-3.86,1.41c-2.45,0,-4.5,-1.44,-6.13,-4.34c-1.38,-2.44,-2.07,-5.38,-2.07,-8.83m3.72,0.47c0,3.54,0.43,6.43,1.31,8.68c0.72,1.88,1.79,2.83,3.22,2.83c0.68,0,1.39,-0.3,2.12,-0.92c0.73,-0.61,1.29,-1.64,1.67,-3.08c0.58,-2.17,0.87,-5.24,0.87,-9.21c0,-2.93,-0.3,-5.38,-0.91,-7.35c-0.45,-1.45,-1.04,-2.48,-1.76,-3.09c-0.51,-0.41,-1.14,-0.62,-1.88,-0.62c-0.86,0,-1.62,0.38,-2.29,1.15c-0.91,1.05,-1.53,2.7,-1.86,4.95c-0.32,2.25,-0.49,4.47,-0.49,6.66m16.46,18.72l0,-0.83c1.3,-0.43,2.31,-1.09,3.02,-2c0.71,-0.9,1.07,-1.86,1.07,-2.87c0,-0.24,-0.05,-0.44,-0.17,-0.6c-0.08,-0.11,-0.17,-0.17,-0.26,-0.17c-0.13,0,-0.44,0.12,-0.91,0.37c-0.22,0.11,-0.46,0.17,-0.72,0.17c-0.62,0,-1.11,-0.18,-1.48,-0.55c-0.36,-0.36,-0.55,-0.87,-0.55,-1.51c0,-0.62,0.23,-1.15,0.71,-1.59c0.47,-0.44,1.05,-0.66,1.73,-0.66c0.83,0,1.57,0.36,2.23,1.09c0.65,0.72,0.97,1.69,0.97,2.89c0,1.3,-0.45,2.51,-1.35,3.63c-0.9,1.12,-2.33,2,-4.3,2.64m9.01,-19.2c0,-2.93,0.44,-5.46,1.32,-7.58c0.88,-2.12,2.06,-3.7,3.53,-4.73c1.13,-0.82,2.31,-1.23,3.53,-1.23c1.97,0,3.74,1,5.31,3.02c1.96,2.49,2.94,5.87,2.94,10.14c0,2.98,-0.43,5.52,-1.29,7.61c-0.86,2.08,-1.95,3.6,-3.29,4.54c-1.33,0.94,-2.62,1.41,-3.86,1.41c-2.45,0,-4.5,-1.44,-6.13,-4.34c-1.38,-2.44,-2.07,-5.38,-2.07,-8.83m3.72,0.47c0,3.54,0.43,6.43,1.31,8.68c0.72,1.88,1.79,2.83,3.22,2.83c0.68,0,1.39,-0.3,2.12,-0.92c0.73,-0.61,1.29,-1.64,1.67,-3.08c0.58,-2.17,0.87,-5.24,0.87,-9.21c0,-2.93,-0.3,-5.38,-0.91,-7.35c-0.45,-1.45,-1.04,-2.48,-1.76,-3.09c-0.51,-0.41,-1.14,-0.62,-1.88,-0.62c-0.86,0,-1.62,0.38,-2.29,1.15c-0.91,1.05,-1.53,2.7,-1.86,4.95c-0.32,2.25,-0.49,4.47,-0.49,6.66m18.93,-10.97l6.26,-3.05l0.62,0l0,21.74c0,1.44,0.06,2.34,0.18,2.69c0.12,0.35,0.37,0.62,0.75,0.81c0.37,0.18,1.15,0.29,2.31,0.32l0,0.7l-9.68,0l0,-0.7c1.21,-0.02,2,-0.12,2.35,-0.31c0.35,-0.18,0.6,-0.43,0.74,-0.74c0.13,-0.31,0.2,-1.23,0.2,-2.78l0,-13.9c0,-1.87,-0.06,-3.07,-0.18,-3.6c-0.08,-0.4,-0.25,-0.7,-0.48,-0.89c-0.23,-0.18,-0.51,-0.28,-0.84,-0.28c-0.46,0,-1.12,0.19,-1.95,0.58l-0.28,-0.58" fill="#000000" stroke="none" fill-opacity="1"/>
<path d="m76.46,24.89c0,-2.93,0.44,-5.46,1.32,-7.58c0.88,-2.12,2.06,-3.7,3.53,-4.73c1.13,-0.82,2.31,-1.23,3.53,-1.23c1.97,0,3.74,1,5.31,3.02c1.96,2.49,2.94,5.87,2.94,10.14c0,2.98,-0.43,5.52,-1.29,7.61c-0.86,2.08,-1.95,3.6,-3.29,4.54c-1.33,0.94,-2.62,1.41,-3.86,1.41c-2.45,0,-4.5,-1.44,-6.13,-4.34c-1.38,-2.44,-2.07,-5.38,-2.07,-8.83m3.72,0.47c0,3.54,0.43,6.43,1.31,8.68c0.72,1.88,1.79,2.83,3.22,2.83c0.68,0,1.39,-0.3,2.12,-0.92c0.73,-0.61,1.29,-1.64,1.67,-3.08c0.58,-2.17,0.87,-5.24,0.87,-9.21c0,-2.93,-0.3,-5.38,-0.91,-7.35c-0.45,-1.45,-1.04,-2.48,-1.76,-3.09c-0.51,-0.41,-1.14,-0.62,-1.88,-0.62c-0.86,0,-1.62,0.38,-2.29,1.15c-0.91,1.05,-1.53,2.7,-1.86,4.95c-0.32,2.25,-0.49,4.47,-0.49,6.66m16.46,18.72l0,-0.83c1.3,-0.43,2.31,-1.09,3.02,-2c0.71,-0.9,1.07,-1.86,1.07,-2.87c0,-0.24,-0.05,-0.44,-0.17,-0.6c-0.08,-0.11,-0.17,-0.17,-0.26,-0.17c-0.13,0,-0.44,0.12,-0.91,0.37c-0.22,0.11,-0.46,0.17,-0.72,0.17c-0.62,0,-1.11,-0.18,-1.48,-0.55c-0.36,-0.36,-0.55,-0.87,-0.55,-1.51c0,-0.62,0.23,-1.15,0.71,-1.59c0.47,-0.44,1.05,-0.66,1.73,-0.66c0.83,0,1.57,0.36,2.23,1.09c0.65,0.72,0.97,1.69,0.97,2.89c0,1.3,-0.45,2.51,-1.35,3.63c-0.9,1.12,-2.33,2,-4.3,2.64m12.16,-29.7l6.26,-3.05l0.62,0l0,21.74c0,1.44,0.06,2.34,0.18,2.69c0.12,0.35,0.37,0.62,0.75,0.81c0.37,0.18,1.15,0.29,2.31,0.32l0,0.7l-9.68,0l0,-0.7c1.21,-0.02,2,-0.12,2.35,-0.31c0.35,-0.18,0.6,-0.43,0.74,-0.74c0.13,-0.31,0.2,-1.23,0.2,-2.78l0,-13.9c0,-1.87,-0.06,-3.07,-0.18,-3.6c-0.08,-0.4,-0.25,-0.7,-0.48,-0.89c-0.23,-0.18,-0.51,-0.28,-0.84,-0.28c-0.46,0,-1.12,0.19,-1.95,0.58l-0.28,-0.58" fill="#000000" stroke="none" fill-opacity="1"/>
</g>
<g fill="none" stroke-linecap="butt" stroke-width="1.38">
<path d="M133.85,1047.24l1031.49,0"/>
<path d="M143.44,1047.24l0,-8.33M164.67,1047.24l0,-8.33M183.07,1047.24l0,-8.33M199.29,1047.24l0,-8.33M309.29,1047.24l0,-8.33M365.14,1047.24l0,-8.33M404.77,1047.24l0,-8.33M435.51,1047.24l0,-8.33M460.62,1047.24l0,-8.33M481.86,1047.24l0,-8.33M500.25,1047.24l0,-8.33M516.47,1047.24l0,-8.33M626.47,1047.24l0,-8.33M682.32,1047.24l0,-8.33M721.95,1047.24l0,-8.33M752.69,1047.24l0,-8.33M777.8,1047.24l0,-8.33M799.04,1047.24l0,-8.33M817.43,1047.24l0,-8.33M833.65,1047.24l0,-8.33M943.65,1047.24l0,-8.33M999.5,1047.24l0,-8.33M1039.13,1047.24l0,-8.33M1069.87,1047.24l0,-8.33M1094.98,1047.24l0,-8.33M1116.22,1047.24l0,-8.33M1134.61,1047.24l0,-8.33M1150.84,1047.24l0,-8.33"/>
<path d="M213.81,1047.24l0,-16.66M530.99,1047.24l0,-16.66M848.17,1047.24l0,-16.66M1165.35,1047.24l0,-16.66"/>
</g>
<g fill="none" stroke-width="0.1">
<path d="m553.43,1147.94l0,-28.11l15.74,0l0,2.98l-11.75,0l0,9.02l9.85,0l0,2.94l-9.85,0l0,10.18l12.57,0l0,2.98l-16.56,0m21.21,0l0,-20.62l3.74,0l0,3.85c0.7,-1.38,1.63,-2.44,2.76,-3.2c1.13,-0.75,2.36,-1.13,3.69,-1.13c0.37,0,0.77,0.03,1.19,0.09l0,3.49c-0.63,-0.21,-1.2,-0.32,-1.7,-0.32c-1.17,0,-2.26,0.35,-3.25,1.05c-0.99,0.7,-1.88,1.75,-2.68,3.16l0,13.61l-3.74,0m15.9,0l0,-20.62l3.74,0l0,3.85c0.7,-1.38,1.63,-2.44,2.76,-3.2c1.13,-0.75,2.36,-1.13,3.69,-1.13c0.37,0,0.77,0.03,1.19,0.09l0,3.49c-0.63,-0.21,-1.2,-0.32,-1.7,-0.32c-1.17,0,-2.26,0.35,-3.25,1.05c-0.99,0.7,-1.88,1.75,-2.68,3.16l0,13.61l-3.74,0m31.26,-0.66c-2.54,0.75,-4.72,1.13,-6.53,1.13c-3.25,0,-5.8,-1.07,-7.67,-3.23c-1.86,-2.15,-2.79,-4.7,-2.79,-7.64c0,-1.93,0.41,-3.77,1.23,-5.52c0.82,-1.74,1.89,-3.04,3.22,-3.89c1.32,-0.84,2.89,-1.27,4.69,-1.27c2.41,0,4.34,0.85,5.78,2.56c1.43,1.7,2.15,4.26,2.15,7.67l-0.01,1.13l-13.25,0c0.2,1.82,0.6,3.22,1.2,4.21c0.59,0.98,1.38,1.75,2.37,2.3c0.98,0.55,2.24,0.82,3.76,0.82c0.77,0,1.54,-0.06,2.31,-0.19c0.76,-0.13,1.94,-0.48,3.53,-1.05l0,2.96m-13.01,-11.87l9.36,0c0,-2.06,-0.41,-3.53,-1.24,-4.42c-0.82,-0.88,-1.88,-1.32,-3.17,-1.32c-1.47,0,-2.62,0.47,-3.45,1.43c-0.82,0.95,-1.32,2.39,-1.49,4.32m32.24,12.53l0,-3.87c-0.96,1.39,-2.07,2.46,-3.32,3.21c-1.25,0.75,-2.55,1.13,-3.91,1.13c-1.73,0,-3.14,-0.55,-4.24,-1.66c-1.09,-1.1,-1.64,-2.64,-1.64,-4.62l0,-14.81l3.74,0l0,13.59c0,1.43,0.12,2.37,0.37,2.83c0.25,0.45,0.6,0.81,1.06,1.06c0.45,0.25,0.94,0.37,1.48,0.37c0.91,0,1.9,-0.28,2.97,-0.85c1.07,-0.56,2.23,-1.78,3.48,-3.64l0,-13.37l3.74,0l0,20.62l-3.74,0m11.2,0l0,-20.62l3.74,0l0,3.85c0.7,-1.38,1.63,-2.44,2.76,-3.2c1.13,-0.75,2.36,-1.13,3.69,-1.13c0.37,0,0.77,0.03,1.19,0.09l0,3.49c-0.63,-0.21,-1.2,-0.32,-1.7,-0.32c-1.17,0,-2.26,0.35,-3.25,1.05c-0.99,0.7,-1.88,1.75,-2.68,3.16l0,13.61l-3.74,0m28.2,5.62l0,-35.61l2.81,0l0,35.61l-2.81,0m10.3,0l0,-35.61l2.81,0l0,35.61l-2.81,0" fill="#000000" stroke="none" fill-opacity="1"/>
<path d="m712.42,1145.18c-1.17,1.12,-2.25,1.93,-3.22,2.41c-1.15,0.58,-2.45,0.87,-3.89,0.87c-1.7,0,-3.2,-0.43,-4.48,-1.31c-1.44,-0.98,-2.16,-2.31,-2.16,-3.96c0,-2.02,1.55,-3.51,4.65,-4.46c-2.49,-0.88,-3.74,-2.22,-3.74,-4.02c0,-1.58,0.79,-2.79,2.39,-3.64c1.29,-0.68,2.79,-1.02,4.52,-1.02c1.3,0,2.49,0.18,3.57,0.56c1.5,0.54,2.26,1.35,2.26,2.43c0,0.43,-0.16,0.8,-0.49,1.13c-0.32,0.32,-0.7,0.48,-1.13,0.48c-0.7,0,-1.29,-0.49,-1.74,-1.48c-0.63,-1.36,-1.58,-2.05,-2.84,-2.05c-1.07,0,-1.92,0.36,-2.54,1.08c-0.59,0.67,-0.89,1.55,-0.89,2.65c0,2.31,1.19,3.47,3.58,3.47c0.22,0,0.51,-0.02,0.87,-0.07c0.54,-0.07,0.98,-0.11,1.32,-0.11c0.77,0,1.15,0.22,1.15,0.66c0,0.49,-0.39,0.74,-1.17,0.74c-0.31,0,-0.73,-0.04,-1.25,-0.13c-0.45,-0.07,-0.77,-0.11,-0.96,-0.11c-2.53,0,-3.79,1.29,-3.79,3.87c0,1.11,0.33,2.04,0.99,2.79c0.66,0.74,1.54,1.12,2.64,1.12c1.86,0,3.82,-0.79,5.88,-2.39l0.49,0.49" fill="#000000" stroke="none" fill-opacity="1"/>
<path d="m715.77,1152.84l0,-16.83l2.24,0l0,8.28l6.81,-8.28l2.39,0l-6.59,8.03l7.76,8.8l-3.02,0l-7.35,-8.53l0,8.53l-2.24,0" fill="#000000" stroke="none" fill-opacity="1"/>
<path d="m732.54,1153.56l0,-35.61l2.81,0l0,35.61l-2.81,0m10.3,0l0,-35.61l2.81,0l0,35.61l-2.81,0" fill="#000000" stroke="none" fill-opacity="1"/>
<path d="m186.46,1068.81l6.26,-3.05l0.62,0l0,21.74c0,1.44,0.06,2.34,0.18,2.69c0.12,0.35,0.37,0.62,0.75,0.81c0.37,0.18,1.15,0.29,2.31,0.32l0,0.7l-9.68,0l0,-0.7c1.21,-0.02,2,-0.12,2.35,-0.31c0.35,-0.18,0.6,-0.43,0.74,-0.74c0.13,-0.31,0.2,-1.23,0.2,-2.78l0,-13.9c0,-1.87,-0.06,-3.07,-0.18,-3.6c-0.08,-0.4,-0.25,-0.7,-0.48,-0.89c-0.23,-0.18,-0.51,-0.28,-0.84,-0.28c-0.46,0,-1.12,0.19,-1.95,0.58l-0.28,-0.58m16.34,10.5c0,-2.93,0.44,-5.46,1.32,-7.58c0.88,-2.12,2.06,-3.7,3.53,-4.73c1.13,-0.82,2.31,-1.23,3.53,-1.23c1.97,0,3.74,1,5.31,3.02c1.96,2.49,2.94,5.87,2.94,10.14c0,2.98,-0.43,5.52,-1.29,7.61c-0.86,2.08,-1.95,3.6,-3.29,4.54c-1.33,0.94,-2.62,1.41,-3.86,1.41c-2.45,0,-4.5,-1.44,-6.13,-4.34c-1.38,-2.44,-2.07,-5.38,-2.07,-8.83m3.72,0.47c0,3.54,0.43,6.43,1.31,8.68c0.72,1.88,1.79,2.83,3.22,2.83c0.68,0,1.39,-0.3,2.12,-0.92c0.73,-0.61,1.29,-1.64,1.67,-3.08c0.58,-2.17,0.87,-5.24,0.87,-9.21c0,-2.93,-0.3,-5.38,-0.91,-7.35c-0.45,-1.45,-1.04,-2.48,-1.76,-3.09c-0.51,-0.41,-1.14,-0.62,-1.88,-0.62c-0.86,0,-1.62,0.38,-2.29,1.15c-0.91,1.05,-1.53,2.7,-1.86,4.95c-0.32,2.25,-0.49,4.47,-0.49,6.66" fill="#000000" stroke="none" fill-opacity="1"/>
<path d="m233.59,1067.52l-12.26,0l0,-0.93l12.26,0l0,0.93m1.64,7.59l0,-0.42c0.98,-0.01,1.9,-0.24,2.75,-0.68c0.84,-0.44,1.67,-1.21,2.46,-2.32c0.79,-1.1,1.34,-2.32,1.65,-3.65c-1.19,0.76,-2.26,1.14,-3.23,1.14c-1.08,0,-2.01,-0.41,-2.78,-1.25c-0.77,-0.83,-1.16,-1.95,-1.16,-3.33c0,-1.35,0.38,-2.55,1.16,-3.6c0.93,-1.28,2.15,-1.92,3.65,-1.92c1.26,0,2.35,0.52,3.25,1.57c1.1,1.29,1.66,2.89,1.66,4.8c0,1.71,-0.42,3.31,-1.26,4.79c-0.84,1.48,-2.01,2.71,-3.51,3.69c-1.22,0.8,-2.55,1.2,-3.99,1.2l-0.64,0m7.05,-7.92c0.13,-0.98,0.2,-1.77,0.2,-2.36c0,-0.73,-0.12,-1.53,-0.37,-2.38c-0.25,-0.85,-0.6,-1.5,-1.06,-1.96c-0.45,-0.45,-0.98,-0.68,-1.56,-0.68c-0.67,0,-1.26,0.3,-1.77,0.91c-0.5,0.6,-0.76,1.5,-0.76,2.7c0,1.6,0.33,2.85,1.01,3.75c0.49,0.65,1.09,0.97,1.82,0.97c0.34,0,0.76,-0.08,1.24,-0.25c0.47,-0.16,0.89,-0.4,1.26,-0.7" fill="#000000" stroke="none" fill-opacity="1"/>
<path d="m503.64,1068.81l6.26,-3.05l0.62,0l0,21.74c0,1.44,0.06,2.34,0.18,2.69c0.12,0.35,0.37,0.62,0.75,0.81c0.37,0.18,1.15,0.29,2.31,0.32l0,0.7l-9.68,0l0,-0.7c1.21,-0.02,2,-0.12,2.35,-0.31c0.35,-0.18,0.6,-0.43,0.74,-0.74c0.13,-0.31,0.2,-1.23,0.2,-2.78l0,-13.9c0,-1.87,-0.06,-3.07,-0.18,-3.6c-0.08,-0.4,-0.25,-0.7,-0.48,-0.89c-0.23,-0.18,-0.51,-0.28,-0.84,-0.28c-0.46,0,-1.12,0.19,-1.95,0.58l-0.28,-0.58m16.34,10.5c0,-2.93,0.44,-5.46,1.32,-7.58c0.88,-2.12,2.06,-3.7,3.53,-4.73c1.13,-0.82,2.31,-1.23,3.53,-1.23c1.97,0,3.74,1,5.31,3.02c1.96,2.49,2.94,5.87,2.94,10.14c0,2.98,-0.43,5.52,-1.29,7.61c-0.86,2.08,-1.95,3.6,-3.29,4.54c-1.33,0.94,-2.62,1.41,-3.86,1.41c-2.45,0,-4.5,-1.44,-6.13,-4.34c-1.38,-2.44,-2.07,-5.38,-2.07,-8.83m3.72,0.47c0,3.54,0.43,6.43,1.31,8.68c0.72,1.88,1.79,2.83,3.22,2.83c0.68,0,1.39,-0.3,2.12,-0.92c0.73,-0.61,1.29,-1.64,1.67,-3.08c0.58,-2.17,0.87,-5.24,0.87,-9.21c0,-2.93,-0.3,-5.38,-0.91,-7.35c-0.45,-1.45,-1.04,-2.48,-1.76,-3.09c-0.51,-0.41,-1.14,-0.62,-1.88,-0.62c-0.86,0,-1.62,0.38,-2.29,1.15c-0.91,1.05,-1.53,2.7,-1.86,4.95c-0.32,2.25,-0.49,4.47,-0.49,6.66" fill="#000000" stroke="none" fill-opacity="1"/>
<path d="m550.77,1067.52l-12.26,0l0,-0.93l12.26,0l0,0.93m4.88,-0.48c-1.22,-1,-2,-1.8,-2.36,-2.41c-0.35,-0.6,-0.52,-1.23,-0.52,-1.88c0,-1,0.38,-1.86,1.16,-2.58c0.77,-0.72,1.8,-1.08,3.08,-1.08c1.24,0,2.24,0.33,3,1.01c0.75,0.67,1.13,1.44,1.13,2.3c0,0.57,-0.2,1.16,-0.61,1.76c-0.4,0.59,-1.26,1.3,-2.55,2.11c1.33,1.03,2.21,1.84,2.65,2.43c0.57,0.77,0.86,1.58,0.86,2.44c0,1.08,-0.41,2.01,-1.24,2.78c-0.82,0.76,-1.91,1.15,-3.25,1.15c-1.46,0,-2.6,-0.45,-3.42,-1.37c-0.65,-0.73,-0.97,-1.53,-0.97,-2.41c0,-0.68,0.22,-1.35,0.68,-2.03c0.45,-0.67,1.24,-1.41,2.37,-2.22m1.78,-1.21c0.91,-0.81,1.48,-1.46,1.72,-1.93c0.24,-0.47,0.36,-1.01,0.36,-1.6c0,-0.79,-0.22,-1.42,-0.67,-1.87c-0.44,-0.45,-1.05,-0.67,-1.83,-0.67c-0.77,0,-1.4,0.22,-1.88,0.67c-0.48,0.44,-0.72,0.97,-0.72,1.57c0,0.39,0.1,0.78,0.3,1.18c0.2,0.39,0.48,0.76,0.85,1.12l1.86,1.54m-1.25,1.64c-0.62,0.53,-1.09,1.1,-1.39,1.73c-0.3,0.62,-0.45,1.3,-0.45,2.03c0,0.97,0.26,1.76,0.8,2.34c0.53,0.58,1.21,0.88,2.04,0.88c0.81,0,1.47,-0.23,1.96,-0.69c0.49,-0.46,0.73,-1.02,0.73,-1.68c0,-0.54,-0.14,-1.03,-0.43,-1.46c-0.53,-0.8,-1.62,-1.85,-3.26,-3.15" fill="#000000" stroke="none" fill-opacity="1"/>
<path d="m820.83,1068.81l6.26,-3.05l0.62,0l0,21.74c0,1.44,0.06,2.34,0.18,2.69c0.12,0.35,0.37,0.62,0.75,0.81c0.37,0.18,1.15,0.29,2.31,0.32l0,0.7l-9.68,0l0,-0.7c1.21,-0.02,2,-0.12,2.35,-0.31c0.35,-0.18,0.6,-0.43,0.74,-0.74c0.13,-0.31,0.2,-1.23,0.2,-2.78l0,-13.9c0,-1.87,-0.06,-3.07,-0.18,-3.6c-0.08,-0.4,-0.25,-0.7,-0.48,-0.89c-0.23,-0.18,-0.51,-0.28,-0.84,-0.28c-0.46,0,-1.12,0.19,-1.95,0.58l-0.28,-0.58m16.34,10.5c0,-2.93,0.44,-5.46,1.32,-7.58c0.88,-2.12,2.06,-3.7,3.53,-4.73c1.13,-0.82,2.31,-1.23,3.53,-1.23c1.97,0,3.74,1,5.31,3.02c1.96,2.49,2.94,5.87,2.94,10.14c0,2.98,-0.43,5.52,-1.29,7.61c-0.86,2.08,-1.95,3.6,-3.29,4.54c-1.33,0.94,-2.62,1.41,-3.86,1.41c-2.45,0,-4.5,-1.44,-6.13,-4.34c-1.38,-2.44,-2.07,-5.38,-2.07,-8.83m3.72,0.47c0,3.54,0.43,6.43,1.31,8.68c0.72,1.88,1.79,2.83,3.22,2.83c0.68,0,1.39,-0.3,2.12,-0.92c0.73,-0.61,1.29,-1.64,1.67,-3.08c0.58,-2.17,0.87,-5.24,0.87,-9.21c0,-2.93,-0.3,-5.38,-0.91,-7.35c-0.45,-1.45,-1.04,-2.48,-1.76,-3.09c-0.51,-0.41,-1.14,-0.62,-1.88,-0.62c-0.86,0,-1.62,0.38,-2.29,1.15c-0.91,1.05,-1.53,2.7,-1.86,4.95c-0.32,2.25,-0.49,4.47,-0.49,6.66" fill="#000000" stroke="none" fill-opacity="1"/>
<path d="m867.95,1067.52l-12.26,0l0,-0.93l12.26,0l0,0.93m2.75,-8.14l8.27,0l0,0.43l-5.14,15.31l-1.27,0l4.6,-13.89l-4.24,0c-0.85,0,-1.46,0.1,-1.83,0.3c-0.63,0.34,-1.14,0.88,-1.53,1.61l-0.32,-0.12l1.47,-3.65" fill="#000000" stroke="none" fill-opacity="1"/>
<path d="m1121.86,1068.81l6.26,-3.05l0.62,0l0,21.74c0,1.44,0.06,2.34,0.18,2.69c0.12,0.35,0.37,0.62,0.75,0.81c0.37,0.18,1.15,0.29,2.31,0.32l0,0.7l-9.68,0l0,-0.7c1.21,-0.02,2,-0.12,2.35,-0.31c0.35,-0.18,0.6,-0.43,0.74,-0.74c0.13,-0.31,0.2,-1.23,0.2,-2.78l0,-13.9c0,-1.87,-0.06,-3.07,-0.18,-3.6c-0.08,-0.4,-0.25,-0.7,-0.48,-0.89c-0.23,-0.18,-0.51,-0.28,-0.84,-0.28c-0.46,0,-1.12,0.19,-1.95,0.58l-0.28,-0.58m16.34,10.5c0,-2.93,0.44,-5.46,1.32,-7.58c0.88,-2.12,2.06,-3.7,3.53,-4.73c1.13,-0.82,2.31,-1.23,3.53,-1.23c1.97,0,3.74,1,5.31,3.02c1.96,2.49,2.94,5.87,2.94,10.14c0,2.98,-0.43,5.52,-1.29,7.61c-0.86,2.08,-1.95,3.6,-3.29,4.54c-1.33,0.94,-2.62,1.41,-3.86,1.41c-2.45,0,-4.5,-1.44,-6.13,-4.34c-1.38,-2.44,-2.07,-5.38,-2.07,-8.83m3.72,0.47c0,3.54,0.43,6.43,1.31,8.68c0.72,1.88,1.79,2.83,3.22,2.83c0.68,0,1.39,-0.3,2.12,-0.92c0.73,-0.61,1.29,-1.64,1.67,-3.08c0.58,-2.17,0.87,-5.24,0.87,-9.21c0,-2.93,-0.3,-5.38,-0.91,-7.35c-0.45,-1.45,-1.04,-2.48,-1.76,-3.09c-0.51,-0.41,-1.14,-0.62,-1.88,-0.62c-0.86,0,-1.62,0.38,-2.29,1.15c-0.91,1.05,-1.53,2.7,-1.86,4.95c-0.32,2.25,-0.49,4.47,-0.49,6.66" fill="#000000" stroke="none" fill-opacity="1"/>
<path d="m1168.98,1067.52l-12.26,0l0,-0.93l12.26,0l0,0.93m10.85,-8.46l0,0.42c-1,0.09,-1.81,0.29,-2.45,0.59c-0.63,0.29,-1.25,0.75,-1.87,1.37c-0.61,0.61,-1.13,1.29,-1.53,2.05c-0.4,0.75,-0.74,1.65,-1.01,2.69c1.09,-0.75,2.18,-1.12,3.28,-1.12c1.05,0,1.96,0.42,2.74,1.27c0.77,0.84,1.16,1.94,1.16,3.27c0,1.28,-0.39,2.46,-1.17,3.52c-0.94,1.28,-2.18,1.93,-3.73,1.93c-1.05,0,-1.94,-0.34,-2.68,-1.04c-1.44,-1.35,-2.16,-3.11,-2.16,-5.27c0,-1.38,0.27,-2.69,0.83,-3.93c0.55,-1.24,1.34,-2.34,2.37,-3.31c1.02,-0.96,2.01,-1.61,2.95,-1.94c0.94,-0.33,1.81,-0.5,2.62,-0.5l0.65,0m-7.07,7.96c-0.13,1.02,-0.2,1.85,-0.2,2.48c0,0.72,0.13,1.51,0.4,2.37c0.26,0.85,0.66,1.53,1.2,2.03c0.38,0.35,0.85,0.53,1.41,0.53c0.65,0,1.24,-0.31,1.76,-0.93c0.51,-0.62,0.77,-1.5,0.77,-2.66c0,-1.29,-0.25,-2.41,-0.77,-3.36c-0.51,-0.94,-1.24,-1.42,-2.19,-1.42c-0.28,0,-0.59,0.06,-0.92,0.18c-0.32,0.12,-0.81,0.38,-1.46,0.78" fill="#000000" stroke="none" fill-opacity="1"/>
</g>
<g fill="none" stroke-linecap="butt" stroke-width="1.38">
<path d="M1165.35,1047.24l0,-1031.49"/>
<path d="M1165.35,995.92l-8.33,0M1165.35,965.9l-8.33,0M1165.35,944.6l-8.33,0M1165.35,928.07l-8.33,0M1165.35,914.57l-8.33,0M1165.35,903.16l-8.33,0M1165.35,893.27l-8.33,0M1165.35,884.55l-8.33,0M1165.35,825.43l-8.33,0M1165.35,795.41l-8.33,0M1165.35,774.11l-8.33,0M1165.35,757.59l-8.33,0M1165.35,744.09l-8.33,0M1165.35,732.67l-8.33,0M1165.35,722.79l-8.33,0M1165.35,714.07l-8.33,0M1165.35,654.94l-8.33,0M1165.35,624.92l-8.33,0M1165.35,603.62l-8.33,0M1165.35,587.1l-8.33,0M1165.35,573.6l-8.33,0M1165.35,562.19l-8.33,0M1165.35,552.3l-8.33,0M1165.35,543.58l-8.33,0M1165.35,484.46l-8.33,0M1165.35,454.44l-8.33,0M1165.35,433.14l-8.33,0M1165.35,416.61l-8.33,0M1165.35,403.11l-8.33,0M1165.35,391.7l-8.33,0M1165.35,381.81l-8.33,0M1165.35,373.09l-8.33,0M1165.35,313.97l-8.33,0M1165.35,283.95l-8.33,0M1165.35,262.65l-8.33,0M1165.35,246.13l-8.33,0M1165.35,232.63l-8.33,0M1165.35,221.21l-8.33,0M1165.35,211.33l-8.33,0M1165.35,202.61l-8.33,0M1165.35,143.48l-8.33,0M1165.35,113.46l-8.33,0M1165.35,92.16l-8.33,0M1165.35,75.64l-8.33,0M1165.35,62.14l-8.33,0M1165.35,50.73l-8.33,0M1165.35,40.84l-8.33,0M1165.35,32.12l-8.33,0"/>
<path d="M1165.35,1047.24l-16.66,0M1165.35,876.75l-16.66,0M1165.35,706.27l-16.66,0M1165.35,535.78l-16.66,0M1165.35,365.29l-16.66,0M1165.35,194.81l-16.66,0M1165.35,24.32l-16.66,0"/>
<path d="M133.85,15.74l1031.49,0"/>
<path d="M143.44,15.74l0,8.33M164.67,15.74l0,8.33M183.07,15.74l0,8.33M199.29,15.74l0,8.33M309.29,15.74l0,8.33M365.14,15.74l0,8.33M404.77,15.74l0,8.33M435.51,15.74l0,8.33M460.62,15.74l0,8.33M481.86,15.74l0,8.33M500.25,15.74l0,8.33M516.47,15.74l0,8.33M626.47,15.74l0,8.33M682.32,15.74l0,8.33M721.95,15.74l0,8.33M752.69,15.74l0,8.33M777.8,15.74l0,8.33M799.04,15.74l0,8.33M817.43,15.74l0,8.33M833.65,15.74l0,8.33M943.65,15.74l0,8.33M999.5,15.74l0,8.33M1039.13,15.74l0,8.33M1069.87,15.74l0,8.33M1094.98,15.74l0,8.33M1116.22,15.74l0,8.33M1134.61,15.74l0,8.33M1150.84,15.74l0,8.33"/>
<path d="M213.81,15.74l0,16.66M530.99,15.74l0,16.66M848.17,15.74l0,16.66M1165.35,15.74l0,16.66"/>
</g>
</g>
</g>
</svg>
