<?xml version="1.0" standalone="no"?>
<!DOCTYPE svg PUBLIC "-//W3C//DTD SVG 1.1//EN"
  "http://www.w3.org/Graphics/SVG/1.1/DTD/svg11.dtd">
<svg width="1181.1px" height="1181.1px" version="1.1"
    xmlns="http://www.w3.org/2000/svg"
    xmlns:xlink="http://www.w3.org/1999/xlink">
<desc>Veusz output document</desc>
<defs>
<clipPath id="c0">
<path d="m0,0l1181.1,0l0,1181.1l-1181.1,0l0,-1181.1"/>
</clipPath>
<clipPath id="c1">
<path d="m133.85,15.74l1031.49,0l0,1031.49l-1031.49,0l0,-1031.49"/>
</clipPath>
</defs>
<g stroke-linejoin="bevel" stroke-linecap="square" stroke="#000000" fill-rule="evenodd">
<g clip-path="url(#c0)">
<g fill="#ffffff" stroke-width="1.38">
<path d="m133.85,15.74l1031.49,0l0,1031.49l-1031.49,0l0,-1031.49"/>
</g>
</g>
<g clip-path="url(#c1)">
<g fill="none" stroke="#377eb8" stroke-width="1.38">
<polyline fill="none" points="133.85,757.46 154.9,757.46 175.96,757.46 197.01,757.46 218.06,757.46 239.11,757.46 260.16,757.46 281.21,757.46 302.26,757.46 323.31,757.46 344.36,757.46 365.41,757.46 386.46,757.46 407.52,757.46 428.57,757.46 449.62,757.46 470.67,757.46 491.72,757.46 512.77,757.46 533.82,757.46 554.87,757.46 575.92,757.46 596.97,757.46 618.02,757.46 639.08,757.46 660.13,757.46 681.18,757.46 702.23,757.46 723.28,757.46 744.33,757.46 765.38,757.46 786.43,757.46 807.48,757.46 828.53,757.46 849.59,757.46 870.64,757.46 891.69,757.46 912.74,757.46 933.79,757.46 954.84,757.46 975.89,757.46 996.94,757.46 1017.99,757.46 1039.04,757.46 1060.09,757.46 1081.15,757.46 1102.2,757.46 1123.25,757.46 1144.3,757.46 1165.35,757.46"/>
</g>
<g fill="none" stroke="#e41a1c" stroke-linecap="butt" stroke-width="1.38">
<path d="M170.89,1001.58l0,-179.62M353.24,955.92l0,-148.62M438.02,859.11l0,-243.15M553.07,590.27l0,-222.1M735.42,289.01l0,-97.32M820.21,195.71l0,-57.13M935.25,140.09l0,-37.16M1117.6,97.74l0,-27.75"/>
</g>
<g fill="#e41a1c" stroke-linejoin="miter" stroke-width="1.38">
<g transform="translate(170.89,883.99)">
<path d="m8.33,0c0,4.6,-3.73,8.33,-8.33,8.33c-4.6,0,-8.33,-3.73,-8.33,-8.33c0,-4.6,3.73,-8.33,8.33,-8.33c4.6,0,8.33,3.73,8.33,8.33" id="p0"/>
</g>
<use xlink:href="#p0" x="353.24" y="862.2"/>
<use xlink:href="#p0" x="438.02" y="689.1"/>
<use xlink:href="#p0" x="553.07" y="438.1"/>
<use xlink:href="#p0" x="735.42" y="231.8"/>
<use xlink:href="#p0" x="820.21" y="164.16"/>
<use xlink:href="#p0" x="935.25" y="120.24"/>
<use xlink:href="#p0" x="1117.6" y="83.16"/>
</g>
</g>
<g clip-path="url(#c0)">
<g fill="none" stroke-linecap="butt" stroke-width="1.38">
<path d="M133.85,1047.24l0,-1031.49"/>
<path d="M133.85,953.17l8.33,0M133.85,898.15l8.33,0M133.85,859.11l8.33,0M133.85,828.83l8.33,0M133.85,804.08l8.33,0M133.85,783.17l8.33,0M133.85,765.04l8.33,0M133.85,749.06l8.33,0M133.85,640.7l8.33,0M133.85,585.67l8.33,0M133.85,546.63l8.33,0M133.85,516.35l8.33,0M133.85,491.61l8.33,0M133.85,470.69l8.33,0M133.85,452.57l8.33,0M133.85,436.58l8.33,0M133.85,328.22l8.33,0M133.85,273.2l8.33,0M133.85,234.16l8.33,0M133.85,203.87l8.33,0M133.85,179.13l8.33,0M133.85,158.21l8.33,0M133.85,140.09l8.33,0M133.85,124.11l8.33,0M133.85,15.74l8.33,0"/>
<path d="M133.85,1047.24l16.66,0M133.85,734.76l16.66,0M133.85,422.29l16.66,0M133.85,109.81l16.66,0"/>
</g>
<g fill="none" stroke-width="0.1">
<g transform="matrix(0 -1 1 0 34.7 692.14)">
<path d="m26.28,0l-6.87,0l-8.71,-12.04c-0.64,0.02,-1.17,0.03,-1.57,0.03c-0.16,0,-0.34,0,-0.53,0c-0.18,0,-0.38,-0.01,-0.58,-0.02l0,7.48c0,1.62,0.17,2.62,0.53,3.02c0.48,0.55,1.2,0.83,2.16,0.83l1,0l0,0.7l-11.03,0l0,-0.7l0.96,0c1.08,0,1.86,-0.35,2.33,-1.06c0.26,-0.39,0.39,-1.32,0.39,-2.79l0,-16.63c0,-1.62,-0.17,-2.62,-0.53,-3.02c-0.49,-0.55,-1.22,-0.83,-2.2,-0.83l-0.96,0l0,-0.7l9.38,0c2.73,0,4.75,0.19,6.04,0.59c1.29,0.39,2.39,1.13,3.3,2.2c0.9,1.07,1.35,2.34,1.35,3.82c0,1.58,-0.51,2.95,-1.54,4.12c-1.03,1.16,-2.63,1.98,-4.79,2.46l5.31,7.38c1.21,1.69,2.26,2.82,3.13,3.38c0.87,0.55,2.01,0.91,3.41,1.06l0,0.7m-18.29,-13.23c0.24,0,0.44,0,0.62,0c0.17,0,0.32,0,0.43,0c2.45,0,4.3,-0.53,5.55,-1.59c1.24,-1.06,1.87,-2.41,1.87,-4.06c0,-1.6,-0.5,-2.91,-1.51,-3.92c-1,-1,-2.33,-1.51,-3.99,-1.51c-0.73,0,-1.72,0.12,-2.98,0.36l0,10.71m22.04,2.39c-0.01,2.58,0.61,4.6,1.88,6.07c1.26,1.46,2.75,2.2,4.46,2.2c1.13,0,2.13,-0.31,2.97,-0.94c0.84,-0.62,1.54,-1.7,2.11,-3.21l0.58,0.37c-0.26,1.73,-1.03,3.31,-2.31,4.73c-1.27,1.42,-2.88,2.13,-4.8,2.13c-2.08,0,-3.87,-0.81,-5.36,-2.44c-1.48,-1.62,-2.23,-3.81,-2.23,-6.56c0,-2.97,0.76,-5.29,2.28,-6.96c1.52,-1.66,3.44,-2.49,5.74,-2.49c1.95,0,3.55,0.64,4.8,1.92c1.25,1.28,1.88,3,1.88,5.15l-12.02,0m0,-1.1l8.05,0c-0.06,-1.11,-0.19,-1.89,-0.39,-2.35c-0.31,-0.7,-0.78,-1.26,-1.41,-1.67c-0.62,-0.4,-1.28,-0.6,-1.96,-0.6c-1.05,0,-1.99,0.4,-2.82,1.22c-0.82,0.81,-1.31,1.95,-1.45,3.4m29.15,5.33c-0.46,2.29,-1.38,4.05,-2.75,5.28c-1.36,1.23,-2.88,1.85,-4.53,1.85c-1.97,0,-3.69,-0.82,-5.16,-2.48c-1.46,-1.65,-2.2,-3.9,-2.2,-6.72c0,-2.73,0.81,-4.95,2.44,-6.66c1.62,-1.7,3.58,-2.56,5.85,-2.56c1.7,0,3.11,0.45,4.21,1.35c1.1,0.9,1.65,1.84,1.65,2.82c0,0.48,-0.15,0.87,-0.46,1.16c-0.31,0.29,-0.74,0.44,-1.3,0.44c-0.74,0,-1.31,-0.24,-1.69,-0.72c-0.21,-0.26,-0.35,-0.77,-0.42,-1.51c-0.06,-0.74,-0.32,-1.31,-0.76,-1.7c-0.44,-0.37,-1.05,-0.56,-1.84,-0.56c-1.26,0,-2.28,0.46,-3.05,1.4c-1.02,1.24,-1.53,2.88,-1.53,4.91c0,2.07,0.5,3.9,1.52,5.49c1.01,1.58,2.39,2.38,4.13,2.38c1.24,0,2.35,-0.42,3.34,-1.27c0.69,-0.58,1.37,-1.63,2.03,-3.17l0.55,0.26m11.03,-11.3c2.63,0,4.74,1,6.34,3c1.35,1.7,2.03,3.67,2.03,5.88c0,1.55,-0.37,3.13,-1.12,4.72c-0.74,1.59,-1.77,2.79,-3.08,3.6c-1.31,0.81,-2.77,1.21,-4.37,1.21c-2.62,0,-4.7,-1.04,-6.24,-3.13c-1.3,-1.76,-1.95,-3.73,-1.95,-5.92c0,-1.59,0.39,-3.18,1.18,-4.75c0.79,-1.57,1.83,-2.74,3.12,-3.49c1.29,-0.75,2.65,-1.13,4.1,-1.13m-0.58,1.23c-0.67,0,-1.34,0.19,-2.02,0.59c-0.67,0.39,-1.22,1.09,-1.64,2.09c-0.41,1,-0.62,2.28,-0.62,3.85c0,2.53,0.5,4.71,1.51,6.55c1,1.83,2.33,2.75,3.97,2.75c1.22,0,2.24,-0.5,3.03,-1.51c0.79,-1.01,1.19,-2.75,1.19,-5.22c0,-3.08,-0.66,-5.52,-1.99,-7.29c-0.89,-1.21,-2.04,-1.82,-3.43,-1.82m16.65,2.45c2.03,-2.45,3.98,-3.68,5.83,-3.68c0.94,0,1.76,0.23,2.45,0.71c0.68,0.47,1.22,1.25,1.63,2.34c0.27,0.75,0.41,1.92,0.41,3.49l0,7.42c0,1.1,0.08,1.84,0.26,2.24c0.13,0.31,0.36,0.56,0.67,0.74c0.31,0.17,0.88,0.26,1.71,0.26l0,0.68l-8.6,0l0,-0.68l0.36,0c0.81,0,1.37,-0.12,1.7,-0.37c0.32,-0.24,0.54,-0.61,0.67,-1.09c0.05,-0.18,0.07,-0.78,0.07,-1.78l0,-7.12c0,-1.58,-0.2,-2.73,-0.61,-3.44c-0.41,-0.71,-1.1,-1.07,-2.07,-1.07c-1.5,0,-3,0.82,-4.5,2.46l0,9.17c0,1.17,0.06,1.9,0.2,2.18c0.17,0.36,0.42,0.63,0.73,0.8c0.31,0.17,0.94,0.25,1.88,0.25l0,0.68l-8.6,0l0,-0.68l0.37,0c0.88,0,1.48,-0.22,1.79,-0.67c0.31,-0.44,0.46,-1.3,0.46,-2.57l0,-6.45c0,-2.08,-0.04,-3.36,-0.14,-3.81c-0.09,-0.45,-0.24,-0.76,-0.43,-0.93c-0.19,-0.16,-0.45,-0.24,-0.78,-0.24c-0.35,0,-0.77,0.09,-1.27,0.28l-0.28,-0.68l5.24,-2.12l0.81,0l0,3.68m25.67,-3.68l0,5.92l-0.62,0c-0.48,-1.86,-1.09,-3.12,-1.85,-3.79c-0.75,-0.67,-1.71,-1,-2.87,-1c-0.88,0,-1.6,0.23,-2.14,0.7c-0.54,0.46,-0.81,0.98,-0.81,1.55c0,0.7,0.2,1.31,0.6,1.82c0.39,0.51,1.19,1.07,2.39,1.65l2.77,1.34c2.57,1.25,3.85,2.9,3.85,4.95c0,1.58,-0.59,2.85,-1.79,3.82c-1.19,0.96,-2.53,1.45,-4.01,1.45c-1.06,0,-2.27,-0.18,-3.64,-0.56c-0.41,-0.12,-0.75,-0.18,-1.02,-0.18c-0.29,0,-0.51,0.16,-0.68,0.49l-0.62,0l0,-6.21l0.62,0c0.35,1.77,1.03,3.1,2.03,4c1,0.89,2.12,1.34,3.36,1.34c0.87,0,1.58,-0.25,2.13,-0.76c0.55,-0.51,0.82,-1.13,0.82,-1.85c0,-0.87,-0.3,-1.6,-0.92,-2.2c-0.61,-0.59,-1.83,-1.34,-3.67,-2.26c-1.83,-0.91,-3.03,-1.73,-3.6,-2.46c-0.56,-0.72,-0.85,-1.63,-0.85,-2.73c0,-1.43,0.49,-2.62,1.47,-3.58c0.98,-0.96,2.25,-1.44,3.8,-1.44c0.68,0,1.51,0.14,2.48,0.43c0.64,0.18,1.07,0.28,1.29,0.28c0.2,0,0.36,-0.04,0.47,-0.13c0.11,-0.08,0.24,-0.28,0.39,-0.58l0.62,0m8.9,-5.2l0,5.71l4.06,0l0,1.32l-4.06,0l0,11.28c0,1.12,0.16,1.88,0.48,2.27c0.32,0.39,0.73,0.58,1.24,0.58c0.41,0,0.82,-0.12,1.21,-0.38c0.39,-0.25,0.69,-0.64,0.91,-1.14l0.74,0c-0.44,1.24,-1.07,2.17,-1.88,2.8c-0.81,0.62,-1.64,0.94,-2.5,0.94c-0.58,0,-1.15,-0.16,-1.7,-0.48c-0.55,-0.32,-0.96,-0.78,-1.23,-1.38c-0.26,-0.6,-0.39,-1.52,-0.39,-2.78l0,-11.7l-2.75,0l0,-0.62c0.69,-0.27,1.4,-0.75,2.13,-1.41c0.72,-0.66,1.37,-1.45,1.94,-2.36c0.29,-0.48,0.69,-1.36,1.21,-2.64l0.58,0m10.83,5.2l0,3.91c1.45,-2.6,2.95,-3.91,4.48,-3.91c0.69,0,1.27,0.21,1.72,0.63c0.45,0.42,0.68,0.91,0.68,1.47c0,0.49,-0.16,0.91,-0.49,1.25c-0.32,0.34,-0.72,0.51,-1.17,0.51c-0.44,0,-0.94,-0.21,-1.49,-0.65c-0.55,-0.43,-0.95,-0.65,-1.22,-0.65c-0.22,0,-0.47,0.12,-0.74,0.37c-0.56,0.51,-1.15,1.37,-1.76,2.56l0,8.33c0,0.96,0.12,1.69,0.36,2.18c0.16,0.34,0.45,0.62,0.87,0.85c0.41,0.22,1.01,0.34,1.8,0.34l0,0.68l-8.9,0l0,-0.68c0.88,0,1.54,-0.13,1.97,-0.41c0.31,-0.2,0.53,-0.52,0.66,-0.96c0.06,-0.21,0.09,-0.82,0.09,-1.84l0,-6.74c0,-2.02,-0.04,-3.23,-0.12,-3.61c-0.08,-0.38,-0.23,-0.66,-0.45,-0.84c-0.22,-0.17,-0.49,-0.26,-0.82,-0.26c-0.39,0,-0.83,0.09,-1.32,0.28l-0.18,-0.68l5.26,-2.12l0.79,0m23.16,0.51l0,10.54c0,2.01,0.04,3.24,0.14,3.69c0.09,0.44,0.24,0.76,0.45,0.94c0.2,0.17,0.45,0.26,0.73,0.26c0.39,0,0.83,-0.1,1.32,-0.32l0.26,0.66l-5.2,2.14l-0.85,0l0,-3.68c-1.49,1.62,-2.63,2.64,-3.41,3.05c-0.78,0.41,-1.61,0.62,-2.48,0.62c-0.97,0,-1.82,-0.28,-2.53,-0.84c-0.71,-0.56,-1.21,-1.28,-1.49,-2.17c-0.27,-0.88,-0.41,-2.14,-0.41,-3.76l0,-7.76c0,-0.82,-0.08,-1.39,-0.26,-1.7c-0.17,-0.31,-0.44,-0.56,-0.78,-0.73c-0.34,-0.17,-0.97,-0.25,-1.88,-0.23l0,-0.7l6.09,0l0,11.64c0,1.62,0.28,2.68,0.84,3.19c0.56,0.5,1.24,0.75,2.04,0.75c0.54,0,1.16,-0.17,1.85,-0.51c0.69,-0.34,1.51,-0.99,2.45,-1.95l0,-9.85c0,-0.98,-0.18,-1.65,-0.54,-2c-0.36,-0.34,-1.11,-0.53,-2.25,-0.56l0,-0.7l5.92,0m19.02,10.78c-0.46,2.29,-1.38,4.05,-2.75,5.28c-1.36,1.23,-2.88,1.85,-4.53,1.85c-1.97,0,-3.69,-0.82,-5.16,-2.48c-1.46,-1.65,-2.2,-3.9,-2.2,-6.72c0,-2.73,0.81,-4.95,2.44,-6.66c1.62,-1.7,3.58,-2.56,5.85,-2.56c1.7,0,3.11,0.45,4.21,1.35c1.1,0.9,1.65,1.84,1.65,2.82c0,0.48,-0.15,0.87,-0.46,1.16c-0.31,0.29,-0.74,0.44,-1.3,0.44c-0.74,0,-1.31,-0.24,-1.69,-0.72c-0.21,-0.26,-0.35,-0.77,-0.42,-1.51c-0.06,-0.74,-0.32,-1.31,-0.76,-1.7c-0.44,-0.37,-1.05,-0.56,-1.84,-0.56c-1.26,0,-2.28,0.46,-3.05,1.4c-1.02,1.24,-1.53,2.88,-1.53,4.91c0,2.07,0.5,3.9,1.52,5.49c1.01,1.58,2.39,2.38,4.13,2.38c1.24,0,2.35,-0.42,3.34,-1.27c0.69,-0.58,1.37,-1.63,2.03,-3.17l0.55,0.26m7.57,-16.5l0,5.71l4.06,0l0,1.32l-4.06,0l0,11.28c0,1.12,0.16,1.88,0.48,2.27c0.32,0.39,0.73,0.58,1.24,0.58c0.41,0,0.82,-0.12,1.21,-0.38c0.39,-0.25,0.69,-0.64,0.91,-1.14l0.74,0c-0.44,1.24,-1.07,2.17,-1.88,2.8c-0.81,0.62,-1.64,0.94,-2.5,0.94c-0.58,0,-1.15,-0.16,-1.7,-0.48c-0.55,-0.32,-0.96,-0.78,-1.23,-1.38c-0.26,-0.6,-0.39,-1.52,-0.39,-2.78l0,-11.7l-2.75,0l0,-0.62c0.69,-0.27,1.4,-0.75,2.13,-1.41c0.72,-0.66,1.37,-1.45,1.94,-2.36c0.29,-0.48,0.69,-1.36,1.21,-2.64l0.58,0m10.17,-3.89c0.53,0,0.98,0.18,1.35,0.56c0.37,0.37,0.56,0.82,0.56,1.35c0,0.53,-0.18,0.98,-0.56,1.36c-0.37,0.37,-0.82,0.56,-1.35,0.56c-0.53,0,-0.98,-0.18,-1.36,-0.56c-0.37,-0.37,-0.56,-0.83,-0.56,-1.36c0,-0.53,0.18,-0.98,0.56,-1.35c0.37,-0.37,0.83,-0.56,1.37,-0.56m1.57,9.09l0,13.97c0,1.08,0.07,1.81,0.23,2.17c0.15,0.36,0.39,0.63,0.7,0.8c0.31,0.17,0.87,0.26,1.7,0.26l0,0.68l-8.45,0l0,-0.68c0.84,0,1.41,-0.08,1.7,-0.24c0.29,-0.16,0.52,-0.43,0.69,-0.81c0.17,-0.37,0.25,-1.1,0.25,-2.18l0,-6.7c0,-1.88,-0.05,-3.1,-0.17,-3.66c-0.08,-0.4,-0.22,-0.68,-0.41,-0.84c-0.18,-0.15,-0.44,-0.23,-0.77,-0.23c-0.35,0,-0.78,0.09,-1.29,0.28l-0.26,-0.68l5.24,-2.12l0.83,0m13.3,0c2.63,0,4.74,1,6.34,3c1.35,1.7,2.03,3.67,2.03,5.88c0,1.55,-0.37,3.13,-1.12,4.72c-0.74,1.59,-1.77,2.79,-3.08,3.6c-1.31,0.81,-2.77,1.21,-4.37,1.21c-2.62,0,-4.7,-1.04,-6.24,-3.13c-1.3,-1.76,-1.95,-3.73,-1.95,-5.92c0,-1.59,0.39,-3.18,1.18,-4.75c0.79,-1.57,1.83,-2.74,3.12,-3.49c1.29,-0.75,2.65,-1.13,4.1,-1.13m-0.58,1.23c-0.67,0,-1.34,0.19,-2.02,0.59c-0.67,0.39,-1.22,1.09,-1.64,2.09c-0.41,1,-0.62,2.28,-0.62,3.85c0,2.53,0.5,4.71,1.51,6.55c1,1.83,2.33,2.75,3.97,2.75c1.22,0,2.24,-0.5,3.03,-1.51c0.79,-1.01,1.19,-2.75,1.19,-5.22c0,-3.08,-0.66,-5.52,-1.99,-7.29c-0.89,-1.21,-2.04,-1.82,-3.43,-1.82m16.65,2.45c2.03,-2.45,3.98,-3.68,5.83,-3.68c0.94,0,1.76,0.23,2.45,0.71c0.68,0.47,1.22,1.25,1.63,2.34c0.27,0.75,0.41,1.92,0.41,3.49l0,7.42c0,1.1,0.08,1.84,0.26,2.24c0.13,0.31,0.36,0.56,0.67,0.74c0.31,0.17,0.88,0.26,1.71,0.26l0,0.68l-8.6,0l0,-0.68l0.36,0c0.81,0,1.37,-0.12,1.7,-0.37c0.32,-0.24,0.54,-0.61,0.67,-1.09c0.05,-0.18,0.07,-0.78,0.07,-1.78l0,-7.12c0,-1.58,-0.2,-2.73,-0.61,-3.44c-0.41,-0.71,-1.1,-1.07,-2.07,-1.07c-1.5,0,-3,0.82,-4.5,2.46l0,9.17c0,1.17,0.06,1.9,0.2,2.18c0.17,0.36,0.42,0.63,0.73,0.8c0.31,0.17,0.94,0.25,1.88,0.25l0,0.68l-8.6,0l0,-0.68l0.37,0c0.88,0,1.48,-0.22,1.79,-0.67c0.31,-0.44,0.46,-1.3,0.46,-2.57l0,-6.45c0,-2.08,-0.04,-3.36,-0.14,-3.81c-0.09,-0.45,-0.24,-0.76,-0.43,-0.93c-0.19,-0.16,-0.45,-0.24,-0.78,-0.24c-0.35,0,-0.77,0.09,-1.27,0.28l-0.28,-0.68l5.24,-2.12l0.81,0l0,3.68m27.05,3.38c-0.01,2.58,0.61,4.6,1.88,6.07c1.26,1.46,2.75,2.2,4.46,2.2c1.13,0,2.13,-0.31,2.97,-0.94c0.84,-0.62,1.54,-1.7,2.11,-3.21l0.58,0.37c-0.26,1.73,-1.03,3.31,-2.31,4.73c-1.27,1.42,-2.88,2.13,-4.8,2.13c-2.08,0,-3.87,-0.81,-5.36,-2.44c-1.48,-1.62,-2.23,-3.81,-2.23,-6.56c0,-2.97,0.76,-5.29,2.28,-6.96c1.52,-1.66,3.44,-2.49,5.74,-2.49c1.95,0,3.55,0.64,4.8,1.92c1.25,1.28,1.88,3,1.88,5.15l-12.02,0m0,-1.1l8.05,0c-0.06,-1.11,-0.19,-1.89,-0.39,-2.35c-0.31,-0.7,-0.78,-1.26,-1.41,-1.67c-0.62,-0.4,-1.28,-0.6,-1.96,-0.6c-1.05,0,-1.99,0.4,-2.82,1.22c-0.82,0.81,-1.31,1.95,-1.45,3.4m19.46,-5.96l0,3.91c1.45,-2.6,2.95,-3.91,4.48,-3.91c0.69,0,1.27,0.21,1.72,0.63c0.45,0.42,0.68,0.91,0.68,1.47c0,0.49,-0.16,0.91,-0.49,1.25c-0.32,0.34,-0.72,0.51,-1.17,0.51c-0.44,0,-0.94,-0.21,-1.49,-0.65c-0.55,-0.43,-0.95,-0.65,-1.22,-0.65c-0.22,0,-0.47,0.12,-0.74,0.37c-0.56,0.51,-1.15,1.37,-1.76,2.56l0,8.33c0,0.96,0.12,1.69,0.36,2.18c0.16,0.34,0.45,0.62,0.87,0.85c0.41,0.22,1.01,0.34,1.8,0.34l0,0.68l-8.9,0l0,-0.68c0.88,0,1.54,-0.13,1.97,-0.41c0.31,-0.2,0.53,-0.52,0.66,-0.96c0.06,-0.21,0.09,-0.82,0.09,-1.84l0,-6.74c0,-2.02,-0.04,-3.23,-0.12,-3.61c-0.08,-0.38,-0.23,-0.66,-0.45,-0.84c-0.22,-0.17,-0.49,-0.26,-0.82,-0.26c-0.39,0,-0.83,0.09,-1.32,0.28l-0.18,-0.68l5.26,-2.12l0.79,0m13,0l0,3.91c1.45,-2.6,2.95,-3.91,4.48,-3.91c0.69,0,1.27,0.21,1.72,0.63c0.45,0.42,0.68,0.91,0.68,1.47c0,0.49,-0.16,0.91,-0.49,1.25c-0.32,0.34,-0.72,0.51,-1.17,0.51c-0.44,0,-0.94,-0.21,-1.49,-0.65c-0.55,-0.43,-0.95,-0.65,-1.22,-0.65c-0.22,0,-0.47,0.12,-0.74,0.37c-0.56,0.51,-1.15,1.37,-1.76,2.56l0,8.33c0,0.96,0.12,1.69,0.36,2.18c0.16,0.34,0.45,0.62,0.87,0.85c0.41,0.22,1.01,0.34,1.8,0.34l0,0.68l-8.9,0l0,-0.68c0.88,0,1.54,-0.13,1.97,-0.41c0.31,-0.2,0.53,-0.52,0.66,-0.96c0.06,-0.21,0.09,-0.82,0.09,-1.84l0,-6.74c0,-2.02,-0.04,-3.23,-0.12,-3.61c-0.08,-0.38,-0.23,-0.66,-0.45,-0.84c-0.22,-0.17,-0.49,-0.26,-0.82,-0.26c-0.39,0,-0.83,0.09,-1.32,0.28l-0.18,-0.68l5.26,-2.12l0.79,0m16.41,0c2.63,0,4.74,1,6.34,3c1.35,1.7,2.03,3.67,2.03,5.88c0,1.55,-0.37,3.13,-1.12,4.72c-0.74,1.59,-1.77,2.79,-3.08,3.6c-1.31,0.81,-2.77,1.21,-4.37,1.21c-2.62,0,-4.7,-1.04,-6.24,-3.13c-1.3,-1.76,-1.95,-3.73,-1.95,-5.92c0,-1.59,0.39,-3.18,1.18,-4.75c0.79,-1.57,1.83,-2.74,3.12,-3.49c1.29,-0.75,2.65,-1.13,4.1,-1.13m-0.58,1.23c-0.67,0,-1.34,0.19,-2.02,0.59c-0.67,0.39,-1.22,1.09,-1.64,2.09c-0.41,1,-0.62,2.28,-0.62,3.85c0,2.53,0.5,4.71,1.51,6.55c1,1.83,2.33,2.75,3.97,2.75c1.22,0,2.24,-0.5,3.03,-1.51c0.79,-1.01,1.19,-2.75,1.19,-5.22c0,-3.08,-0.66,-5.52,-1.99,-7.29c-0.89,-1.21,-2.04,-1.82,-3.43,-1.82m16.66,-1.23l0,3.91c1.45,-2.6,2.95,-3.91,4.48,-3.91c0.69,0,1.27,0.21,1.72,0.63c0.45,0.42,0.68,0.91,0.68,1.47c0,0.49,-0.16,0.91,-0.49,1.25c-0.32,0.34,-0.72,0.51,-1.17,0.51c-0.44,0,-0.94,-0.21,-1.49,-0.65c-0.55,-0.43,-0.95,-0.65,-1.22,-0.65c-0.22,0,-0.47,0.12,-0.74,0.37c-0.56,0.51,-1.15,1.37,-1.76,2.56l0,8.33c0,0.96,0.12,1.69,0.36,2.18c0.16,0.34,0.45,0.62,0.87,0.85c0.41,0.22,1.01,0.34,1.8,0.34l0,0.68l-8.9,0l0,-0.68c0.88,0,1.54,-0.13,1.97,-0.41c0.31,-0.2,0.53,-0.52,0.66,-0.96c0.06,-0.21,0.09,-0.82,0.09,-1.84l0,-6.74c0,-2.02,-0.04,-3.23,-0.12,-3.61c-0.08,-0.38,-0.23,-0.66,-0.45,-0.84c-0.22,-0.17,-0.49,-0.26,-0.82,-0.26c-0.39,0,-0.83,0.09,-1.32,0.28l-0.18,-0.68l5.26,-2.12l0.79,0" fill="#000000" stroke="none" fill-opacity="1"/>
</g>
<path d="m64.51,1037.31l6.26,-3.05l0.62,0l0,21.74c0,1.44,0.06,2.34,0.18,2.69c0.12,0.35,0.37,0.62,0.75,0.81c0.37,0.18,1.15,0.29,2.31,0.32l0,0.7l-9.68,0l0,-0.7c1.21,-0.02,2,-0.12,2.35,-0.31c0.35,-0.18,0.6,-0.43,0.74,-0.74c0.13,-0.31,0.2,-1.23,0.2,-2.78l0,-13.9c0,-1.87,-0.06,-3.07,-0.18,-3.6c-0.08,-0.4,-0.25,-0.7,-0.48,-0.89c-0.23,-0.18,-0.51,-0.28,-0.84,-0.28c-0.46,0,-1.12,0.19,-1.95,0.58l-0.28,-0.58m16.34,10.5c0,-2.93,0.44,-5.46,1.32,-7.58c0.88,-2.12,2.06,-3.7,3.53,-4.73c1.13,-0.82,2.31,-1.23,3.53,-1.23c1.97,0,3.74,1,5.31,3.02c1.96,2.49,2.94,5.87,2.94,10.14c0,2.98,-0.43,5.52,-1.29,7.61c-0.86,2.08,-1.95,3.6,-3.29,4.54c-1.33,0.94,-2.62,1.41,-3.86,1.41c-2.45,0,-4.5,-1.44,-6.13,-4.34c-1.38,-2.44,-2.07,-5.38,-2.07,-8.83m3.72,0.47c0,3.54,0.43,6.43,1.31,8.68c0.72,1.88,1.79,2.83,3.22,2.83c0.68,0,1.39,-0.3,2.12,-0.92c0.73,-0.61,1.29,-1.64,1.67,-3.08c0.58,-2.17,0.87,-5.24,0.87,-9.21c0,-2.93,-0.3,-5.38,-0.91,-7.35c-0.45,-1.45,-1.04,-2.48,-1.76,-3.09c-0.51,-0.41,-1.14,-0.62,-1.88,-0.62c-0.86,0,-1.62,0.38,-2.29,1.15c-0.91,1.05,-1.53,2.7,-1.86,4.95c-0.32,2.25,-0.49,4.47,-0.49,6.66" fill="#000000" stroke="none" fill-opacity="1"/>
<path d="m111.64,1036.02l-12.26,0l0,-0.93l12.26,0l0,0.93m11.25,1.59l0,1.61l-2.07,0l0,4.07l-1.87,0l0,-4.07l-6.53,0l0,-1.45l7.15,-10.21l1.25,0l0,10.05l2.07,0m-3.94,0l0,-7.65l-5.41,7.65l5.41,0" fill="#000000" stroke="none" fill-opacity="1"/>
<path d="m64.51,724.83l6.26,-3.05l0.62,0l0,21.74c0,1.44,0.06,2.34,0.18,2.69c0.12,0.35,0.37,0.62,0.75,0.81c0.37,0.18,1.15,0.29,2.31,0.32l0,0.7l-9.68,0l0,-0.7c1.21,-0.02,2,-0.12,2.35,-0.31c0.35,-0.18,0.6,-0.43,0.74,-0.74c0.13,-0.31,0.2,-1.23,0.2,-2.78l0,-13.9c0,-1.87,-0.06,-3.07,-0.18,-3.6c-0.08,-0.4,-0.25,-0.7,-0.48,-0.89c-0.23,-0.18,-0.51,-0.28,-0.84,-0.28c-0.46,0,-1.12,0.19,-1.95,0.58l-0.28,-0.58m16.34,10.5c0,-2.93,0.44,-5.46,1.32,-7.58c0.88,-2.12,2.06,-3.7,3.53,-4.73c1.13,-0.82,2.31,-1.23,3.53,-1.23c1.97,0,3.74,1,5.31,3.02c1.96,2.49,2.94,5.87,2.94,10.14c0,2.98,-0.43,5.52,-1.29,7.61c-0.86,2.08,-1.95,3.6,-3.29,4.54c-1.33,0.94,-2.62,1.41,-3.86,1.41c-2.45,0,-4.5,-1.44,-6.13,-4.34c-1.38,-2.44,-2.07,-5.38,-2.07,-8.83m3.72,0.47c0,3.54,0.43,6.43,1.31,8.68c0.72,1.88,1.79,2.83,3.22,2.83c0.68,0,1.39,-0.3,2.12,-0.92c0.73,-0.61,1.29,-1.64,1.67,-3.08c0.58,-2.17,0.87,-5.24,0.87,-9.21c0,-2.93,-0.3,-5.38,-0.91,-7.35c-0.45,-1.45,-1.04,-2.48,-1.76,-3.09c-0.51,-0.41,-1.14,-0.62,-1.88,-0.62c-0.86,0,-1.62,0.38,-2.29,1.15c-0.91,1.05,-1.53,2.7,-1.86,4.95c-0.32,2.25,-0.49,4.47,-0.49,6.66" fill="#000000" stroke="none" fill-opacity="1"/>
<path d="m111.64,723.54l-12.26,0l0,-0.93l12.26,0l0,0.93m1.59,-5.21c0.43,-1.03,0.99,-1.84,1.66,-2.4c0.67,-0.56,1.5,-0.84,2.5,-0.84c1.23,0,2.18,0.4,2.84,1.2c0.5,0.59,0.75,1.24,0.75,1.92c0,1.12,-0.7,2.28,-2.11,3.48c0.94,0.37,1.66,0.9,2.15,1.59c0.48,0.69,0.72,1.5,0.72,2.43c0,1.33,-0.42,2.49,-1.27,3.47c-1.1,1.27,-2.71,1.91,-4.81,1.91c-1.03,0,-1.74,-0.12,-2.12,-0.38c-0.37,-0.25,-0.56,-0.53,-0.56,-0.83c0,-0.22,0.08,-0.41,0.26,-0.58c0.17,-0.16,0.39,-0.25,0.64,-0.25c0.18,0,0.38,0.03,0.58,0.09c0.12,0.03,0.42,0.17,0.87,0.41c0.45,0.23,0.76,0.38,0.94,0.42c0.28,0.08,0.58,0.12,0.89,0.12c0.77,0,1.44,-0.29,2.01,-0.89c0.57,-0.59,0.85,-1.3,0.85,-2.12c0,-0.59,-0.13,-1.18,-0.39,-1.75c-0.19,-0.42,-0.41,-0.74,-0.64,-0.96c-0.32,-0.3,-0.77,-0.57,-1.34,-0.82c-0.56,-0.24,-1.14,-0.36,-1.74,-0.36l-0.36,0l0,-0.34c0.59,-0.07,1.2,-0.29,1.8,-0.64c0.6,-0.35,1.04,-0.78,1.31,-1.28c0.27,-0.5,0.4,-1.05,0.4,-1.64c0,-0.78,-0.24,-1.41,-0.73,-1.89c-0.48,-0.48,-1.09,-0.72,-1.82,-0.72c-1.17,0,-2.15,0.62,-2.94,1.88l-0.37,-0.18" fill="#000000" stroke="none" fill-opacity="1"/>
<path d="m56.96,422.86c0,-2.93,0.44,-5.46,1.32,-7.58c0.88,-2.12,2.06,-3.7,3.53,-4.73c1.13,-0.82,2.31,-1.23,3.53,-1.23c1.97,0,3.74,1,5.31,3.02c1.96,2.49,2.94,5.87,2.94,10.14c0,2.98,-0.43,5.52,-1.29,7.61c-0.86,2.08,-1.95,3.6,-3.29,4.54c-1.33,0.94,-2.62,1.41,-3.86,1.41c-2.45,0,-4.5,-1.44,-6.13,-4.34c-1.38,-2.44,-2.07,-5.38,-2.07,-8.83m3.72,0.47c0,3.54,0.43,6.43,1.31,8.68c0.72,1.88,1.79,2.83,3.22,2.83c0.68,0,1.39,-0.3,2.12,-0.92c0.73,-0.61,1.29,-1.64,1.67,-3.08c0.58,-2.17,0.87,-5.24,0.87,-9.21c0,-2.93,-0.3,-5.38,-0.91,-7.35c-0.45,-1.45,-1.04,-2.48,-1.76,-3.09c-0.51,-0.41,-1.14,-0.62,-1.88,-0.62c-0.86,0,-1.62,0.38,-2.29,1.15c-0.91,1.05,-1.53,2.7,-1.86,4.95c-0.32,2.25,-0.49,4.47,-0.49,6.66m16.46,18.72l0,-0.83c1.3,-0.43,2.31,-1.09,3.02,-2c0.71,-0.9,1.07,-1.86,1.07,-2.87c0,-0.24,-0.05,-0.44,-0.17,-0.6c-0.08,-0.11,-0.17,-0.17,-0.26,-0.17c-0.13,0,-0.44,0.12,-0.91,0.37c-0.22,0.11,-0.46,0.17,-0.72,0.17c-0.62,0,-1.11,-0.18,-1.48,-0.55c-0.36,-0.36,-0.55,-0.87,-0.55,-1.51c0,-0.62,0.23,-1.15,0.71,-1.59c0.47,-0.44,1.05,-0.66,1.73,-0.66c0.83,0,1.57,0.36,2.23,1.09c0.65,0.72,0.97,1.69,0.97,2.89c0,1.3,-0.45,2.51,-1.35,3.63c-0.9,1.12,-2.33,2,-4.3,2.64m9.01,-19.2c0,-2.93,0.44,-5.46,1.32,-7.58c0.88,-2.12,2.06,-3.7,3.53,-4.73c1.13,-0.82,2.31,-1.23,3.53,-1.23c1.97,0,3.74,1,5.31,3.02c1.96,2.49,2.94,5.87,2.94,10.14c0,2.98,-0.43,5.52,-1.29,7.61c-0.86,2.08,-1.95,3.6,-3.29,4.54c-1.33,0.94,-2.62,1.41,-3.86,1.41c-2.45,0,-4.5,-1.44,-6.13,-4.34c-1.38,-2.44,-2.07,-5.38,-2.07,-8.83m3.72,0.47c0,3.54,0.43,6.43,1.31,8.68c0.72,1.88,1.79,2.83,3.22,2.83c0.68,0,1.39,-0.3,2.12,-0.92c0.73,-0.61,1.29,-1.64,1.67,-3.08c0.58,-2.17,0.87,-5.24,0.87,-9.21c0,-2.93,-0.3,-5.38,-0.91,-7.35c-0.45,-1.45,-1.04,-2.48,-1.76,-3.09c-0.51,-0.41,-1.14,-0.62,-1.88,-0.62c-0.86,0,-1.62,0.38,-2.29,1.15c-0.91,1.05,-1.53,2.7,-1.86,4.95c-0.32,2.25,-0.49,4.47,-0.49,6.66m18.93,-10.97l6.26,-3.05l0.62,0l0,21.74c0,1.44,0.06,2.34,0.18,2.69c0.12,0.35,0.37,0.62,0.75,0.81c0.37,0.18,1.15,0.29,2.31,0.32l0,0.7l-9.68,0l0,-0.7c1.21,-0.02,2,-0.12,2.35,-0.31c0.35,-0.18,0.6,-0.43,0.74,-0.74c0.13,-0.31,0.2,-1.23,0.2,-2.78l0,-13.9c0,-1.87,-0.06,-3.07,-0.18,-3.6c-0.08,-0.4,-0.25,-0.7,-0.48,-0.89c-0.23,-0.18,-0.51,-0.28,-0.84,-0.28c-0.46,0,-1.12,0.19,-1.95,0.58l-0.28,-0.58" fill="#000000" stroke="none" fill-opacity="1"/>
<path d="m76.46,110.38c0,-2.93,0.44,-5.46,1.32,-7.58c0.88,-2.12,2.06,-3.7,3.53,-4.73c1.13,-0.82,2.31,-1.23,3.53,-1.23c1.97,0,3.74,1,5.31,3.02c1.96,2.49,2.94,5.87,2.94,10.14c0,2.98,-0.43,5.52,-1.29,7.61c-0.86,2.08,-1.95,3.6,-3.29,4.54c-1.33,0.94,-2.62,1.41,-3.86,1.41c-2.45,0,-4.5,-1.44,-6.13,-4.34c-1.38,-2.44,-2.07,-5.38,-2.07,-8.83m3.72,0.47c0,3.54,0.43,6.43,1.31,8.68c0.72,1.88,1.79,2.83,3.22,2.83c0.68,0,1.39,-0.3,2.12,-0.92c0.73,-0.61,1.29,-1.64,1.67,-3.08c0.58,-2.17,0.87,-5.24,0.87,-9.21c0,-2.93,-0.3,-5.38,-0.91,-7.35c-0.45,-1.45,-1.04,-2.48,-1.76,-3.09c-0.51,-0.41,-1.14,-0.62,-1.88,-0.62c-0.86,0,-1.62,0.38,-2.29,1.15c-0.91,1.05,-1.53,2.7,-1.86,4.95c-0.32,2.25,-0.49,4.47,-0.49,6.66m16.46,18.72l0,-0.83c1.3,-0.43,2.31,-1.09,3.02,-2c0.71,-0.9,1.07,-1.86,1.07,-2.87c0,-0.24,-0.05,-0.44,-0.17,-0.6c-0.08,-0.11,-0.17,-0.17,-0.26,-0.17c-0.13,0,-0.44,0.12,-0.91,0.37c-0.22,0.11,-0.46,0.17,-0.72,0.17c-0.62,0,-1.11,-0.18,-1.48,-0.55c-0.36,-0.36,-0.55,-0.87,-0.55,-1.51c0,-0.62,0.23,-1.15,0.71,-1.59c0.47,-0.44,1.05,-0.66,1.73,-0.66c0.83,0,1.57,0.36,2.23,1.09c0.65,0.72,0.97,1.69,0.97,2.89c0,1.3,-0.45,2.51,-1.35,3.63c-0.9,1.12,-2.33,2,-4.3,2.64m12.16,-29.7l6.26,-3.05l0.62,0l0,21.74c0,1.44,0.06,2.34,0.18,2.69c0.12,0.35,0.37,0.62,0.75,0.81c0.37,0.18,1.15,0.29,2.31,0.32l0,0.7l-9.68,0l0,-0.7c1.21,-0.02,2,-0.12,2.35,-0.31c0.35,-0.18,0.6,-0.43,0.74,-0.74c0.13,-0.31,0.2,-1.23,0.2,-2.78l0,-13.9c0,-1.87,-0.06,-3.07,-0.18,-3.6c-0.08,-0.4,-0.25,-0.7,-0.48,-0.89c-0.23,-0.18,-0.51,-0.28,-0.84,-0.28c-0.46,0,-1.12,0.19,-1.95,0.58l-0.28,-0.58" fill="#000000" stroke="none" fill-opacity="1"/>
</g>
<g fill="none" stroke-linecap="butt" stroke-width="1.38">
<path d="M133.85,1047.24l1031.49,0"/>
<path d="M133.85,1047.24l0,-8.33M153.4,1047.24l0,-8.33M285.94,1047.24l0,-8.33M353.24,1047.24l0,-8.33M400.99,1047.24l0,-8.33M438.02,1047.24l0,-8.33M468.29,1047.24l0,-8.33M493.87,1047.24l0,-8.33M516.03,1047.24l0,-8.33M535.58,1047.24l0,-8.33M668.12,1047.24l0,-8.33M735.42,1047.24l0,-8.33M783.17,1047.24l0,-8.33M820.21,1047.24l0,-8.33M850.47,1047.24l0,-8.33M876.05,1047.24l0,-8.33M898.22,1047.24l0,-8.33M917.77,1047.24l0,-8.33M1050.3,1047.24l0,-8.33M1117.6,1047.24l0,-8.33M1165.35,1047.24l0,-8.33"/>
<path d="M170.89,1047.24l0,-16.66M553.07,1047.24l0,-16.66M935.25,1047.24l0,-16.66"/>
</g>
<g fill="none" stroke-width="0.1">
<path d="m402.83,1134.88l0,7.5c0,1.62,0.17,2.62,0.53,3.02c0.48,0.55,1.2,0.83,2.18,0.83l0.98,0l0,0.7l-11.03,0l0,-0.7l0.96,0c1.08,0,1.86,-0.35,2.33,-1.06c0.25,-0.39,0.37,-1.32,0.37,-2.79l0,-16.63c0,-1.62,-0.17,-2.62,-0.51,-3.02c-0.49,-0.55,-1.22,-0.83,-2.2,-0.83l-0.96,0l0,-0.7l9.44,0c2.3,0,4.12,0.23,5.45,0.71c1.32,0.47,2.45,1.27,3.36,2.4c0.91,1.12,1.36,2.46,1.36,4c0,2.1,-0.69,3.81,-2.07,5.12c-1.38,1.31,-3.34,1.97,-5.87,1.97c-0.62,0,-1.29,-0.04,-2.01,-0.13c-0.72,-0.08,-1.49,-0.22,-2.31,-0.39m0,-1.08c0.67,0.12,1.26,0.22,1.78,0.28c0.51,0.06,0.96,0.09,1.32,0.09c1.31,0,2.45,-0.5,3.4,-1.52c0.95,-1.01,1.43,-2.33,1.43,-3.96c0,-1.11,-0.22,-2.14,-0.68,-3.1c-0.45,-0.95,-1.1,-1.67,-1.93,-2.14c-0.83,-0.47,-1.78,-0.71,-2.84,-0.71c-0.64,0,-1.47,0.12,-2.48,0.36l0,10.71m23.34,-4.76c2.63,0,4.74,1,6.34,3c1.35,1.7,2.03,3.67,2.03,5.88c0,1.55,-0.37,3.13,-1.12,4.72c-0.74,1.59,-1.77,2.79,-3.08,3.6c-1.31,0.81,-2.77,1.21,-4.37,1.21c-2.62,0,-4.7,-1.04,-6.24,-3.13c-1.3,-1.76,-1.95,-3.73,-1.95,-5.92c0,-1.59,0.39,-3.18,1.18,-4.75c0.79,-1.57,1.83,-2.74,3.12,-3.49c1.29,-0.75,2.65,-1.13,4.1,-1.13m-0.58,1.23c-0.67,0,-1.34,0.19,-2.02,0.59c-0.67,0.39,-1.22,1.09,-1.64,2.09c-0.41,1,-0.62,2.28,-0.62,3.85c0,2.53,0.5,4.71,1.51,6.55c1,1.83,2.33,2.75,3.97,2.75c1.22,0,2.24,-0.5,3.03,-1.51c0.79,-1.01,1.19,-2.75,1.19,-5.22c0,-3.08,-0.66,-5.52,-1.99,-7.29c-0.89,-1.21,-2.04,-1.82,-3.43,-1.82m22.82,-1.23l0,5.92l-0.62,0c-0.48,-1.86,-1.09,-3.12,-1.85,-3.79c-0.75,-0.67,-1.71,-1,-2.87,-1c-0.88,0,-1.6,0.23,-2.14,0.7c-0.54,0.46,-0.81,0.98,-0.81,1.55c0,0.7,0.2,1.31,0.6,1.82c0.39,0.51,1.19,1.07,2.39,1.65l2.77,1.34c2.57,1.25,3.85,2.9,3.85,4.95c0,1.58,-0.59,2.85,-1.79,3.82c-1.19,0.96,-2.53,1.45,-4.01,1.45c-1.06,0,-2.27,-0.18,-3.64,-0.56c-0.41,-0.12,-0.75,-0.18,-1.02,-0.18c-0.29,0,-0.51,0.16,-0.68,0.49l-0.62,0l0,-6.21l0.62,0c0.35,1.77,1.03,3.1,2.03,4c1,0.89,2.12,1.34,3.36,1.34c0.87,0,1.58,-0.25,2.13,-0.76c0.55,-0.51,0.82,-1.13,0.82,-1.85c0,-0.87,-0.3,-1.6,-0.92,-2.2c-0.61,-0.59,-1.83,-1.34,-3.67,-2.26c-1.83,-0.91,-3.03,-1.73,-3.6,-2.46c-0.56,-0.72,-0.85,-1.63,-0.85,-2.73c0,-1.43,0.49,-2.62,1.47,-3.58c0.98,-0.96,2.25,-1.44,3.8,-1.44c0.68,0,1.51,0.14,2.48,0.43c0.64,0.18,1.07,0.28,1.29,0.28c0.2,0,0.36,-0.04,0.47,-0.13c0.11,-0.08,0.24,-0.28,0.39,-0.58l0.62,0m8.28,-9.09c0.53,0,0.98,0.18,1.35,0.56c0.37,0.37,0.56,0.82,0.56,1.35c0,0.53,-0.18,0.98,-0.56,1.36c-0.37,0.37,-0.82,0.56,-1.35,0.56c-0.53,0,-0.98,-0.18,-1.36,-0.56c-0.37,-0.37,-0.56,-0.83,-0.56,-1.36c0,-0.53,0.18,-0.98,0.56,-1.35c0.37,-0.37,0.83,-0.56,1.37,-0.56m1.57,9.09l0,13.97c0,1.08,0.07,1.81,0.23,2.17c0.15,0.36,0.39,0.63,0.7,0.8c0.31,0.17,0.87,0.26,1.7,0.26l0,0.68l-8.45,0l0,-0.68c0.84,0,1.41,-0.08,1.7,-0.24c0.29,-0.16,0.52,-0.43,0.69,-0.81c0.17,-0.37,0.25,-1.1,0.25,-2.18l0,-6.7c0,-1.88,-0.05,-3.1,-0.17,-3.66c-0.08,-0.4,-0.22,-0.68,-0.41,-0.84c-0.18,-0.15,-0.44,-0.23,-0.77,-0.23c-0.35,0,-0.78,0.09,-1.29,0.28l-0.26,-0.68l5.24,-2.12l0.83,0m9.85,-5.2l0,5.71l4.06,0l0,1.32l-4.06,0l0,11.28c0,1.12,0.16,1.88,0.48,2.27c0.32,0.39,0.73,0.58,1.24,0.58c0.41,0,0.82,-0.12,1.21,-0.38c0.39,-0.25,0.69,-0.64,0.91,-1.14l0.74,0c-0.44,1.24,-1.07,2.17,-1.88,2.8c-0.81,0.62,-1.64,0.94,-2.5,0.94c-0.58,0,-1.15,-0.16,-1.7,-0.48c-0.55,-0.32,-0.96,-0.78,-1.23,-1.38c-0.26,-0.6,-0.39,-1.52,-0.39,-2.78l0,-11.7l-2.75,0l0,-0.62c0.69,-0.27,1.4,-0.75,2.13,-1.41c0.72,-0.66,1.37,-1.45,1.94,-2.36c0.29,-0.48,0.69,-1.36,1.21,-2.64l0.58,0m10.17,-3.89c0.53,0,0.98,0.18,1.35,0.56c0.37,0.37,0.56,0.82,0.56,1.35c0,0.53,-0.18,0.98,-0.56,1.36c-0.37,0.37,-0.82,0.56,-1.35,0.56c-0.53,0,-0.98,-0.18,-1.36,-0.56c-0.37,-0.37,-0.56,-0.83,-0.56,-1.36c0,-0.53,0.18,-0.98,0.56,-1.35c0.37,-0.37,0.83,-0.56,1.37,-0.56m1.57,9.09l0,13.97c0,1.08,0.07,1.81,0.23,2.17c0.15,0.36,0.39,0.63,0.7,0.8c0.31,0.17,0.87,0.26,1.7,0.26l0,0.68l-8.45,0l0,-0.68c0.84,0,1.41,-0.08,1.7,-0.24c0.29,-0.16,0.52,-0.43,0.69,-0.81c0.17,-0.37,0.25,-1.1,0.25,-2.18l0,-6.7c0,-1.88,-0.05,-3.1,-0.17,-3.66c-0.08,-0.4,-0.22,-0.68,-0.41,-0.84c-0.18,-0.15,-0.44,-0.23,-0.77,-0.23c-0.35,0,-0.78,0.09,-1.29,0.28l-0.26,-0.68l5.24,-2.12l0.83,0m13.3,0c2.63,0,4.74,1,6.34,3c1.35,1.7,2.03,3.67,2.03,5.88c0,1.55,-0.37,3.13,-1.12,4.72c-0.74,1.59,-1.77,2.79,-3.08,3.6c-1.31,0.81,-2.77,1.21,-4.37,1.21c-2.62,0,-4.7,-1.04,-6.24,-3.13c-1.3,-1.76,-1.95,-3.73,-1.95,-5.92c0,-1.59,0.39,-3.18,1.18,-4.75c0.79,-1.57,1.83,-2.74,3.12,-3.49c1.29,-0.75,2.65,-1.13,4.1,-1.13m-0.58,1.23c-0.67,0,-1.34,0.19,-2.02,0.59c-0.67,0.39,-1.22,1.09,-1.64,2.09c-0.41,1,-0.62,2.28,-0.62,3.85c0,2.53,0.5,4.71,1.51,6.55c1,1.83,2.33,2.75,3.97,2.75c1.22,0,2.24,-0.5,3.03,-1.51c0.79,-1.01,1.19,-2.75,1.19,-5.22c0,-3.08,-0.66,-5.52,-1.99,-7.29c-0.89,-1.21,-2.04,-1.82,-3.43,-1.82m16.65,2.45c2.03,-2.45,3.98,-3.68,5.83,-3.68c0.94,0,1.76,0.23,2.45,0.71c0.68,0.47,1.22,1.25,1.63,2.34c0.27,0.75,0.41,1.92,0.41,3.49l0,7.42c0,1.1,0.08,1.84,0.26,2.24c0.13,0.31,0.36,0.56,0.67,0.74c0.31,0.17,0.88,0.26,1.71,0.26l0,0.68l-8.6,0l0,-0.68l0.36,0c0.81,0,1.37,-0.12,1.7,-0.37c0.32,-0.24,0.54,-0.61,0.67,-1.09c0.05,-0.18,0.07,-0.78,0.07,-1.78l0,-7.12c0,-1.58,-0.2,-2.73,-0.61,-3.44c-0.41,-0.71,-1.1,-1.07,-2.07,-1.07c-1.5,0,-3,0.82,-4.5,2.46l0,9.17c0,1.17,0.06,1.9,0.2,2.18c0.17,0.36,0.42,0.63,0.73,0.8c0.31,0.17,0.94,0.25,1.88,0.25l0,0.68l-8.6,0l0,-0.68l0.37,0c0.88,0,1.48,-0.22,1.79,-0.67c0.31,-0.44,0.46,-1.3,0.46,-2.57l0,-6.45c0,-2.08,-0.04,-3.36,-0.14,-3.81c-0.09,-0.45,-0.24,-0.76,-0.43,-0.93c-0.19,-0.16,-0.45,-0.24,-0.78,-0.24c-0.35,0,-0.77,0.09,-1.27,0.28l-0.28,-0.68l5.24,-2.12l0.81,0l0,3.68m27.05,3.38c-0.01,2.58,0.61,4.6,1.88,6.07c1.26,1.46,2.75,2.2,4.46,2.2c1.13,0,2.13,-0.31,2.97,-0.94c0.84,-0.62,1.54,-1.7,2.11,-3.21l0.58,0.37c-0.26,1.73,-1.03,3.31,-2.31,4.73c-1.27,1.42,-2.88,2.13,-4.8,2.13c-2.08,0,-3.87,-0.81,-5.36,-2.44c-1.48,-1.62,-2.23,-3.81,-2.23,-6.56c0,-2.97,0.76,-5.29,2.28,-6.96c1.52,-1.66,3.44,-2.49,5.74,-2.49c1.95,0,3.55,0.64,4.8,1.92c1.25,1.28,1.88,3,1.88,5.15l-12.02,0m0,-1.1l8.05,0c-0.06,-1.11,-0.19,-1.89,-0.39,-2.35c-0.31,-0.7,-0.78,-1.26,-1.41,-1.67c-0.62,-0.4,-1.28,-0.6,-1.96,-0.6c-1.05,0,-1.99,0.4,-2.82,1.22c-0.82,0.81,-1.31,1.95,-1.45,3.4m19.46,-5.96l0,3.91c1.45,-2.6,2.95,-3.91,4.48,-3.91c0.69,0,1.27,0.21,1.72,0.63c0.45,0.42,0.68,0.91,0.68,1.47c0,0.49,-0.16,0.91,-0.49,1.25c-0.32,0.34,-0.72,0.51,-1.17,0.51c-0.44,0,-0.94,-0.21,-1.49,-0.65c-0.55,-0.43,-0.95,-0.65,-1.22,-0.65c-0.22,0,-0.47,0.12,-0.74,0.37c-0.56,0.51,-1.15,1.37,-1.76,2.56l0,8.33c0,0.96,0.12,1.69,0.36,2.18c0.16,0.34,0.45,0.62,0.87,0.85c0.41,0.22,1.01,0.34,1.8,0.34l0,0.68l-8.9,0l0,-0.68c0.88,0,1.54,-0.13,1.97,-0.41c0.31,-0.2,0.53,-0.52,0.66,-0.96c0.06,-0.21,0.09,-0.82,0.09,-1.84l0,-6.74c0,-2.02,-0.04,-3.23,-0.12,-3.61c-0.08,-0.38,-0.23,-0.66,-0.45,-0.84c-0.22,-0.17,-0.49,-0.26,-0.82,-0.26c-0.39,0,-0.83,0.09,-1.32,0.28l-0.18,-0.68l5.26,-2.12l0.79,0m13,0l0,3.91c1.45,-2.6,2.95,-3.91,4.48,-3.91c0.69,0,1.27,0.21,1.72,0.63c0.45,0.42,0.68,0.91,0.68,1.47c0,0.49,-0.16,0.91,-0.49,1.25c-0.32,0.34,-0.72,0.51,-1.17,0.51c-0.44,0,-0.94,-0.21,-1.49,-0.65c-0.55,-0.43,-0.95,-0.65,-1.22,-0.65c-0.22,0,-0.47,0.12,-0.74,0.37c-0.56,0.51,-1.15,1.37,-1.76,2.56l0,8.33c0,0.96,0.12,1.69,0.36,2.18c0.16,0.34,0.45,0.62,0.87,0.85c0.41,0.22,1.01,0.34,1.8,0.34l0,0.68l-8.9,0l0,-0.68c0.88,0,1.54,-0.13,1.97,-0.41c0.31,-0.2,0.53,-0.52,0.66,-0.96c0.06,-0.21,0.09,-0.82,0.09,-1.84l0,-6.74c0,-2.02,-0.04,-3.23,-0.12,-3.61c-0.08,-0.38,-0.23,-0.66,-0.45,-0.84c-0.22,-0.17,-0.49,-0.26,-0.82,-0.26c-0.39,0,-0.83,0.09,-1.32,0.28l-0.18,-0.68l5.26,-2.12l0.79,0m16.41,0c2.63,0,4.74,1,6.34,3c1.35,1.7,2.03,3.67,2.03,5.88c0,1.55,-0.37,3.13,-1.12,4.72c-0.74,1.59,-1.77,2.79,-3.08,3.6c-1.31,0.81,-2.77,1.21,-4.37,1.21c-2.62,0,-4.7,-1.04,-6.24,-3.13c-1.3,-1.76,-1.95,-3.73,-1.95,-5.92c0,-1.59,0.39,-3.18,1.18,-4.75c0.79,-1.57,1.83,-2.74,3.12,-3.49c1.29,-0.75,2.65,-1.13,4.1,-1.13m-0.58,1.23c-0.67,0,-1.34,0.19,-2.02,0.59c-0.67,0.39,-1.22,1.09,-1.64,2.09c-0.41,1,-0.62,2.28,-0.62,3.85c0,2.53,0.5,4.71,1.51,6.55c1,1.83,2.33,2.75,3.97,2.75c1.22,0,2.24,-0.5,3.03,-1.51c0.79,-1.01,1.19,-2.75,1.19,-5.22c0,-3.08,-0.66,-5.52,-1.99,-7.29c-0.89,-1.21,-2.04,-1.82,-3.43,-1.82m16.66,-1.23l0,3.91c1.45,-2.6,2.95,-3.91,4.48,-3.91c0.69,0,1.27,0.21,1.72,0.63c0.45,0.42,0.68,0.91,0.68,1.47c0,0.49,-0.16,0.91,-0.49,1.25c-0.32,0.34,-0.72,0.51,-1.17,0.51c-0.44,0,-0.94,-0.21,-1.49,-0.65c-0.55,-0.43,-0.95,-0.65,-1.22,-0.65c-0.22,0,-0.47,0.12,-0.74,0.37c-0.56,0.51,-1.15,1.37,-1.76,2.56l0,8.33c0,0.96,0.12,1.69,0.36,2.18c0.16,0.34,0.45,0.62,0.87,0.85c0.41,0.22,1.01,0.34,1.8,0.34l0,0.68l-8.9,0l0,-0.68c0.88,0,1.54,-0.13,1.97,-0.41c0.31,-0.2,0.53,-0.52,0.66,-0.96c0.06,-0.21,0.09,-0.82,0.09,-1.84l0,-6.74c0,-2.02,-0.04,-3.23,-0.12,-3.61c-0.08,-0.38,-0.23,-0.66,-0.45,-0.84c-0.22,-0.17,-0.49,-0.26,-0.82,-0.26c-0.39,0,-0.83,0.09,-1.32,0.28l-0.18,-0.68l5.26,-2.12l0.79,0m28.85,0l0,5.92l-0.62,0c-0.48,-1.86,-1.09,-3.12,-1.85,-3.79c-0.75,-0.67,-1.71,-1,-2.87,-1c-0.88,0,-1.6,0.23,-2.14,0.7c-0.54,0.46,-0.81,0.98,-0.81,1.55c0,0.7,0.2,1.31,0.6,1.82c0.39,0.51,1.19,1.07,2.39,1.65l2.77,1.34c2.57,1.25,3.85,2.9,3.85,4.95c0,1.58,-0.59,2.85,-1.79,3.82c-1.19,0.96,-2.53,1.45,-4.01,1.45c-1.06,0,-2.27,-0.18,-3.64,-0.56c-0.41,-0.12,-0.75,-0.18,-1.02,-0.18c-0.29,0,-0.51,0.16,-0.68,0.49l-0.62,0l0,-6.21l0.62,0c0.35,1.77,1.03,3.1,2.03,4c1,0.89,2.12,1.34,3.36,1.34c0.87,0,1.58,-0.25,2.13,-0.76c0.55,-0.51,0.82,-1.13,0.82,-1.85c0,-0.87,-0.3,-1.6,-0.92,-2.2c-0.61,-0.59,-1.83,-1.34,-3.67,-2.26c-1.83,-0.91,-3.03,-1.73,-3.6,-2.46c-0.56,-0.72,-0.85,-1.63,-0.85,-2.73c0,-1.43,0.49,-2.62,1.47,-3.58c0.98,-0.96,2.25,-1.44,3.8,-1.44c0.68,0,1.51,0.14,2.48,0.43c0.64,0.18,1.07,0.28,1.29,0.28c0.2,0,0.36,-0.04,0.47,-0.13c0.11,-0.08,0.24,-0.28,0.39,-0.58l0.62,0m8.9,-5.2l0,5.71l4.06,0l0,1.32l-4.06,0l0,11.28c0,1.12,0.16,1.88,0.48,2.27c0.32,0.39,0.73,0.58,1.24,0.58c0.41,0,0.82,-0.12,1.21,-0.38c0.39,-0.25,0.69,-0.64,0.91,-1.14l0.74,0c-0.44,1.24,-1.07,2.17,-1.88,2.8c-0.81,0.62,-1.64,0.94,-2.5,0.94c-0.58,0,-1.15,-0.16,-1.7,-0.48c-0.55,-0.32,-0.96,-0.78,-1.23,-1.38c-0.26,-0.6,-0.39,-1.52,-0.39,-2.78l0,-11.7l-2.75,0l0,-0.62c0.69,-0.27,1.4,-0.75,2.13,-1.41c0.72,-0.66,1.37,-1.45,1.94,-2.36c0.29,-0.48,0.69,-1.36,1.21,-2.64l0.58,0m15.6,20.6c-1.78,1.38,-2.9,2.17,-3.36,2.39c-0.68,0.31,-1.41,0.47,-2.18,0.47c-1.2,0,-2.19,-0.41,-2.97,-1.23c-0.77,-0.82,-1.16,-1.9,-1.16,-3.24c0,-0.84,0.18,-1.58,0.56,-2.2c0.51,-0.86,1.42,-1.67,2.7,-2.43c1.28,-0.75,3.42,-1.68,6.41,-2.77l0,-0.68c0,-1.73,-0.27,-2.92,-0.82,-3.57c-0.55,-0.64,-1.35,-0.96,-2.4,-0.96c-0.79,0,-1.43,0.21,-1.89,0.64c-0.48,0.43,-0.72,0.92,-0.72,1.48l0.03,1.1c0,0.58,-0.14,1.03,-0.44,1.34c-0.29,0.31,-0.68,0.47,-1.16,0.47c-0.46,0,-0.85,-0.16,-1.14,-0.49c-0.29,-0.32,-0.44,-0.77,-0.44,-1.34c0,-1.08,0.55,-2.08,1.67,-3c1.11,-0.91,2.67,-1.36,4.69,-1.36c1.54,0,2.81,0.25,3.79,0.77c0.74,0.39,1.29,1,1.65,1.84c0.22,0.54,0.34,1.65,0.34,3.34l0,5.9c0,1.65,0.03,2.67,0.09,3.04c0.06,0.37,0.16,0.62,0.31,0.75c0.14,0.12,0.31,0.18,0.5,0.18c0.2,0,0.37,-0.04,0.53,-0.13c0.26,-0.16,0.77,-0.62,1.53,-1.38l0,1.06c-1.41,1.89,-2.77,2.84,-4.06,2.84c-0.62,0,-1.11,-0.21,-1.48,-0.64c-0.36,-0.43,-0.55,-1.16,-0.56,-2.2m0,-1.23l0,-6.62c-1.91,0.75,-3.14,1.29,-3.7,1.61c-1,0.55,-1.71,1.13,-2.14,1.74c-0.43,0.6,-0.64,1.27,-0.64,1.99c0,0.91,0.27,1.66,0.81,2.26c0.54,0.6,1.17,0.9,1.88,0.9c0.96,0,2.22,-0.63,3.79,-1.89m12.51,-10.48c2.03,-2.45,3.98,-3.68,5.83,-3.68c0.94,0,1.76,0.23,2.45,0.71c0.68,0.47,1.22,1.25,1.63,2.34c0.27,0.75,0.41,1.92,0.41,3.49l0,7.42c0,1.1,0.08,1.84,0.26,2.24c0.13,0.31,0.36,0.56,0.67,0.74c0.31,0.17,0.88,0.26,1.71,0.26l0,0.68l-8.6,0l0,-0.68l0.36,0c0.81,0,1.37,-0.12,1.7,-0.37c0.32,-0.24,0.54,-0.61,0.67,-1.09c0.05,-0.18,0.07,-0.78,0.07,-1.78l0,-7.12c0,-1.58,-0.2,-2.73,-0.61,-3.44c-0.41,-0.71,-1.1,-1.07,-2.07,-1.07c-1.5,0,-3,0.82,-4.5,2.46l0,9.17c0,1.17,0.06,1.9,0.2,2.18c0.17,0.36,0.42,0.63,0.73,0.8c0.31,0.17,0.94,0.25,1.88,0.25l0,0.68l-8.6,0l0,-0.68l0.37,0c0.88,0,1.48,-0.22,1.79,-0.67c0.31,-0.44,0.46,-1.3,0.46,-2.57l0,-6.45c0,-2.08,-0.04,-3.36,-0.14,-3.81c-0.09,-0.45,-0.24,-0.76,-0.43,-0.93c-0.19,-0.16,-0.45,-0.24,-0.78,-0.24c-0.35,0,-0.77,0.09,-1.27,0.28l-0.28,-0.68l5.24,-2.12l0.81,0l0,3.68m26.71,12.27c-0.84,0.88,-1.67,1.52,-2.48,1.9c-0.81,0.38,-1.68,0.57,-2.62,0.57c-1.89,0,-3.55,-0.79,-4.97,-2.38c-1.41,-1.58,-2.12,-3.63,-2.12,-6.12c0,-2.49,0.78,-4.77,2.35,-6.84c1.57,-2.07,3.58,-3.1,6.05,-3.1c1.53,0,2.79,0.48,3.79,1.46l0,-3.21c0,-1.98,-0.04,-3.21,-0.14,-3.66c-0.09,-0.45,-0.24,-0.76,-0.44,-0.93c-0.2,-0.16,-0.45,-0.24,-0.75,-0.24c-0.32,0,-0.76,0.1,-1.31,0.3l-0.24,-0.66l5.18,-2.12l0.85,0l0,20.11c0,2.03,0.04,3.28,0.14,3.73c0.09,0.44,0.24,0.76,0.45,0.94c0.2,0.17,0.45,0.26,0.73,0.26c0.34,0,0.79,-0.1,1.36,-0.32l0.2,0.66l-5.16,2.14l-0.87,0l0,-2.48m0,-1.32l0,-8.96c-0.07,-0.86,-0.3,-1.64,-0.68,-2.35c-0.37,-0.7,-0.88,-1.24,-1.51,-1.6c-0.62,-0.36,-1.23,-0.54,-1.83,-0.54c-1.11,0,-2.1,0.5,-2.98,1.5c-1.15,1.31,-1.72,3.24,-1.72,5.77c0,2.55,0.55,4.51,1.67,5.87c1.11,1.36,2.35,2.04,3.72,2.04c1.15,0,2.26,-0.57,3.34,-1.72m17.06,0.77c-1.78,1.38,-2.9,2.17,-3.36,2.39c-0.68,0.31,-1.41,0.47,-2.18,0.47c-1.2,0,-2.19,-0.41,-2.97,-1.23c-0.77,-0.82,-1.16,-1.9,-1.16,-3.24c0,-0.84,0.18,-1.58,0.56,-2.2c0.51,-0.86,1.42,-1.67,2.7,-2.43c1.28,-0.75,3.42,-1.68,6.41,-2.77l0,-0.68c0,-1.73,-0.27,-2.92,-0.82,-3.57c-0.55,-0.64,-1.35,-0.96,-2.4,-0.96c-0.79,0,-1.43,0.21,-1.89,0.64c-0.48,0.43,-0.72,0.92,-0.72,1.48l0.03,1.1c0,0.58,-0.14,1.03,-0.44,1.34c-0.29,0.31,-0.68,0.47,-1.16,0.47c-0.46,0,-0.85,-0.16,-1.14,-0.49c-0.29,-0.32,-0.44,-0.77,-0.44,-1.34c0,-1.08,0.55,-2.08,1.67,-3c1.11,-0.91,2.67,-1.36,4.69,-1.36c1.54,0,2.81,0.25,3.79,0.77c0.74,0.39,1.29,1,1.65,1.84c0.22,0.54,0.34,1.65,0.34,3.34l0,5.9c0,1.65,0.03,2.67,0.09,3.04c0.06,0.37,0.16,0.62,0.31,0.75c0.14,0.12,0.31,0.18,0.5,0.18c0.2,0,0.37,-0.04,0.53,-0.13c0.26,-0.16,0.77,-0.62,1.53,-1.38l0,1.06c-1.41,1.89,-2.77,2.84,-4.06,2.84c-0.62,0,-1.11,-0.21,-1.48,-0.64c-0.36,-0.43,-0.55,-1.16,-0.56,-2.2m0,-1.23l0,-6.62c-1.91,0.75,-3.14,1.29,-3.7,1.61c-1,0.55,-1.71,1.13,-2.14,1.74c-0.43,0.6,-0.64,1.27,-0.64,1.99c0,0.91,0.27,1.66,0.81,2.26c0.54,0.6,1.17,0.9,1.88,0.9c0.96,0,2.22,-0.63,3.79,-1.89m12.53,-14.16l0,3.91c1.45,-2.6,2.95,-3.91,4.48,-3.91c0.69,0,1.27,0.21,1.72,0.63c0.45,0.42,0.68,0.91,0.68,1.47c0,0.49,-0.16,0.91,-0.49,1.25c-0.32,0.34,-0.72,0.51,-1.17,0.51c-0.44,0,-0.94,-0.21,-1.49,-0.65c-0.55,-0.43,-0.95,-0.65,-1.22,-0.65c-0.22,0,-0.47,0.12,-0.74,0.37c-0.56,0.51,-1.15,1.37,-1.76,2.56l0,8.33c0,0.96,0.12,1.69,0.36,2.18c0.16,0.34,0.45,0.62,0.87,0.85c0.41,0.22,1.01,0.34,1.8,0.34l0,0.68l-8.9,0l0,-0.68c0.88,0,1.54,-0.13,1.97,-0.41c0.31,-0.2,0.53,-0.52,0.66,-0.96c0.06,-0.21,0.09,-0.82,0.09,-1.84l0,-6.74c0,-2.02,-0.04,-3.23,-0.12,-3.61c-0.08,-0.38,-0.23,-0.66,-0.45,-0.84c-0.22,-0.17,-0.49,-0.26,-0.82,-0.26c-0.39,0,-0.83,0.09,-1.32,0.28l-0.18,-0.68l5.26,-2.12l0.79,0m20.19,15.95c-0.84,0.88,-1.67,1.52,-2.48,1.9c-0.81,0.38,-1.68,0.57,-2.62,0.57c-1.89,0,-3.55,-0.79,-4.97,-2.38c-1.41,-1.58,-2.12,-3.63,-2.12,-6.12c0,-2.49,0.78,-4.77,2.35,-6.84c1.57,-2.07,3.58,-3.1,6.05,-3.1c1.53,0,2.79,0.48,3.79,1.46l0,-3.21c0,-1.98,-0.04,-3.21,-0.14,-3.66c-0.09,-0.45,-0.24,-0.76,-0.44,-0.93c-0.2,-0.16,-0.45,-0.24,-0.75,-0.24c-0.32,0,-0.76,0.1,-1.31,0.3l-0.24,-0.66l5.18,-2.12l0.85,0l0,20.11c0,2.03,0.04,3.28,0.14,3.73c0.09,0.44,0.24,0.76,0.45,0.94c0.2,0.17,0.45,0.26,0.73,0.26c0.34,0,0.79,-0.1,1.36,-0.32l0.2,0.66l-5.16,2.14l-0.87,0l0,-2.48m0,-1.32l0,-8.96c-0.07,-0.86,-0.3,-1.64,-0.68,-2.35c-0.37,-0.7,-0.88,-1.24,-1.51,-1.6c-0.62,-0.36,-1.23,-0.54,-1.83,-0.54c-1.11,0,-2.1,0.5,-2.98,1.5c-1.15,1.31,-1.72,3.24,-1.72,5.77c0,2.55,0.55,4.51,1.67,5.87c1.11,1.36,2.35,2.04,3.72,2.04c1.15,0,2.26,-0.57,3.34,-1.72m29.2,1.32c-0.84,0.88,-1.67,1.52,-2.48,1.9c-0.81,0.38,-1.68,0.57,-2.62,0.57c-1.89,0,-3.55,-0.79,-4.97,-2.38c-1.41,-1.58,-2.12,-3.63,-2.12,-6.12c0,-2.49,0.78,-4.77,2.35,-6.84c1.57,-2.07,3.58,-3.1,6.05,-3.1c1.53,0,2.79,0.48,3.79,1.46l0,-3.21c0,-1.98,-0.04,-3.21,-0.14,-3.66c-0.09,-0.45,-0.24,-0.76,-0.44,-0.93c-0.2,-0.16,-0.45,-0.24,-0.75,-0.24c-0.32,0,-0.76,0.1,-1.31,0.3l-0.24,-0.66l5.18,-2.12l0.85,0l0,20.11c0,2.03,0.04,3.28,0.14,3.73c0.09,0.44,0.24,0.76,0.45,0.94c0.2,0.17,0.45,0.26,0.73,0.26c0.34,0,0.79,-0.1,1.36,-0.32l0.2,0.66l-5.16,2.14l-0.87,0l0,-2.48m0,-1.32l0,-8.96c-0.07,-0.86,-0.3,-1.64,-0.68,-2.35c-0.37,-0.7,-0.88,-1.24,-1.51,-1.6c-0.62,-0.36,-1.23,-0.54,-1.83,-0.54c-1.11,0,-2.1,0.5,-2.98,1.5c-1.15,1.31,-1.72,3.24,-1.72,5.77c0,2.55,0.55,4.51,1.67,5.87c1.11,1.36,2.35,2.04,3.72,2.04c1.15,0,2.26,-0.57,3.34,-1.72m10.13,-7.55c-0.01,2.58,0.61,4.6,1.88,6.07c1.26,1.46,2.75,2.2,4.46,2.2c1.13,0,2.13,-0.31,2.97,-0.94c0.84,-0.62,1.54,-1.7,2.11,-3.21l0.58,0.37c-0.26,1.73,-1.03,3.31,-2.31,4.73c-1.27,1.42,-2.88,2.13,-4.8,2.13c-2.08,0,-3.87,-0.81,-5.36,-2.44c-1.48,-1.62,-2.23,-3.81,-2.23,-6.56c0,-2.97,0.76,-5.29,2.28,-6.96c1.52,-1.66,3.44,-2.49,5.74,-2.49c1.95,0,3.55,0.64,4.8,1.92c1.25,1.28,1.88,3,1.88,5.15l-12.02,0m0,-1.1l8.05,0c-0.06,-1.11,-0.19,-1.89,-0.39,-2.35c-0.31,-0.7,-0.78,-1.26,-1.41,-1.67c-0.62,-0.4,-1.28,-0.6,-1.96,-0.6c-1.05,0,-1.99,0.4,-2.82,1.22c-0.82,0.81,-1.31,1.95,-1.45,3.4m13.48,-5.45l8.18,0l0,0.7l-0.53,0c-0.49,0,-0.87,0.12,-1.13,0.36c-0.25,0.24,-0.38,0.56,-0.38,0.96c0,0.44,0.13,0.96,0.39,1.57l4.04,9.61l4.06,-9.97c0.29,-0.7,0.43,-1.24,0.43,-1.61c0,-0.17,-0.05,-0.32,-0.15,-0.43c-0.13,-0.18,-0.31,-0.31,-0.53,-0.38c-0.21,-0.06,-0.65,-0.1,-1.31,-0.1l0,-0.7l5.67,0l0,0.7c-0.65,0.05,-1.11,0.18,-1.36,0.39c-0.44,0.37,-0.84,1.01,-1.19,1.89l-6.17,14.92l-0.77,0l-6.21,-14.68c-0.27,-0.68,-0.54,-1.17,-0.79,-1.47c-0.25,-0.29,-0.57,-0.54,-0.96,-0.75c-0.21,-0.11,-0.63,-0.22,-1.27,-0.32l0,-0.7m24.81,-9.61c0.53,0,0.98,0.18,1.35,0.56c0.37,0.37,0.56,0.82,0.56,1.35c0,0.53,-0.18,0.98,-0.56,1.36c-0.37,0.37,-0.82,0.56,-1.35,0.56c-0.53,0,-0.98,-0.18,-1.36,-0.56c-0.37,-0.37,-0.56,-0.83,-0.56,-1.36c0,-0.53,0.18,-0.98,0.56,-1.35c0.37,-0.37,0.83,-0.56,1.37,-0.56m1.57,9.09l0,13.97c0,1.08,0.07,1.81,0.23,2.17c0.15,0.36,0.39,0.63,0.7,0.8c0.31,0.17,0.87,0.26,1.7,0.26l0,0.68l-8.45,0l0,-0.68c0.84,0,1.41,-0.08,1.7,-0.24c0.29,-0.16,0.52,-0.43,0.69,-0.81c0.17,-0.37,0.25,-1.1,0.25,-2.18l0,-6.7c0,-1.88,-0.05,-3.1,-0.17,-3.66c-0.08,-0.4,-0.22,-0.68,-0.41,-0.84c-0.18,-0.15,-0.44,-0.23,-0.77,-0.23c-0.35,0,-0.78,0.09,-1.29,0.28l-0.26,-0.68l5.24,-2.12l0.83,0m14.65,15.4c-1.78,1.38,-2.9,2.17,-3.36,2.39c-0.68,0.31,-1.41,0.47,-2.18,0.47c-1.2,0,-2.19,-0.41,-2.97,-1.23c-0.77,-0.82,-1.16,-1.9,-1.16,-3.24c0,-0.84,0.18,-1.58,0.56,-2.2c0.51,-0.86,1.42,-1.67,2.7,-2.43c1.28,-0.75,3.42,-1.68,6.41,-2.77l0,-0.68c0,-1.73,-0.27,-2.92,-0.82,-3.57c-0.55,-0.64,-1.35,-0.96,-2.4,-0.96c-0.79,0,-1.43,0.21,-1.89,0.64c-0.48,0.43,-0.72,0.92,-0.72,1.48l0.03,1.1c0,0.58,-0.14,1.03,-0.44,1.34c-0.29,0.31,-0.68,0.47,-1.16,0.47c-0.46,0,-0.85,-0.16,-1.14,-0.49c-0.29,-0.32,-0.44,-0.77,-0.44,-1.34c0,-1.08,0.55,-2.08,1.67,-3c1.11,-0.91,2.67,-1.36,4.69,-1.36c1.54,0,2.81,0.25,3.79,0.77c0.74,0.39,1.29,1,1.65,1.84c0.22,0.54,0.34,1.65,0.34,3.34l0,5.9c0,1.65,0.03,2.67,0.09,3.04c0.06,0.37,0.16,0.62,0.31,0.75c0.14,0.12,0.31,0.18,0.5,0.18c0.2,0,0.37,-0.04,0.53,-0.13c0.26,-0.16,0.77,-0.62,1.53,-1.38l0,1.06c-1.41,1.89,-2.77,2.84,-4.06,2.84c-0.62,0,-1.11,-0.21,-1.48,-0.64c-0.36,-0.43,-0.55,-1.16,-0.56,-2.2m0,-1.23l0,-6.62c-1.91,0.75,-3.14,1.29,-3.7,1.61c-1,0.55,-1.71,1.13,-2.14,1.74c-0.43,0.6,-0.64,1.27,-0.64,1.99c0,0.91,0.27,1.66,0.81,2.26c0.54,0.6,1.17,0.9,1.88,0.9c0.96,0,2.22,-0.63,3.79,-1.89m12.49,-19.37l0,5.71l4.06,0l0,1.32l-4.06,0l0,11.28c0,1.12,0.16,1.88,0.48,2.27c0.32,0.39,0.73,0.58,1.24,0.58c0.41,0,0.82,-0.12,1.21,-0.38c0.39,-0.25,0.69,-0.64,0.91,-1.14l0.74,0c-0.44,1.24,-1.07,2.17,-1.88,2.8c-0.81,0.62,-1.64,0.94,-2.5,0.94c-0.58,0,-1.15,-0.16,-1.7,-0.48c-0.55,-0.32,-0.96,-0.78,-1.23,-1.38c-0.26,-0.6,-0.39,-1.52,-0.39,-2.78l0,-11.7l-2.75,0l0,-0.62c0.69,-0.27,1.4,-0.75,2.13,-1.41c0.72,-0.66,1.37,-1.45,1.94,-2.36c0.29,-0.48,0.69,-1.36,1.21,-2.64l0.58,0m10.17,-3.89c0.53,0,0.98,0.18,1.35,0.56c0.37,0.37,0.56,0.82,0.56,1.35c0,0.53,-0.18,0.98,-0.56,1.36c-0.37,0.37,-0.82,0.56,-1.35,0.56c-0.53,0,-0.98,-0.18,-1.36,-0.56c-0.37,-0.37,-0.56,-0.83,-0.56,-1.36c0,-0.53,0.18,-0.98,0.56,-1.35c0.37,-0.37,0.83,-0.56,1.37,-0.56m1.57,9.09l0,13.97c0,1.08,0.07,1.81,0.23,2.17c0.15,0.36,0.39,0.63,0.7,0.8c0.31,0.17,0.87,0.26,1.7,0.26l0,0.68l-8.45,0l0,-0.68c0.84,0,1.41,-0.08,1.7,-0.24c0.29,-0.16,0.52,-0.43,0.69,-0.81c0.17,-0.37,0.25,-1.1,0.25,-2.18l0,-6.7c0,-1.88,-0.05,-3.1,-0.17,-3.66c-0.08,-0.4,-0.22,-0.68,-0.41,-0.84c-0.18,-0.15,-0.44,-0.23,-0.77,-0.23c-0.35,0,-0.78,0.09,-1.29,0.28l-0.26,-0.68l5.24,-2.12l0.83,0m13.3,0c2.63,0,4.74,1,6.34,3c1.35,1.7,2.03,3.67,2.03,5.88c0,1.55,-0.37,3.13,-1.12,4.72c-0.74,1.59,-1.77,2.79,-3.08,3.6c-1.31,0.81,-2.77,1.21,-4.37,1.21c-2.62,0,-4.7,-1.04,-6.24,-3.13c-1.3,-1.76,-1.95,-3.73,-1.95,-5.92c0,-1.59,0.39,-3.18,1.18,-4.75c0.79,-1.57,1.83,-2.74,3.12,-3.49c1.29,-0.75,2.65,-1.13,4.1,-1.13m-0.58,1.23c-0.67,0,-1.34,0.19,-2.02,0.59c-0.67,0.39,-1.22,1.09,-1.64,2.09c-0.41,1,-0.62,2.28,-0.62,3.85c0,2.53,0.5,4.71,1.51,6.55c1,1.83,2.33,2.75,3.97,2.75c1.22,0,2.24,-0.5,3.03,-1.51c0.79,-1.01,1.19,-2.75,1.19,-5.22c0,-3.08,-0.66,-5.52,-1.99,-7.29c-0.89,-1.21,-2.04,-1.82,-3.43,-1.82m16.65,2.45c2.03,-2.45,3.98,-3.68,5.83,-3.68c0.94,0,1.76,0.23,2.45,0.71c0.68,0.47,1.22,1.25,1.63,2.34c0.27,0.75,0.41,1.92,0.41,3.49l0,7.42c0,1.1,0.08,1.84,0.26,2.24c0.13,0.31,0.36,0.56,0.67,0.74c0.31,0.17,0.88,0.26,1.71,0.26l0,0.68l-8.6,0l0,-0.68l0.36,0c0.81,0,1.37,-0.12,1.7,-0.37c0.32,-0.24,0.54,-0.61,0.67,-1.09c0.05,-0.18,0.07,-0.78,0.07,-1.78l0,-7.12c0,-1.58,-0.2,-2.73,-0.61,-3.44c-0.41,-0.71,-1.1,-1.07,-2.07,-1.07c-1.5,0,-3,0.82,-4.5,2.46l0,9.17c0,1.17,0.06,1.9,0.2,2.18c0.17,0.36,0.42,0.63,0.73,0.8c0.31,0.17,0.94,0.25,1.88,0.25l0,0.68l-8.6,0l0,-0.68l0.37,0c0.88,0,1.48,-0.22,1.79,-0.67c0.31,-0.44,0.46,-1.3,0.46,-2.57l0,-6.45c0,-2.08,-0.04,-3.36,-0.14,-3.81c-0.09,-0.45,-0.24,-0.76,-0.43,-0.93c-0.19,-0.16,-0.45,-0.24,-0.78,-0.24c-0.35,0,-0.77,0.09,-1.27,0.28l-0.28,-0.68l5.24,-2.12l0.81,0l0,3.68" fill="#000000" stroke="none" fill-opacity="1"/>
<path d="m143.55,1068.81l6.26,-3.05l0.62,0l0,21.74c0,1.44,0.06,2.34,0.18,2.69c0.12,0.35,0.37,0.62,0.75,0.81c0.37,0.18,1.15,0.29,2.31,0.32l0,0.7l-9.68,0l0,-0.7c1.21,-0.02,2,-0.12,2.35,-0.31c0.35,-0.18,0.6,-0.43,0.74,-0.74c0.13,-0.31,0.2,-1.23,0.2,-2.78l0,-13.9c0,-1.87,-0.06,-3.07,-0.18,-3.6c-0.08,-0.4,-0.25,-0.7,-0.48,-0.89c-0.23,-0.18,-0.51,-0.28,-0.84,-0.28c-0.46,0,-1.12,0.19,-1.95,0.58l-0.28,-0.58m16.34,10.5c0,-2.93,0.44,-5.46,1.32,-7.58c0.88,-2.12,2.06,-3.7,3.53,-4.73c1.13,-0.82,2.31,-1.23,3.53,-1.23c1.97,0,3.74,1,5.31,3.02c1.96,2.49,2.94,5.87,2.94,10.14c0,2.98,-0.43,5.52,-1.29,7.61c-0.86,2.08,-1.95,3.6,-3.29,4.54c-1.33,0.94,-2.62,1.41,-3.86,1.41c-2.45,0,-4.5,-1.44,-6.13,-4.34c-1.38,-2.44,-2.07,-5.38,-2.07,-8.83m3.72,0.47c0,3.54,0.43,6.43,1.31,8.68c0.72,1.88,1.79,2.83,3.22,2.83c0.68,0,1.39,-0.3,2.12,-0.92c0.73,-0.61,1.29,-1.64,1.67,-3.08c0.58,-2.17,0.87,-5.24,0.87,-9.21c0,-2.93,-0.3,-5.38,-0.91,-7.35c-0.45,-1.45,-1.04,-2.48,-1.76,-3.09c-0.51,-0.41,-1.14,-0.62,-1.88,-0.62c-0.86,0,-1.62,0.38,-2.29,1.15c-0.91,1.05,-1.53,2.7,-1.86,4.95c-0.32,2.25,-0.49,4.47,-0.49,6.66" fill="#000000" stroke="none" fill-opacity="1"/>
<path d="m190.68,1067.52l-12.26,0l0,-0.93l12.26,0l0,0.93m1.59,-5.21c0.43,-1.03,0.99,-1.84,1.66,-2.4c0.67,-0.56,1.5,-0.84,2.5,-0.84c1.23,0,2.18,0.4,2.84,1.2c0.5,0.59,0.75,1.24,0.75,1.92c0,1.12,-0.7,2.28,-2.11,3.48c0.94,0.37,1.66,0.9,2.15,1.59c0.48,0.69,0.72,1.5,0.72,2.43c0,1.33,-0.42,2.49,-1.27,3.47c-1.1,1.27,-2.71,1.91,-4.81,1.91c-1.03,0,-1.74,-0.12,-2.12,-0.38c-0.37,-0.25,-0.56,-0.53,-0.56,-0.83c0,-0.22,0.08,-0.41,0.26,-0.58c0.17,-0.16,0.39,-0.25,0.64,-0.25c0.18,0,0.38,0.03,0.58,0.09c0.12,0.03,0.42,0.17,0.87,0.41c0.45,0.23,0.76,0.38,0.94,0.42c0.28,0.08,0.58,0.12,0.89,0.12c0.77,0,1.44,-0.29,2.01,-0.89c0.57,-0.59,0.85,-1.3,0.85,-2.12c0,-0.59,-0.13,-1.18,-0.39,-1.75c-0.19,-0.42,-0.41,-0.74,-0.64,-0.96c-0.32,-0.3,-0.77,-0.57,-1.34,-0.82c-0.56,-0.24,-1.14,-0.36,-1.74,-0.36l-0.36,0l0,-0.34c0.59,-0.07,1.2,-0.29,1.8,-0.64c0.6,-0.35,1.04,-0.78,1.31,-1.28c0.27,-0.5,0.4,-1.05,0.4,-1.64c0,-0.78,-0.24,-1.41,-0.73,-1.89c-0.48,-0.48,-1.09,-0.72,-1.82,-0.72c-1.17,0,-2.15,0.62,-2.94,1.88l-0.37,-0.18" fill="#000000" stroke="none" fill-opacity="1"/>
<path d="m520.38,1079.31c0,-2.93,0.44,-5.46,1.32,-7.58c0.88,-2.12,2.06,-3.7,3.53,-4.73c1.13,-0.82,2.31,-1.23,3.53,-1.23c1.97,0,3.74,1,5.31,3.02c1.96,2.49,2.94,5.87,2.94,10.14c0,2.98,-0.43,5.52,-1.29,7.61c-0.86,2.08,-1.95,3.6,-3.29,4.54c-1.33,0.94,-2.62,1.41,-3.86,1.41c-2.45,0,-4.5,-1.44,-6.13,-4.34c-1.38,-2.44,-2.07,-5.38,-2.07,-8.83m3.72,0.47c0,3.54,0.43,6.43,1.31,8.68c0.72,1.88,1.79,2.83,3.22,2.83c0.68,0,1.39,-0.3,2.12,-0.92c0.73,-0.61,1.29,-1.64,1.67,-3.08c0.58,-2.17,0.87,-5.24,0.87,-9.21c0,-2.93,-0.3,-5.38,-0.91,-7.35c-0.45,-1.45,-1.04,-2.48,-1.76,-3.09c-0.51,-0.41,-1.14,-0.62,-1.88,-0.62c-0.86,0,-1.62,0.38,-2.29,1.15c-0.91,1.05,-1.53,2.7,-1.86,4.95c-0.32,2.25,-0.49,4.47,-0.49,6.66m16.46,18.72l0,-0.83c1.3,-0.43,2.31,-1.09,3.02,-2c0.71,-0.9,1.07,-1.86,1.07,-2.87c0,-0.24,-0.05,-0.44,-0.17,-0.6c-0.08,-0.11,-0.17,-0.17,-0.26,-0.17c-0.13,0,-0.44,0.12,-0.91,0.37c-0.22,0.11,-0.46,0.17,-0.72,0.17c-0.62,0,-1.11,-0.18,-1.48,-0.55c-0.36,-0.36,-0.55,-0.87,-0.55,-1.51c0,-0.62,0.23,-1.15,0.71,-1.59c0.47,-0.44,1.05,-0.66,1.73,-0.66c0.83,0,1.57,0.36,2.23,1.09c0.65,0.72,0.97,1.69,0.97,2.89c0,1.3,-0.45,2.51,-1.35,3.63c-0.9,1.12,-2.33,2,-4.3,2.64m9.01,-19.2c0,-2.93,0.44,-5.46,1.32,-7.58c0.88,-2.12,2.06,-3.7,3.53,-4.73c1.13,-0.82,2.31,-1.23,3.53,-1.23c1.97,0,3.74,1,5.31,3.02c1.96,2.49,2.94,5.87,2.94,10.14c0,2.98,-0.43,5.52,-1.29,7.61c-0.86,2.08,-1.95,3.6,-3.29,4.54c-1.33,0.94,-2.62,1.41,-3.86,1.41c-2.45,0,-4.5,-1.44,-6.13,-4.34c-1.38,-2.44,-2.07,-5.38,-2.07,-8.83m3.72,0.47c0,3.54,0.43,6.43,1.31,8.68c0.72,1.88,1.79,2.83,3.22,2.83c0.68,0,1.39,-0.3,2.12,-0.92c0.73,-0.61,1.29,-1.64,1.67,-3.08c0.58,-2.17,0.87,-5.24,0.87,-9.21c0,-2.93,-0.3,-5.38,-0.91,-7.35c-0.45,-1.45,-1.04,-2.48,-1.76,-3.09c-0.51,-0.41,-1.14,-0.62,-1.88,-0.62c-0.86,0,-1.62,0.38,-2.29,1.15c-0.91,1.05,-1.53,2.7,-1.86,4.95c-0.32,2.25,-0.49,4.47,-0.49,6.66m18.93,-10.97l6.26,-3.05l0.62,0l0,21.74c0,1.44,0.06,2.34,0.18,2.69c0.12,0.35,0.37,0.62,0.75,0.81c0.37,0.18,1.15,0.29,2.31,0.32l0,0.7l-9.68,0l0,-0.7c1.21,-0.02,2,-0.12,2.35,-0.31c0.35,-0.18,0.6,-0.43,0.74,-0.74c0.13,-0.31,0.2,-1.23,0.2,-2.78l0,-13.9c0,-1.87,-0.06,-3.07,-0.18,-3.6c-0.08,-0.4,-0.25,-0.7,-0.48,-0.89c-0.23,-0.18,-0.51,-0.28,-0.84,-0.28c-0.46,0,-1.12,0.19,-1.95,0.58l-0.28,-0.58" fill="#000000" stroke="none" fill-opacity="1"/>
<path d="m912.31,1079.31c0,-2.93,0.44,-5.46,1.32,-7.58c0.88,-2.12,2.06,-3.7,3.53,-4.73c1.13,-0.82,2.31,-1.23,3.53,-1.23c1.97,0,3.74,1,5.31,3.02c1.96,2.49,2.94,5.87,2.94,10.14c0,2.98,-0.43,5.52,-1.29,7.61c-0.86,2.08,-1.95,3.6,-3.29,4.54c-1.33,0.94,-2.62,1.41,-3.86,1.41c-2.45,0,-4.5,-1.44,-6.13,-4.34c-1.38,-2.44,-2.07,-5.38,-2.07,-8.83m3.72,0.47c0,3.54,0.43,6.43,1.31,8.68c0.72,1.88,1.79,2.83,3.22,2.83c0.68,0,1.39,-0.3,2.12,-0.92c0.73,-0.61,1.29,-1.64,1.67,-3.08c0.58,-2.17,0.87,-5.24,0.87,-9.21c0,-2.93,-0.3,-5.38,-0.91,-7.35c-0.45,-1.45,-1.04,-2.48,-1.76,-3.09c-0.51,-0.41,-1.14,-0.62,-1.88,-0.62c-0.86,0,-1.62,0.38,-2.29,1.15c-0.91,1.05,-1.53,2.7,-1.86,4.95c-0.32,2.25,-0.49,4.47,-0.49,6.66m16.46,18.72l0,-0.83c1.3,-0.43,2.31,-1.09,3.02,-2c0.71,-0.9,1.07,-1.86,1.07,-2.87c0,-0.24,-0.05,-0.44,-0.17,-0.6c-0.08,-0.11,-0.17,-0.17,-0.26,-0.17c-0.13,0,-0.44,0.12,-0.91,0.37c-0.22,0.11,-0.46,0.17,-0.72,0.17c-0.62,0,-1.11,-0.18,-1.48,-0.55c-0.36,-0.36,-0.55,-0.87,-0.55,-1.51c0,-0.62,0.23,-1.15,0.71,-1.59c0.47,-0.44,1.05,-0.66,1.73,-0.66c0.83,0,1.57,0.36,2.23,1.09c0.65,0.72,0.97,1.69,0.97,2.89c0,1.3,-0.45,2.51,-1.35,3.63c-0.9,1.12,-2.33,2,-4.3,2.64m12.16,-29.7l6.26,-3.05l0.62,0l0,21.74c0,1.44,0.06,2.34,0.18,2.69c0.12,0.35,0.37,0.62,0.75,0.81c0.37,0.18,1.15,0.29,2.31,0.32l0,0.7l-9.68,0l0,-0.7c1.21,-0.02,2,-0.12,2.35,-0.31c0.35,-0.18,0.6,-0.43,0.74,-0.74c0.13,-0.31,0.2,-1.23,0.2,-2.78l0,-13.9c0,-1.87,-0.06,-3.07,-0.18,-3.6c-0.08,-0.4,-0.25,-0.7,-0.48,-0.89c-0.23,-0.18,-0.51,-0.28,-0.84,-0.28c-0.46,0,-1.12,0.19,-1.95,0.58l-0.28,-0.58" fill="#000000" stroke="none" fill-opacity="1"/>
</g>
<g fill="none" stroke-linecap="butt" stroke-width="1.38">
<path d="M1165.35,1047.24l0,-1031.49"/>
<path d="M1165.35,953.17l-8.33,0M1165.35,898.15l-8.33,0M1165.35,859.11l-8.33,0M1165.35,828.83l-8.33,0M1165.35,804.08l-8.33,0M1165.35,783.17l-8.33,0M1165.35,765.04l-8.33,0M1165.35,749.06l-8.33,0M1165.35,640.7l-8.33,0M1165.35,585.67l-8.33,0M1165.35,546.63l-8.33,0M1165.35,516.35l-8.33,0M1165.35,491.61l-8.33,0M1165.35,470.69l-8.33,0M1165.35,452.57l-8.33,0M1165.35,436.58l-8.33,0M1165.35,328.22l-8.33,0M1165.35,273.2l-8.33,0M1165.35,234.16l-8.33,0M1165.35,203.87l-8.33,0M1165.35,179.13l-8.33,0M1165.35,158.21l-8.33,0M1165.35,140.09l-8.33,0M1165.35,124.11l-8.33,0M1165.35,15.74l-8.33,0"/>
<path d="M1165.35,1047.24l-16.66,0M1165.35,734.76l-16.66,0M1165.35,422.29l-16.66,0M1165.35,109.81l-16.66,0"/>
<path d="M133.85,15.74l1031.49,0"/>
<path d="M133.85,15.74l0,8.33M153.4,15.74l0,8.33M285.94,15.74l0,8.33M353.24,15.74l0,8.33M400.99,15.74l0,8.33M438.02,15.74l0,8.33M468.29,15.74l0,8.33M493.87,15.74l0,8.33M516.03,15.74l0,8.33M535.58,15.74l0,8.33M668.12,15.74l0,8.33M735.42,15.74l0,8.33M783.17,15.74l0,8.33M820.21,15.74l0,8.33M850.47,15.74l0,8.33M876.05,15.74l0,8.33M898.22,15.74l0,8.33M917.77,15.74l0,8.33M1050.3,15.74l0,8.33M1117.6,15.74l0,8.33M1165.35,15.74l0,8.33"/>
<path d="M170.89,15.74l0,16.66M553.07,15.74l0,16.66M935.25,15.74l0,16.66"/>
</g>
</g>
</g>
</svg>
