<?xml version="1.0" standalone="no"?>
<!DOCTYPE svg PUBLIC "-//W3C//DTD SVG 1.1//EN"
  "http://www.w3.org/Graphics/SVG/1.1/DTD/svg11.dtd">
<svg width="566.92px" height="566.92px" version="1.1"
    xmlns="http://www.w3.org/2000/svg"
    xmlns:xlink="http://www.w3.org/1999/xlink">
<desc>Veusz output document</desc>
<defs>
<clipPath id="c0">
<path d="m0,0l566.92,0l0,566.92l-566.92,0l0,-566.92"/>
</clipPath>
<clipPath id="c1">
<path d="m64.25,7.55l495.11,0l0,495.11l-495.11,0l0,-495.11"/>
</clipPath>
</defs>
<g stroke-linejoin="bevel" stroke-linecap="square" stroke="#000000" fill-rule="evenodd">
<g clip-path="url(#c0)">
<g fill="#ffffff" stroke-width="0.66">
<path d="m64.25,7.55l495.11,0l0,495.11l-495.11,0l0,-495.11"/>
</g>
</g>
<g clip-path="url(#c1)">
<g fill="#e41a1c" stroke-linejoin="miter" stroke-width="0.66">
<g transform="translate(552.73,420.15)">
<path d="m4,0c0,2.2,-1.79,4,-4,4c-2.2,0,-4,-1.79,-4,-4c0,-2.2,1.79,-4,4,-4c2.2,0,4,1.79,4,4" id="p0"/>
</g>
<use xlink:href="#p0" x="504.45" y="420.15"/>
<use xlink:href="#p0" x="468.87" y="420.15"/>
<use xlink:href="#p0" x="392.35" y="420.15"/>
<use xlink:href="#p0" x="344.07" y="420.15"/>
<use xlink:href="#p0" x="308.49" y="407.77"/>
<use xlink:href="#p0" x="231.97" y="321.13"/>
<use xlink:href="#p0" x="183.69" y="213.85"/>
<use xlink:href="#p0" x="148.11" y="172.59"/>
<use xlink:href="#p0" x="71.59" y="131.33"/>
</g>
</g>
<g clip-path="url(#c0)">
<g fill="none" stroke-linecap="butt" stroke-width="0.66">
<path d="M64.25,502.67l0,-495.11"/>
<path d="M64.25,502.67l4,0M64.25,482.04l4,0M64.25,461.41l4,0M64.25,440.78l4,0M64.25,420.15l4,0M64.25,399.52l4,0M64.25,378.89l4,0M64.25,358.26l4,0M64.25,337.63l4,0M64.25,317l4,0M64.25,296.37l4,0M64.25,275.74l4,0M64.25,255.11l4,0M64.25,234.48l4,0M64.25,213.85l4,0M64.25,193.22l4,0M64.25,172.59l4,0M64.25,151.96l4,0M64.25,131.33l4,0M64.25,110.7l4,0M64.25,90.07l4,0M64.25,69.44l4,0M64.25,48.81l4,0M64.25,28.18l4,0"/>
<path d="M64.25,502.67l8,0M64.25,420.15l8,0M64.25,337.63l8,0M64.25,255.11l8,0M64.25,172.59l8,0M64.25,90.07l8,0"/>
</g>
<g fill="none" stroke-width="0.1">
<g transform="matrix(0 -1 1 0 16.7 341.01)">
<path d="m5.77,-0.33l0,0.33l-5.3,0l0,-0.33l0.43,0c0.51,0,0.88,-0.14,1.11,-0.44c0.14,-0.19,0.21,-0.66,0.21,-1.4l0,-7.99c0,-0.62,-0.03,-1.04,-0.11,-1.24c-0.06,-0.15,-0.18,-0.28,-0.37,-0.39c-0.26,-0.14,-0.54,-0.21,-0.84,-0.21l-0.43,0l0,-0.33l5.3,0l0,0.33l-0.44,0c-0.5,0,-0.87,0.14,-1.1,0.44c-0.15,0.19,-0.22,0.66,-0.22,1.4l0,7.99c0,0.62,0.03,1.04,0.11,1.24c0.06,0.15,0.18,0.28,0.38,0.39c0.26,0.14,0.53,0.21,0.83,0.21l0.44,0m3.44,-10.77l0,2.74l1.95,0l0,0.63l-1.95,0l0,5.42c0,0.54,0.07,0.9,0.23,1.09c0.15,0.18,0.35,0.28,0.59,0.28c0.2,0,0.39,-0.06,0.58,-0.18c0.18,-0.12,0.33,-0.3,0.43,-0.55l0.35,0c-0.21,0.59,-0.51,1.04,-0.9,1.34c-0.38,0.3,-0.79,0.45,-1.2,0.45c-0.28,0,-0.55,-0.07,-0.82,-0.23c-0.26,-0.15,-0.46,-0.37,-0.59,-0.66c-0.12,-0.28,-0.19,-0.73,-0.19,-1.33l0,-5.62l-1.32,0l0,-0.3c0.33,-0.13,0.67,-0.36,1.02,-0.68c0.35,-0.31,0.66,-0.69,0.93,-1.13c0.14,-0.23,0.33,-0.65,0.58,-1.26l0.28,0m4.17,5.89c0,1.24,0.29,2.21,0.9,2.92c0.6,0.7,1.32,1.05,2.14,1.05c0.54,0,1.02,-0.15,1.42,-0.45c0.4,-0.3,0.74,-0.81,1.01,-1.54l0.28,0.18c-0.12,0.83,-0.49,1.59,-1.11,2.27c-0.61,0.68,-1.38,1.02,-2.31,1.02c-1,0,-1.86,-0.39,-2.57,-1.17c-0.71,-0.78,-1.07,-1.83,-1.07,-3.15c0,-1.43,0.36,-2.54,1.1,-3.34c0.73,-0.8,1.65,-1.2,2.76,-1.2c0.93,0,1.7,0.3,2.31,0.92c0.6,0.61,0.9,1.44,0.9,2.47l-5.77,0m0,-0.52l3.87,0c-0.03,-0.53,-0.09,-0.91,-0.19,-1.13c-0.15,-0.34,-0.37,-0.6,-0.68,-0.8c-0.3,-0.19,-0.61,-0.29,-0.94,-0.29c-0.5,0,-0.95,0.19,-1.35,0.58c-0.39,0.39,-0.63,0.93,-0.69,1.63m9.34,-2.86l0,1.88c0.7,-1.25,1.41,-1.88,2.15,-1.88c0.33,0,0.61,0.1,0.83,0.3c0.21,0.2,0.32,0.43,0.32,0.7c0,0.23,-0.07,0.43,-0.23,0.6c-0.15,0.16,-0.34,0.24,-0.56,0.24c-0.21,0,-0.45,-0.1,-0.71,-0.31c-0.26,-0.21,-0.46,-0.31,-0.58,-0.31c-0.1,0,-0.22,0.06,-0.35,0.18c-0.27,0.24,-0.55,0.66,-0.84,1.23l0,4c0,0.46,0.05,0.81,0.17,1.05c0.07,0.16,0.21,0.3,0.42,0.41c0.2,0.1,0.49,0.16,0.86,0.16l0,0.32l-4.28,0l0,-0.32c0.42,0,0.74,-0.06,0.94,-0.2c0.15,-0.09,0.25,-0.25,0.31,-0.46c0.03,-0.1,0.04,-0.39,0.04,-0.88l0,-3.24c0,-0.97,-0.01,-1.55,-0.05,-1.73c-0.03,-0.18,-0.11,-0.32,-0.21,-0.4c-0.1,-0.08,-0.23,-0.12,-0.39,-0.12c-0.18,0,-0.4,0.04,-0.63,0.13l-0.09,-0.32l2.52,-1.02l0.38,0m8.49,7.4c-0.85,0.66,-1.39,1.04,-1.61,1.15c-0.32,0.15,-0.67,0.22,-1.05,0.22c-0.57,0,-1.05,-0.19,-1.42,-0.59c-0.37,-0.39,-0.56,-0.91,-0.56,-1.56c0,-0.4,0.09,-0.76,0.27,-1.05c0.24,-0.41,0.68,-0.8,1.3,-1.16c0.61,-0.36,1.64,-0.8,3.08,-1.33l0,-0.32c0,-0.83,-0.13,-1.4,-0.39,-1.71c-0.26,-0.31,-0.64,-0.46,-1.15,-0.46c-0.38,0,-0.68,0.1,-0.91,0.31c-0.23,0.2,-0.34,0.44,-0.34,0.71l0.01,0.52c0,0.28,-0.07,0.49,-0.21,0.64c-0.14,0.15,-0.33,0.22,-0.56,0.22c-0.22,0,-0.4,-0.07,-0.55,-0.23c-0.14,-0.15,-0.21,-0.37,-0.21,-0.64c0,-0.52,0.26,-1,0.8,-1.44c0.53,-0.43,1.28,-0.65,2.25,-0.65c0.74,0,1.35,0.12,1.82,0.37c0.35,0.18,0.62,0.48,0.79,0.88c0.1,0.26,0.16,0.79,0.16,1.6l0,2.83c0,0.79,0.01,1.28,0.04,1.46c0.03,0.17,0.08,0.29,0.15,0.36c0.07,0.06,0.15,0.09,0.24,0.09c0.09,0,0.18,-0.02,0.25,-0.06c0.12,-0.07,0.37,-0.3,0.73,-0.66l0,0.51c-0.68,0.91,-1.33,1.36,-1.95,1.36c-0.29,0,-0.53,-0.1,-0.71,-0.31c-0.17,-0.2,-0.26,-0.56,-0.27,-1.05m0,-0.59l0,-3.18c-0.91,0.36,-1.51,0.62,-1.78,0.77c-0.48,0.26,-0.82,0.54,-1.03,0.84c-0.2,0.29,-0.31,0.61,-0.31,0.95c0,0.43,0.13,0.8,0.39,1.09c0.26,0.28,0.56,0.43,0.9,0.43c0.46,0,1.07,-0.3,1.82,-0.91m5.98,-9.31l0,2.74l1.95,0l0,0.63l-1.95,0l0,5.42c0,0.54,0.07,0.9,0.23,1.09c0.15,0.18,0.35,0.28,0.59,0.28c0.2,0,0.39,-0.06,0.58,-0.18c0.18,-0.12,0.33,-0.3,0.43,-0.55l0.35,0c-0.21,0.59,-0.51,1.04,-0.9,1.34c-0.38,0.3,-0.79,0.45,-1.2,0.45c-0.28,0,-0.55,-0.07,-0.82,-0.23c-0.26,-0.15,-0.46,-0.37,-0.59,-0.66c-0.12,-0.28,-0.19,-0.73,-0.19,-1.33l0,-5.62l-1.32,0l0,-0.3c0.33,-0.13,0.67,-0.36,1.02,-0.68c0.35,-0.31,0.66,-0.69,0.93,-1.13c0.14,-0.23,0.33,-0.65,0.58,-1.26l0.28,0m4.89,-1.87c0.25,0,0.47,0.08,0.65,0.26c0.17,0.17,0.26,0.39,0.26,0.65c0,0.25,-0.08,0.47,-0.26,0.65c-0.17,0.18,-0.39,0.27,-0.65,0.27c-0.25,0,-0.47,-0.09,-0.65,-0.27c-0.18,-0.18,-0.27,-0.4,-0.27,-0.65c0,-0.25,0.08,-0.47,0.26,-0.65c0.17,-0.17,0.4,-0.26,0.66,-0.26m0.75,4.37l0,6.72c0,0.52,0.03,0.87,0.11,1.04c0.07,0.17,0.18,0.3,0.33,0.38c0.14,0.08,0.42,0.12,0.81,0.12l0,0.32l-4.06,0l0,-0.32c0.4,0,0.68,-0.03,0.82,-0.11c0.14,-0.07,0.25,-0.21,0.33,-0.39c0.08,-0.18,0.12,-0.53,0.12,-1.05l0,-3.22c0,-0.9,-0.02,-1.49,-0.08,-1.76c-0.04,-0.19,-0.1,-0.33,-0.2,-0.4c-0.09,-0.07,-0.21,-0.11,-0.37,-0.11c-0.17,0,-0.37,0.04,-0.62,0.13l-0.12,-0.32l2.52,-1.02l0.4,0m6.4,0c1.26,0,2.28,0.48,3.04,1.44c0.65,0.82,0.97,1.76,0.97,2.83c0,0.74,-0.17,1.5,-0.53,2.27c-0.35,0.76,-0.85,1.34,-1.48,1.73c-0.63,0.38,-1.33,0.58,-2.1,0.58c-1.26,0,-2.26,-0.5,-3,-1.5c-0.62,-0.84,-0.94,-1.79,-0.94,-2.84c0,-0.76,0.19,-1.52,0.57,-2.28c0.38,-0.75,0.88,-1.31,1.5,-1.68c0.62,-0.36,1.27,-0.54,1.97,-0.54m-0.28,0.59c-0.32,0,-0.64,0.09,-0.97,0.28c-0.32,0.19,-0.58,0.52,-0.78,1c-0.2,0.48,-0.3,1.09,-0.3,1.85c0,1.21,0.24,2.26,0.72,3.15c0.48,0.88,1.12,1.32,1.91,1.32c0.59,0,1.07,-0.24,1.46,-0.73c0.38,-0.48,0.57,-1.32,0.57,-2.51c0,-1.48,-0.31,-2.65,-0.95,-3.5c-0.43,-0.58,-0.98,-0.87,-1.65,-0.87m8.03,1.17c0.98,-1.18,1.91,-1.77,2.8,-1.77c0.45,0,0.84,0.11,1.17,0.34c0.32,0.22,0.59,0.6,0.78,1.12c0.13,0.36,0.2,0.92,0.2,1.68l0,3.57c0,0.52,0.04,0.88,0.12,1.07c0.06,0.15,0.17,0.27,0.32,0.35c0.14,0.08,0.42,0.12,0.82,0.12l0,0.32l-4.13,0l0,-0.32l0.17,0c0.38,0,0.66,-0.05,0.81,-0.17c0.15,-0.11,0.26,-0.29,0.32,-0.52c0.02,-0.09,0.03,-0.37,0.03,-0.85l0,-3.42c0,-0.76,-0.09,-1.31,-0.29,-1.65c-0.19,-0.34,-0.53,-0.51,-0.99,-0.51c-0.72,0,-1.44,0.39,-2.16,1.18l0,4.41c0,0.56,0.03,0.91,0.1,1.05c0.08,0.17,0.2,0.3,0.35,0.38c0.14,0.08,0.45,0.12,0.9,0.12l0,0.32l-4.13,0l0,-0.32l0.18,0c0.42,0,0.71,-0.1,0.86,-0.32c0.14,-0.21,0.22,-0.62,0.22,-1.23l0,-3.1c0,-1,-0.02,-1.61,-0.06,-1.83c-0.04,-0.21,-0.11,-0.36,-0.21,-0.44c-0.09,-0.07,-0.22,-0.11,-0.37,-0.11c-0.17,0,-0.37,0.04,-0.61,0.13l-0.13,-0.32l2.52,-1.02l0.39,0l0,1.77m15.75,-1.77c1.26,0,2.28,0.48,3.04,1.44c0.65,0.82,0.97,1.76,0.97,2.83c0,0.74,-0.17,1.5,-0.53,2.27c-0.35,0.76,-0.85,1.34,-1.48,1.73c-0.63,0.38,-1.33,0.58,-2.1,0.58c-1.26,0,-2.26,-0.5,-3,-1.5c-0.62,-0.84,-0.94,-1.79,-0.94,-2.84c0,-0.76,0.19,-1.52,0.57,-2.28c0.38,-0.75,0.88,-1.31,1.5,-1.68c0.62,-0.36,1.27,-0.54,1.97,-0.54m-0.28,0.59c-0.32,0,-0.64,0.09,-0.97,0.28c-0.32,0.19,-0.58,0.52,-0.78,1c-0.2,0.48,-0.3,1.09,-0.3,1.85c0,1.21,0.24,2.26,0.72,3.15c0.48,0.88,1.12,1.32,1.91,1.32c0.59,0,1.07,-0.24,1.46,-0.73c0.38,-0.48,0.57,-1.32,0.57,-2.51c0,-1.48,-0.31,-2.65,-0.95,-3.5c-0.43,-0.58,-0.98,-0.87,-1.65,-0.87m8.86,0.31l0,5.49c0,0.77,0.08,1.27,0.25,1.47c0.22,0.26,0.52,0.4,0.9,0.4l0.75,0l0,0.32l-4.99,0l0,-0.32l0.37,0c0.24,0,0.46,-0.06,0.66,-0.18c0.2,-0.12,0.33,-0.28,0.41,-0.49c0.07,-0.2,0.11,-0.6,0.11,-1.2l0,-5.49l-1.62,0l0,-0.65l1.62,0l0,-0.54c0,-0.83,0.13,-1.54,0.4,-2.11c0.26,-0.57,0.67,-1.04,1.22,-1.4c0.55,-0.35,1.17,-0.53,1.85,-0.53c0.63,0,1.22,0.2,1.76,0.62c0.35,0.27,0.52,0.58,0.52,0.92c0,0.18,-0.07,0.35,-0.23,0.51c-0.15,0.16,-0.32,0.24,-0.51,0.24c-0.14,0,-0.28,-0.05,-0.44,-0.15c-0.15,-0.1,-0.34,-0.31,-0.57,-0.64c-0.22,-0.33,-0.43,-0.55,-0.62,-0.67c-0.18,-0.11,-0.39,-0.17,-0.63,-0.17c-0.28,0,-0.51,0.07,-0.71,0.22c-0.19,0.14,-0.33,0.38,-0.42,0.69c-0.08,0.31,-0.12,1.12,-0.12,2.42l0,0.6l2.15,0l0,0.65l-2.15,0m10.01,0.87c0.6,-0.6,0.96,-0.95,1.07,-1.05c0.27,-0.23,0.56,-0.41,0.88,-0.53c0.31,-0.12,0.63,-0.19,0.94,-0.19c0.52,0,0.97,0.15,1.35,0.45c0.37,0.3,0.63,0.74,0.75,1.32c0.62,-0.73,1.15,-1.2,1.58,-1.43c0.43,-0.22,0.87,-0.34,1.33,-0.34c0.44,0,0.83,0.11,1.18,0.34c0.34,0.22,0.61,0.6,0.81,1.11c0.13,0.35,0.2,0.9,0.2,1.66l0,3.59c0,0.52,0.03,0.88,0.11,1.07c0.06,0.13,0.17,0.24,0.33,0.34c0.16,0.09,0.43,0.14,0.8,0.14l0,0.32l-4.12,0l0,-0.32l0.17,0c0.35,0,0.63,-0.07,0.84,-0.21c0.14,-0.09,0.24,-0.25,0.3,-0.46c0.02,-0.1,0.03,-0.39,0.03,-0.88l0,-3.59c0,-0.68,-0.08,-1.16,-0.24,-1.44c-0.23,-0.38,-0.61,-0.58,-1.14,-0.58c-0.32,0,-0.64,0.08,-0.97,0.24c-0.32,0.16,-0.71,0.46,-1.18,0.89l-0.01,0.1l0.01,0.39l0,3.99c0,0.57,0.03,0.92,0.09,1.06c0.06,0.14,0.18,0.25,0.36,0.35c0.17,0.09,0.47,0.14,0.9,0.14l0,0.32l-4.22,0l0,-0.32c0.46,0,0.78,-0.05,0.95,-0.16c0.17,-0.1,0.29,-0.27,0.36,-0.49c0.03,-0.1,0.04,-0.4,0.04,-0.9l0,-3.59c0,-0.68,-0.1,-1.17,-0.3,-1.47c-0.26,-0.38,-0.64,-0.58,-1.12,-0.58c-0.32,0,-0.65,0.08,-0.97,0.26c-0.5,0.26,-0.89,0.56,-1.16,0.9l0,4.48c0,0.54,0.03,0.9,0.11,1.06c0.07,0.16,0.18,0.28,0.33,0.36c0.14,0.08,0.45,0.12,0.9,0.12l0,0.32l-4.13,0l0,-0.32c0.38,0,0.65,-0.04,0.8,-0.12c0.15,-0.08,0.26,-0.21,0.34,-0.39c0.07,-0.17,0.11,-0.52,0.11,-1.04l0,-3.19c0,-0.91,-0.02,-1.51,-0.08,-1.78c-0.04,-0.2,-0.1,-0.33,-0.2,-0.41c-0.09,-0.07,-0.21,-0.11,-0.37,-0.11c-0.17,0,-0.37,0.04,-0.61,0.13l-0.13,-0.32l2.52,-1.02l0.39,0l0,1.78m16.55,5.62c-0.85,0.66,-1.39,1.04,-1.61,1.15c-0.32,0.15,-0.67,0.22,-1.05,0.22c-0.57,0,-1.05,-0.19,-1.42,-0.59c-0.37,-0.39,-0.56,-0.91,-0.56,-1.56c0,-0.4,0.09,-0.76,0.27,-1.05c0.24,-0.41,0.68,-0.8,1.3,-1.16c0.61,-0.36,1.64,-0.8,3.08,-1.33l0,-0.32c0,-0.83,-0.13,-1.4,-0.39,-1.71c-0.26,-0.31,-0.64,-0.46,-1.15,-0.46c-0.38,0,-0.68,0.1,-0.91,0.31c-0.23,0.2,-0.34,0.44,-0.34,0.71l0.01,0.52c0,0.28,-0.07,0.49,-0.21,0.64c-0.14,0.15,-0.33,0.22,-0.56,0.22c-0.22,0,-0.4,-0.07,-0.55,-0.23c-0.14,-0.15,-0.21,-0.37,-0.21,-0.64c0,-0.52,0.26,-1,0.8,-1.44c0.53,-0.43,1.28,-0.65,2.25,-0.65c0.74,0,1.35,0.12,1.82,0.37c0.35,0.18,0.62,0.48,0.79,0.88c0.1,0.26,0.16,0.79,0.16,1.6l0,2.83c0,0.79,0.01,1.28,0.04,1.46c0.03,0.17,0.08,0.29,0.15,0.36c0.07,0.06,0.15,0.09,0.24,0.09c0.09,0,0.18,-0.02,0.25,-0.06c0.12,-0.07,0.37,-0.3,0.73,-0.66l0,0.51c-0.68,0.91,-1.33,1.36,-1.95,1.36c-0.29,0,-0.53,-0.1,-0.71,-0.31c-0.17,-0.2,-0.26,-0.56,-0.27,-1.05m0,-0.59l0,-3.18c-0.91,0.36,-1.51,0.62,-1.78,0.77c-0.48,0.26,-0.82,0.54,-1.03,0.84c-0.2,0.29,-0.31,0.61,-0.31,0.95c0,0.43,0.13,0.8,0.39,1.09c0.26,0.28,0.56,0.43,0.9,0.43c0.46,0,1.07,-0.3,1.82,-0.91m3.22,-6.56l3.93,0l0,0.33c-0.24,0,-0.42,0.04,-0.52,0.12c-0.1,0.08,-0.15,0.19,-0.15,0.33c0,0.14,0.1,0.37,0.31,0.67c0.06,0.09,0.16,0.24,0.3,0.45l0.59,0.94l0.68,-0.94c0.43,-0.6,0.65,-0.98,0.65,-1.14c0,-0.12,-0.05,-0.23,-0.15,-0.32c-0.1,-0.08,-0.27,-0.13,-0.5,-0.13l0,-0.33l2.83,0l0,0.33c-0.29,0.01,-0.55,0.1,-0.77,0.24c-0.29,0.2,-0.7,0.65,-1.22,1.35l-1.14,1.52l2.08,2.99c0.51,0.73,0.87,1.17,1.09,1.32c0.21,0.14,0.5,0.23,0.84,0.25l0,0.32l-3.94,0l0,-0.32c0.27,0,0.48,-0.06,0.63,-0.18c0.11,-0.08,0.17,-0.19,0.17,-0.33c0,-0.14,-0.19,-0.49,-0.58,-1.05l-1.22,-1.78l-1.34,1.78c-0.41,0.55,-0.62,0.88,-0.62,0.98c0,0.14,0.06,0.27,0.2,0.39c0.13,0.11,0.34,0.18,0.61,0.19l0,0.32l-2.73,0l0,-0.32c0.21,-0.03,0.41,-0.1,0.57,-0.22c0.23,-0.17,0.62,-0.62,1.16,-1.35l1.75,-2.32l-1.58,-2.3c-0.45,-0.65,-0.79,-1.06,-1.04,-1.23c-0.24,-0.16,-0.55,-0.25,-0.92,-0.25l0,-0.33m17.68,2.56l0,3.6c0,0.77,0.08,1.26,0.25,1.45c0.23,0.26,0.58,0.4,1.05,0.4l0.47,0l0,0.33l-5.3,0l0,-0.33l0.46,0c0.52,0,0.89,-0.17,1.12,-0.51c0.12,-0.18,0.18,-0.63,0.18,-1.34l0,-7.99c0,-0.77,-0.08,-1.26,-0.24,-1.45c-0.23,-0.26,-0.59,-0.4,-1.05,-0.4l-0.46,0l0,-0.33l4.53,0c1.1,0,1.98,0.11,2.62,0.34c0.63,0.22,1.17,0.61,1.61,1.15c0.43,0.54,0.65,1.18,0.65,1.92c0,1.01,-0.33,1.83,-0.99,2.46c-0.66,0.63,-1.6,0.94,-2.82,0.94c-0.29,0,-0.62,-0.02,-0.96,-0.06c-0.34,-0.04,-0.71,-0.1,-1.11,-0.19m0,-0.52c0.32,0.06,0.6,0.1,0.85,0.13c0.24,0.03,0.46,0.04,0.63,0.04c0.63,0,1.17,-0.24,1.63,-0.73c0.45,-0.49,0.68,-1.12,0.68,-1.9c0,-0.53,-0.1,-1.03,-0.32,-1.49c-0.21,-0.45,-0.52,-0.8,-0.93,-1.03c-0.4,-0.22,-0.85,-0.34,-1.36,-0.34c-0.31,0,-0.7,0.05,-1.19,0.17l0,5.14m15.13,-6.34l0,4.28l-0.33,0c-0.1,-0.82,-0.3,-1.47,-0.58,-1.96c-0.28,-0.48,-0.68,-0.87,-1.2,-1.15c-0.52,-0.28,-1.06,-0.42,-1.62,-0.42c-0.63,0,-1.15,0.19,-1.57,0.57c-0.41,0.38,-0.62,0.82,-0.62,1.31c0,0.37,0.13,0.72,0.39,1.03c0.37,0.45,1.27,1.06,2.69,1.82c1.15,0.62,1.94,1.09,2.36,1.42c0.42,0.33,0.74,0.72,0.97,1.17c0.22,0.45,0.34,0.92,0.34,1.41c0,0.93,-0.36,1.74,-1.09,2.42c-0.72,0.67,-1.66,1.01,-2.8,1.01c-0.35,0,-0.69,-0.02,-1.01,-0.08c-0.18,-0.03,-0.57,-0.14,-1.17,-0.33c-0.59,-0.19,-0.96,-0.28,-1.12,-0.28c-0.15,0,-0.27,0.04,-0.36,0.13c-0.08,0.09,-0.15,0.28,-0.19,0.56l-0.33,0l0,-4.24l0.33,0c0.15,0.88,0.37,1.55,0.63,1.99c0.26,0.44,0.67,0.8,1.22,1.1c0.55,0.29,1.15,0.43,1.81,0.43c0.76,0,1.36,-0.2,1.8,-0.6c0.44,-0.4,0.66,-0.87,0.66,-1.42c0,-0.3,-0.08,-0.61,-0.25,-0.92c-0.16,-0.31,-0.42,-0.59,-0.78,-0.86c-0.23,-0.18,-0.88,-0.57,-1.94,-1.16c-1.05,-0.59,-1.81,-1.06,-2.25,-1.41c-0.44,-0.35,-0.78,-0.74,-1.01,-1.16c-0.23,-0.42,-0.34,-0.89,-0.34,-1.4c0,-0.88,0.34,-1.65,1.02,-2.29c0.68,-0.64,1.54,-0.96,2.6,-0.96c0.65,0,1.35,0.16,2.09,0.48c0.34,0.15,0.58,0.22,0.72,0.22c0.15,0,0.28,-0.04,0.38,-0.14c0.1,-0.09,0.18,-0.28,0.24,-0.57l0.33,0m1.57,0.28l3.36,0l7.56,9.28l0,-7.14c0,-0.76,-0.08,-1.23,-0.25,-1.42c-0.22,-0.25,-0.58,-0.38,-1.06,-0.38l-0.42,0l0,-0.33l4.3,0l0,0.33l-0.43,0c-0.52,0,-0.89,0.15,-1.11,0.47c-0.13,0.19,-0.2,0.63,-0.2,1.33l0,10.43l-0.32,0l-8.16,-9.97l0,7.62c0,0.76,0.08,1.23,0.24,1.42c0.23,0.25,0.58,0.38,1.06,0.38l0.43,0l0,0.33l-4.3,0l0,-0.33l0.42,0c0.52,0,0.9,-0.15,1.12,-0.47c0.13,-0.19,0.2,-0.63,0.2,-1.33l0,-8.61c-0.35,-0.42,-0.63,-0.69,-0.81,-0.83c-0.18,-0.13,-0.45,-0.25,-0.81,-0.37c-0.17,-0.05,-0.44,-0.08,-0.8,-0.08l0,-0.33m26.38,12.38l-3.3,0l-4.19,-5.78c-0.31,0.01,-0.56,0.01,-0.75,0.01c-0.07,0,-0.16,0,-0.25,0c-0.09,0,-0.18,0,-0.28,-0.01l0,3.59c0,0.77,0.08,1.26,0.25,1.45c0.23,0.26,0.57,0.4,1.04,0.4l0.48,0l0,0.33l-5.3,0l0,-0.33l0.46,0c0.52,0,0.89,-0.17,1.12,-0.51c0.12,-0.18,0.19,-0.63,0.19,-1.34l0,-7.99c0,-0.77,-0.08,-1.26,-0.25,-1.45c-0.23,-0.26,-0.59,-0.4,-1.05,-0.4l-0.46,0l0,-0.33l4.51,0c1.31,0,2.28,0.09,2.9,0.28c0.62,0.19,1.15,0.54,1.58,1.05c0.43,0.51,0.65,1.12,0.65,1.83c0,0.76,-0.24,1.42,-0.74,1.98c-0.49,0.56,-1.26,0.95,-2.3,1.18l2.55,3.55c0.58,0.81,1.08,1.35,1.5,1.62c0.42,0.26,0.96,0.43,1.64,0.51l0,0.33m-8.79,-6.36c0.11,0,0.21,0,0.3,0c0.08,0,0.15,0,0.21,0c1.18,0,2.07,-0.25,2.67,-0.76c0.59,-0.51,0.89,-1.16,0.89,-1.95c0,-0.77,-0.24,-1.4,-0.72,-1.88c-0.48,-0.48,-1.12,-0.72,-1.92,-0.72c-0.35,0,-0.83,0.05,-1.43,0.17l0,5.14" fill="#000000" stroke="none" fill-opacity="1"/>
</g>
<path d="m27.3,499.05c0.35,-0.83,0.79,-1.47,1.33,-1.93c0.53,-0.45,1.2,-0.68,2.01,-0.68c0.99,0,1.75,0.32,2.28,0.96c0.4,0.48,0.6,0.99,0.6,1.54c0,0.9,-0.56,1.83,-1.69,2.79c0.76,0.29,1.33,0.72,1.72,1.27c0.38,0.55,0.58,1.2,0.58,1.95c0,1.07,-0.34,1.99,-1.02,2.78c-0.88,1.02,-2.17,1.53,-3.86,1.53c-0.83,0,-1.4,-0.1,-1.7,-0.31c-0.3,-0.2,-0.45,-0.42,-0.45,-0.66c0,-0.17,0.07,-0.33,0.21,-0.46c0.14,-0.13,0.31,-0.2,0.51,-0.2c0.15,0,0.3,0.02,0.46,0.07c0.1,0.03,0.33,0.14,0.7,0.33c0.36,0.19,0.61,0.3,0.75,0.34c0.22,0.06,0.46,0.1,0.72,0.1c0.62,0,1.16,-0.24,1.62,-0.72c0.45,-0.48,0.68,-1.05,0.68,-1.7c0,-0.48,-0.1,-0.94,-0.31,-1.4c-0.15,-0.34,-0.33,-0.59,-0.52,-0.77c-0.26,-0.24,-0.62,-0.46,-1.07,-0.66c-0.45,-0.19,-0.92,-0.29,-1.39,-0.29l-0.29,0l0,-0.27c0.48,-0.06,0.96,-0.23,1.44,-0.52c0.48,-0.28,0.83,-0.63,1.05,-1.03c0.21,-0.4,0.32,-0.84,0.32,-1.32c0,-0.62,-0.19,-1.13,-0.58,-1.52c-0.39,-0.38,-0.88,-0.57,-1.46,-0.57c-0.94,0,-1.73,0.5,-2.36,1.51l-0.3,-0.14m9.45,13.13l0,-0.4c0.62,-0.2,1.11,-0.52,1.45,-0.96c0.34,-0.43,0.51,-0.89,0.51,-1.38c0,-0.11,-0.02,-0.21,-0.08,-0.29c-0.04,-0.05,-0.08,-0.08,-0.12,-0.08c-0.06,0,-0.21,0.06,-0.43,0.18c-0.1,0.05,-0.22,0.08,-0.34,0.08c-0.29,0,-0.53,-0.08,-0.71,-0.26c-0.17,-0.17,-0.26,-0.42,-0.26,-0.73c0,-0.29,0.11,-0.55,0.34,-0.76c0.22,-0.21,0.5,-0.31,0.83,-0.31c0.4,0,0.75,0.17,1.07,0.52c0.31,0.35,0.47,0.81,0.47,1.39c0,0.62,-0.21,1.2,-0.65,1.74c-0.43,0.53,-1.12,0.96,-2.06,1.27m4.68,-2.85l0,-0.33c0.79,-0.01,1.52,-0.19,2.2,-0.55c0.68,-0.35,1.34,-0.97,1.97,-1.86c0.63,-0.88,1.07,-1.86,1.32,-2.93c-0.95,0.61,-1.82,0.92,-2.59,0.92c-0.87,0,-1.61,-0.33,-2.23,-1c-0.62,-0.67,-0.93,-1.56,-0.93,-2.67c0,-1.08,0.31,-2.04,0.93,-2.89c0.74,-1.02,1.72,-1.54,2.93,-1.54c1.01,0,1.88,0.42,2.61,1.26c0.88,1.04,1.33,2.32,1.33,3.85c0,1.37,-0.33,2.65,-1.01,3.84c-0.67,1.19,-1.61,2.17,-2.82,2.96c-0.98,0.64,-2.04,0.96,-3.2,0.96l-0.52,0m5.66,-6.36c0.1,-0.79,0.16,-1.42,0.16,-1.89c0,-0.59,-0.1,-1.22,-0.3,-1.91c-0.2,-0.68,-0.48,-1.2,-0.85,-1.57c-0.36,-0.36,-0.78,-0.54,-1.25,-0.54c-0.54,0,-1.01,0.24,-1.42,0.73c-0.4,0.48,-0.61,1.21,-0.61,2.17c0,1.28,0.27,2.28,0.81,3.01c0.39,0.52,0.88,0.78,1.46,0.78c0.28,0,0.61,-0.06,0.99,-0.2c0.38,-0.13,0.72,-0.32,1.01,-0.56m6.34,-0.12c-0.98,-0.8,-1.61,-1.44,-1.89,-1.93c-0.28,-0.48,-0.42,-0.99,-0.42,-1.51c0,-0.8,0.31,-1.49,0.93,-2.07c0.62,-0.58,1.44,-0.87,2.47,-0.87c0.99,0,1.8,0.27,2.41,0.81c0.6,0.54,0.91,1.15,0.91,1.85c0,0.46,-0.16,0.93,-0.49,1.41c-0.32,0.48,-1.01,1.04,-2.05,1.69c1.07,0.82,1.78,1.47,2.12,1.95c0.46,0.62,0.69,1.27,0.69,1.96c0,0.87,-0.33,1.61,-0.99,2.23c-0.66,0.61,-1.53,0.92,-2.61,0.92c-1.17,0,-2.09,-0.36,-2.74,-1.1c-0.52,-0.59,-0.78,-1.23,-0.78,-1.93c0,-0.54,0.18,-1.09,0.55,-1.62c0.36,-0.53,1,-1.13,1.9,-1.78m1.43,-0.97c0.73,-0.65,1.19,-1.17,1.38,-1.55c0.19,-0.38,0.29,-0.81,0.29,-1.29c0,-0.63,-0.17,-1.13,-0.53,-1.5c-0.35,-0.36,-0.84,-0.54,-1.47,-0.54c-0.62,0,-1.12,0.17,-1.51,0.53c-0.38,0.35,-0.58,0.77,-0.58,1.26c0,0.31,0.08,0.63,0.24,0.94c0.16,0.31,0.39,0.61,0.68,0.9l1.49,1.24m-1,1.32c-0.5,0.42,-0.87,0.89,-1.12,1.39c-0.24,0.5,-0.36,1.04,-0.36,1.62c0,0.78,0.21,1.41,0.64,1.88c0.42,0.47,0.97,0.7,1.63,0.7c0.65,0,1.18,-0.18,1.57,-0.55c0.39,-0.37,0.59,-0.82,0.59,-1.35c0,-0.43,-0.11,-0.83,-0.34,-1.17c-0.43,-0.64,-1.3,-1.48,-2.62,-2.52" fill="#000000" stroke="none" fill-opacity="1"/>
<path d="m58.55,421.99l0,1.29l-1.66,0l0,3.26l-1.5,0l0,-3.26l-5.24,0l0,-1.16l5.74,-8.19l1,0l0,8.07l1.66,0m-3.16,0l0,-6.14l-4.34,6.14l4.34,0" fill="#000000" stroke="none" fill-opacity="1"/>
<path d="m35.05,339.47l0,1.29l-1.66,0l0,3.26l-1.5,0l0,-3.26l-5.24,0l0,-1.16l5.74,-8.19l1,0l0,8.07l1.66,0m-3.16,0l0,-6.14l-4.34,6.14l4.34,0m4.87,7.67l0,-0.4c0.62,-0.2,1.11,-0.52,1.45,-0.96c0.34,-0.43,0.51,-0.89,0.51,-1.38c0,-0.11,-0.02,-0.21,-0.08,-0.29c-0.04,-0.05,-0.08,-0.08,-0.12,-0.08c-0.06,0,-0.21,0.06,-0.43,0.18c-0.1,0.05,-0.22,0.08,-0.34,0.08c-0.29,0,-0.53,-0.08,-0.71,-0.26c-0.17,-0.17,-0.26,-0.42,-0.26,-0.73c0,-0.29,0.11,-0.55,0.34,-0.76c0.22,-0.21,0.5,-0.31,0.83,-0.31c0.4,0,0.75,0.17,1.07,0.52c0.31,0.35,0.47,0.81,0.47,1.39c0,0.62,-0.21,1.2,-0.65,1.74c-0.43,0.53,-1.12,0.96,-2.06,1.27m4.37,-9.23c0,-1.41,0.21,-2.62,0.63,-3.64c0.42,-1.01,0.99,-1.77,1.69,-2.27c0.54,-0.39,1.11,-0.59,1.69,-0.59c0.94,0,1.8,0.48,2.55,1.45c0.94,1.19,1.41,2.82,1.41,4.87c0,1.43,-0.2,2.65,-0.62,3.66c-0.41,1,-0.94,1.73,-1.58,2.18c-0.64,0.45,-1.26,0.68,-1.85,0.68c-1.18,0,-2.16,-0.69,-2.94,-2.09c-0.66,-1.17,-0.99,-2.59,-0.99,-4.24m1.78,0.22c0,1.7,0.21,3.09,0.63,4.17c0.34,0.9,0.86,1.36,1.55,1.36c0.32,0,0.66,-0.14,1.02,-0.44c0.35,-0.29,0.62,-0.78,0.8,-1.48c0.28,-1.04,0.42,-2.52,0.42,-4.42c0,-1.41,-0.14,-2.59,-0.43,-3.53c-0.21,-0.7,-0.5,-1.19,-0.84,-1.48c-0.24,-0.2,-0.55,-0.3,-0.9,-0.3c-0.41,0,-0.78,0.18,-1.1,0.55c-0.43,0.5,-0.73,1.29,-0.89,2.38c-0.15,1.08,-0.23,2.15,-0.23,3.2m15.5,3.5l-0.86,2.38l-7.3,0l0,-0.33c2.14,-1.96,3.66,-3.56,4.53,-4.8c0.87,-1.24,1.31,-2.37,1.31,-3.4c0,-0.78,-0.24,-1.43,-0.72,-1.93c-0.48,-0.5,-1.05,-0.75,-1.72,-0.75c-0.6,0,-1.15,0.17,-1.63,0.53c-0.48,0.35,-0.84,0.87,-1.07,1.56l-0.33,0c0.15,-1.12,0.54,-1.99,1.17,-2.59c0.63,-0.6,1.41,-0.9,2.36,-0.9c1,0,1.84,0.32,2.51,0.96c0.67,0.64,1,1.4,1,2.28c0,0.62,-0.14,1.25,-0.43,1.88c-0.45,0.98,-1.18,2.03,-2.19,3.13c-1.51,1.65,-2.46,2.65,-2.83,2.99l3.23,0c0.65,0,1.11,-0.02,1.38,-0.07c0.26,-0.04,0.5,-0.14,0.71,-0.29c0.21,-0.14,0.39,-0.36,0.55,-0.63l0.33,0" fill="#000000" stroke="none" fill-opacity="1"/>
<path d="m35.05,256.95l0,1.29l-1.66,0l0,3.26l-1.5,0l0,-3.26l-5.24,0l0,-1.16l5.74,-8.19l1,0l0,8.07l1.66,0m-3.16,0l0,-6.14l-4.34,6.14l4.34,0m4.87,7.67l0,-0.4c0.62,-0.2,1.11,-0.52,1.45,-0.96c0.34,-0.43,0.51,-0.89,0.51,-1.38c0,-0.11,-0.02,-0.21,-0.08,-0.29c-0.04,-0.05,-0.08,-0.08,-0.12,-0.08c-0.06,0,-0.21,0.06,-0.43,0.18c-0.1,0.05,-0.22,0.08,-0.34,0.08c-0.29,0,-0.53,-0.08,-0.71,-0.26c-0.17,-0.17,-0.26,-0.42,-0.26,-0.73c0,-0.29,0.11,-0.55,0.34,-0.76c0.22,-0.21,0.5,-0.31,0.83,-0.31c0.4,0,0.75,0.17,1.07,0.52c0.31,0.35,0.47,0.81,0.47,1.39c0,0.62,-0.21,1.2,-0.65,1.74c-0.43,0.53,-1.12,0.96,-2.06,1.27m4.37,-9.23c0,-1.41,0.21,-2.62,0.63,-3.64c0.42,-1.01,0.99,-1.77,1.69,-2.27c0.54,-0.39,1.11,-0.59,1.69,-0.59c0.94,0,1.8,0.48,2.55,1.45c0.94,1.19,1.41,2.82,1.41,4.87c0,1.43,-0.2,2.65,-0.62,3.66c-0.41,1,-0.94,1.73,-1.58,2.18c-0.64,0.45,-1.26,0.68,-1.85,0.68c-1.18,0,-2.16,-0.69,-2.94,-2.09c-0.66,-1.17,-0.99,-2.59,-0.99,-4.24m1.78,0.22c0,1.7,0.21,3.09,0.63,4.17c0.34,0.9,0.86,1.36,1.55,1.36c0.32,0,0.66,-0.14,1.02,-0.44c0.35,-0.29,0.62,-0.78,0.8,-1.48c0.28,-1.04,0.42,-2.52,0.42,-4.42c0,-1.41,-0.14,-2.59,-0.43,-3.53c-0.21,-0.7,-0.5,-1.19,-0.84,-1.48c-0.24,-0.2,-0.55,-0.3,-0.9,-0.3c-0.41,0,-0.78,0.18,-1.1,0.55c-0.43,0.5,-0.73,1.29,-0.89,2.38c-0.15,1.08,-0.23,2.15,-0.23,3.2m15.63,1.32l0,1.29l-1.66,0l0,3.26l-1.5,0l0,-3.26l-5.24,0l0,-1.16l5.74,-8.19l1,0l0,8.07l1.66,0m-3.16,0l0,-6.14l-4.34,6.14l4.34,0" fill="#000000" stroke="none" fill-opacity="1"/>
<path d="m35.05,174.43l0,1.29l-1.66,0l0,3.26l-1.5,0l0,-3.26l-5.24,0l0,-1.16l5.74,-8.19l1,0l0,8.07l1.66,0m-3.16,0l0,-6.14l-4.34,6.14l4.34,0m4.87,7.67l0,-0.4c0.62,-0.2,1.11,-0.52,1.45,-0.96c0.34,-0.43,0.51,-0.89,0.51,-1.38c0,-0.11,-0.02,-0.21,-0.08,-0.29c-0.04,-0.05,-0.08,-0.08,-0.12,-0.08c-0.06,0,-0.21,0.06,-0.43,0.18c-0.1,0.05,-0.22,0.08,-0.34,0.08c-0.29,0,-0.53,-0.08,-0.71,-0.26c-0.17,-0.17,-0.26,-0.42,-0.26,-0.73c0,-0.29,0.11,-0.55,0.34,-0.76c0.22,-0.21,0.5,-0.31,0.83,-0.31c0.4,0,0.75,0.17,1.07,0.52c0.31,0.35,0.47,0.81,0.47,1.39c0,0.62,-0.21,1.2,-0.65,1.74c-0.43,0.53,-1.12,0.96,-2.06,1.27m4.37,-9.23c0,-1.41,0.21,-2.62,0.63,-3.64c0.42,-1.01,0.99,-1.77,1.69,-2.27c0.54,-0.39,1.11,-0.59,1.69,-0.59c0.94,0,1.8,0.48,2.55,1.45c0.94,1.19,1.41,2.82,1.41,4.87c0,1.43,-0.2,2.65,-0.62,3.66c-0.41,1,-0.94,1.73,-1.58,2.18c-0.64,0.45,-1.26,0.68,-1.85,0.68c-1.18,0,-2.16,-0.69,-2.94,-2.09c-0.66,-1.17,-0.99,-2.59,-0.99,-4.24m1.78,0.22c0,1.7,0.21,3.09,0.63,4.17c0.34,0.9,0.86,1.36,1.55,1.36c0.32,0,0.66,-0.14,1.02,-0.44c0.35,-0.29,0.62,-0.78,0.8,-1.48c0.28,-1.04,0.42,-2.52,0.42,-4.42c0,-1.41,-0.14,-2.59,-0.43,-3.53c-0.21,-0.7,-0.5,-1.19,-0.84,-1.48c-0.24,-0.2,-0.55,-0.3,-0.9,-0.3c-0.41,0,-0.78,0.18,-1.1,0.55c-0.43,0.5,-0.73,1.29,-0.89,2.38c-0.15,1.08,-0.23,2.15,-0.23,3.2m15.31,-6.74l0,0.33c-0.8,0.07,-1.45,0.23,-1.96,0.47c-0.5,0.24,-1.01,0.6,-1.5,1.1c-0.49,0.49,-0.9,1.04,-1.23,1.64c-0.32,0.6,-0.59,1.32,-0.81,2.15c0.87,-0.6,1.75,-0.9,2.63,-0.9c0.84,0,1.57,0.34,2.2,1.02c0.62,0.68,0.93,1.55,0.93,2.62c0,1.03,-0.31,1.97,-0.94,2.83c-0.75,1.03,-1.75,1.55,-2.99,1.55c-0.84,0,-1.56,-0.28,-2.15,-0.84c-1.15,-1.08,-1.73,-2.5,-1.73,-4.23c0,-1.1,0.22,-2.16,0.66,-3.15c0.44,-0.99,1.07,-1.88,1.9,-2.65c0.82,-0.77,1.61,-1.29,2.36,-1.56c0.75,-0.26,1.45,-0.4,2.1,-0.4l0.52,0m-5.67,6.39c-0.1,0.82,-0.16,1.48,-0.16,1.99c0,0.58,0.1,1.21,0.32,1.9c0.21,0.68,0.53,1.22,0.96,1.62c0.31,0.28,0.68,0.42,1.13,0.42c0.52,0,1,-0.24,1.41,-0.74c0.41,-0.49,0.62,-1.21,0.62,-2.13c0,-1.04,-0.2,-1.94,-0.62,-2.7c-0.41,-0.76,-1,-1.14,-1.76,-1.14c-0.23,0,-0.47,0.04,-0.74,0.14c-0.26,0.09,-0.65,0.3,-1.17,0.63" fill="#000000" stroke="none" fill-opacity="1"/>
<path d="m35.05,91.91l0,1.29l-1.66,0l0,3.26l-1.5,0l0,-3.26l-5.24,0l0,-1.16l5.74,-8.19l1,0l0,8.07l1.66,0m-3.16,0l0,-6.14l-4.34,6.14l4.34,0m4.87,7.67l0,-0.4c0.62,-0.2,1.11,-0.52,1.45,-0.96c0.34,-0.43,0.51,-0.89,0.51,-1.38c0,-0.11,-0.02,-0.21,-0.08,-0.29c-0.04,-0.05,-0.08,-0.08,-0.12,-0.08c-0.06,0,-0.21,0.06,-0.43,0.18c-0.1,0.05,-0.22,0.08,-0.34,0.08c-0.29,0,-0.53,-0.08,-0.71,-0.26c-0.17,-0.17,-0.26,-0.42,-0.26,-0.73c0,-0.29,0.11,-0.55,0.34,-0.76c0.22,-0.21,0.5,-0.31,0.83,-0.31c0.4,0,0.75,0.17,1.07,0.52c0.31,0.35,0.47,0.81,0.47,1.39c0,0.62,-0.21,1.2,-0.65,1.74c-0.43,0.53,-1.12,0.96,-2.06,1.27m4.37,-9.23c0,-1.41,0.21,-2.62,0.63,-3.64c0.42,-1.01,0.99,-1.77,1.69,-2.27c0.54,-0.39,1.11,-0.59,1.69,-0.59c0.94,0,1.8,0.48,2.55,1.45c0.94,1.19,1.41,2.82,1.41,4.87c0,1.43,-0.2,2.65,-0.62,3.66c-0.41,1,-0.94,1.73,-1.58,2.18c-0.64,0.45,-1.26,0.68,-1.85,0.68c-1.18,0,-2.16,-0.69,-2.94,-2.09c-0.66,-1.17,-0.99,-2.59,-0.99,-4.24m1.78,0.22c0,1.7,0.21,3.09,0.63,4.17c0.34,0.9,0.86,1.36,1.55,1.36c0.32,0,0.66,-0.14,1.02,-0.44c0.35,-0.29,0.62,-0.78,0.8,-1.48c0.28,-1.04,0.42,-2.52,0.42,-4.42c0,-1.41,-0.14,-2.59,-0.43,-3.53c-0.21,-0.7,-0.5,-1.19,-0.84,-1.48c-0.24,-0.2,-0.55,-0.3,-0.9,-0.3c-0.41,0,-0.78,0.18,-1.1,0.55c-0.43,0.5,-0.73,1.29,-0.89,2.38c-0.15,1.08,-0.23,2.15,-0.23,3.2m10.52,-0.34c-0.98,-0.8,-1.61,-1.44,-1.89,-1.93c-0.28,-0.48,-0.42,-0.99,-0.42,-1.51c0,-0.8,0.31,-1.49,0.93,-2.07c0.62,-0.58,1.44,-0.87,2.47,-0.87c0.99,0,1.8,0.27,2.41,0.81c0.6,0.54,0.91,1.15,0.91,1.85c0,0.46,-0.16,0.93,-0.49,1.41c-0.32,0.48,-1.01,1.04,-2.05,1.69c1.07,0.82,1.78,1.47,2.12,1.95c0.46,0.62,0.69,1.27,0.69,1.96c0,0.87,-0.33,1.61,-0.99,2.23c-0.66,0.61,-1.53,0.92,-2.61,0.92c-1.17,0,-2.09,-0.36,-2.74,-1.1c-0.52,-0.59,-0.78,-1.23,-0.78,-1.93c0,-0.54,0.18,-1.09,0.55,-1.62c0.36,-0.53,1,-1.13,1.9,-1.78m1.43,-0.97c0.73,-0.65,1.19,-1.17,1.38,-1.55c0.19,-0.38,0.29,-0.81,0.29,-1.29c0,-0.63,-0.17,-1.13,-0.53,-1.5c-0.35,-0.36,-0.84,-0.54,-1.47,-0.54c-0.62,0,-1.12,0.17,-1.51,0.53c-0.38,0.35,-0.58,0.77,-0.58,1.26c0,0.31,0.08,0.63,0.24,0.94c0.16,0.31,0.39,0.61,0.68,0.9l1.49,1.24m-1,1.32c-0.5,0.42,-0.87,0.89,-1.12,1.39c-0.24,0.5,-0.36,1.04,-0.36,1.62c0,0.78,0.21,1.41,0.64,1.88c0.42,0.47,0.97,0.7,1.63,0.7c0.65,0,1.18,-0.18,1.57,-0.55c0.39,-0.37,0.59,-0.82,0.59,-1.35c0,-0.43,-0.11,-0.83,-0.34,-1.17c-0.43,-0.64,-1.3,-1.48,-2.62,-2.52" fill="#000000" stroke="none" fill-opacity="1"/>
</g>
<g fill="none" stroke-linecap="butt" stroke-width="0.66">
<path d="M64.25,502.67l495.11,0"/>
<path d="M64.25,502.67l0,-4M119.86,502.67l0,-4M148.11,502.67l0,-4M168.14,502.67l0,-4M183.69,502.67l0,-4M196.39,502.67l0,-4M207.12,502.67l0,-4M216.42,502.67l0,-4M224.63,502.67l0,-4M280.25,502.67l0,-4M308.49,502.67l0,-4M328.52,502.67l0,-4M344.07,502.67l0,-4M356.77,502.67l0,-4M367.5,502.67l0,-4M376.8,502.67l0,-4M385.01,502.67l0,-4M440.63,502.67l0,-4M468.87,502.67l0,-4M488.9,502.67l0,-4M504.45,502.67l0,-4M517.15,502.67l0,-4M527.88,502.67l0,-4M537.18,502.67l0,-4M545.39,502.67l0,-4"/>
<path d="M71.59,502.67l0,-8M231.97,502.67l0,-8M392.35,502.67l0,-8M552.73,502.67l0,-8"/>
</g>
<g fill="none" stroke-width="0.1">
<path d="m302.18,538.41l0,4.28l-0.33,0c-0.1,-0.82,-0.3,-1.47,-0.58,-1.96c-0.28,-0.48,-0.68,-0.87,-1.2,-1.15c-0.52,-0.28,-1.06,-0.42,-1.62,-0.42c-0.63,0,-1.15,0.19,-1.57,0.57c-0.41,0.38,-0.62,0.82,-0.62,1.31c0,0.37,0.13,0.72,0.39,1.03c0.37,0.45,1.27,1.06,2.69,1.82c1.15,0.62,1.94,1.09,2.36,1.42c0.42,0.33,0.74,0.72,0.97,1.17c0.22,0.45,0.34,0.92,0.34,1.41c0,0.93,-0.36,1.74,-1.09,2.42c-0.72,0.67,-1.66,1.01,-2.8,1.01c-0.35,0,-0.69,-0.02,-1.01,-0.08c-0.18,-0.03,-0.57,-0.14,-1.17,-0.33c-0.59,-0.19,-0.96,-0.28,-1.12,-0.28c-0.15,0,-0.27,0.04,-0.36,0.13c-0.08,0.09,-0.15,0.28,-0.19,0.56l-0.33,0l0,-4.24l0.33,0c0.15,0.88,0.37,1.55,0.63,1.99c0.26,0.44,0.67,0.8,1.22,1.1c0.55,0.29,1.15,0.43,1.81,0.43c0.76,0,1.36,-0.2,1.8,-0.6c0.44,-0.4,0.66,-0.87,0.66,-1.42c0,-0.3,-0.08,-0.61,-0.25,-0.92c-0.16,-0.31,-0.42,-0.59,-0.78,-0.86c-0.23,-0.18,-0.88,-0.57,-1.94,-1.16c-1.05,-0.59,-1.81,-1.06,-2.25,-1.41c-0.44,-0.35,-0.78,-0.74,-1.01,-1.16c-0.23,-0.42,-0.34,-0.89,-0.34,-1.4c0,-0.88,0.34,-1.65,1.02,-2.29c0.68,-0.64,1.54,-0.96,2.6,-0.96c0.65,0,1.35,0.16,2.09,0.48c0.34,0.15,0.58,0.22,0.72,0.22c0.15,0,0.28,-0.04,0.38,-0.14c0.1,-0.09,0.18,-0.28,0.24,-0.57l0.33,0m1.57,0.28l3.36,0l7.56,9.28l0,-7.14c0,-0.76,-0.08,-1.23,-0.25,-1.42c-0.22,-0.25,-0.58,-0.38,-1.06,-0.38l-0.42,0l0,-0.33l4.3,0l0,0.33l-0.43,0c-0.52,0,-0.89,0.15,-1.11,0.47c-0.13,0.19,-0.2,0.63,-0.2,1.33l0,10.43l-0.32,0l-8.16,-9.97l0,7.62c0,0.76,0.08,1.23,0.24,1.42c0.23,0.25,0.58,0.38,1.06,0.38l0.43,0l0,0.33l-4.3,0l0,-0.33l0.42,0c0.52,0,0.9,-0.15,1.12,-0.47c0.13,-0.19,0.2,-0.63,0.2,-1.33l0,-8.61c-0.35,-0.42,-0.63,-0.69,-0.81,-0.83c-0.18,-0.13,-0.45,-0.25,-0.81,-0.37c-0.17,-0.05,-0.44,-0.08,-0.8,-0.08l0,-0.33m26.38,12.38l-3.3,0l-4.19,-5.78c-0.31,0.01,-0.56,0.01,-0.75,0.01c-0.07,0,-0.16,0,-0.25,0c-0.09,0,-0.18,0,-0.28,-0.01l0,3.59c0,0.77,0.08,1.26,0.25,1.45c0.23,0.26,0.57,0.4,1.04,0.4l0.48,0l0,0.33l-5.3,0l0,-0.33l0.46,0c0.52,0,0.89,-0.17,1.12,-0.51c0.12,-0.18,0.19,-0.63,0.19,-1.34l0,-7.99c0,-0.77,-0.08,-1.26,-0.25,-1.45c-0.23,-0.26,-0.59,-0.4,-1.05,-0.4l-0.46,0l0,-0.33l4.51,0c1.31,0,2.28,0.09,2.9,0.28c0.62,0.19,1.15,0.54,1.58,1.05c0.43,0.51,0.65,1.12,0.65,1.83c0,0.76,-0.24,1.42,-0.74,1.98c-0.49,0.56,-1.26,0.95,-2.3,1.18l2.55,3.55c0.58,0.81,1.08,1.35,1.5,1.62c0.42,0.26,0.96,0.43,1.64,0.51l0,0.33m-8.79,-6.36c0.11,0,0.21,0,0.3,0c0.08,0,0.15,0,0.21,0c1.18,0,2.07,-0.25,2.67,-0.76c0.59,-0.51,0.89,-1.16,0.89,-1.95c0,-0.77,-0.24,-1.4,-0.72,-1.88c-0.48,-0.48,-1.12,-0.72,-1.92,-0.72c-0.35,0,-0.83,0.05,-1.43,0.17l0,5.14" fill="#000000" stroke="none" fill-opacity="1"/>
<path d="m60.51,518.25c0,-1.41,0.21,-2.62,0.63,-3.64c0.42,-1.01,0.99,-1.77,1.69,-2.27c0.54,-0.39,1.11,-0.59,1.69,-0.59c0.94,0,1.8,0.48,2.55,1.45c0.94,1.19,1.41,2.82,1.41,4.87c0,1.43,-0.2,2.65,-0.62,3.66c-0.41,1,-0.94,1.73,-1.58,2.18c-0.64,0.45,-1.26,0.68,-1.85,0.68c-1.18,0,-2.16,-0.69,-2.94,-2.09c-0.66,-1.17,-0.99,-2.59,-0.99,-4.24m1.78,0.22c0,1.7,0.21,3.09,0.63,4.17c0.34,0.9,0.86,1.36,1.55,1.36c0.32,0,0.66,-0.14,1.02,-0.44c0.35,-0.29,0.62,-0.78,0.8,-1.48c0.28,-1.04,0.42,-2.52,0.42,-4.42c0,-1.41,-0.14,-2.59,-0.43,-3.53c-0.21,-0.7,-0.5,-1.19,-0.84,-1.48c-0.24,-0.2,-0.55,-0.3,-0.9,-0.3c-0.41,0,-0.78,0.18,-1.1,0.55c-0.43,0.5,-0.73,1.29,-0.89,2.38c-0.15,1.08,-0.23,2.15,-0.23,3.2m7.93,9l0,-0.4c0.62,-0.2,1.11,-0.52,1.45,-0.96c0.34,-0.43,0.51,-0.89,0.51,-1.38c0,-0.11,-0.02,-0.21,-0.08,-0.29c-0.04,-0.05,-0.08,-0.08,-0.12,-0.08c-0.06,0,-0.21,0.06,-0.43,0.18c-0.1,0.05,-0.22,0.08,-0.34,0.08c-0.29,0,-0.53,-0.08,-0.71,-0.26c-0.17,-0.17,-0.26,-0.42,-0.26,-0.73c0,-0.29,0.11,-0.55,0.34,-0.76c0.22,-0.21,0.5,-0.31,0.83,-0.31c0.4,0,0.75,0.17,1.07,0.52c0.31,0.35,0.47,0.81,0.47,1.39c0,0.62,-0.21,1.2,-0.65,1.74c-0.43,0.53,-1.12,0.96,-2.06,1.27m5.88,-14.28l3.01,-1.47l0.3,0l0,10.45c0,0.69,0.02,1.12,0.08,1.29c0.05,0.17,0.17,0.3,0.36,0.39c0.18,0.09,0.55,0.14,1.11,0.15l0,0.33l-4.65,0l0,-0.33c0.58,-0.01,0.96,-0.06,1.13,-0.15c0.17,-0.08,0.28,-0.2,0.35,-0.35c0.06,-0.14,0.1,-0.59,0.1,-1.33l0,-6.68c0,-0.9,-0.03,-1.47,-0.09,-1.73c-0.04,-0.19,-0.12,-0.33,-0.23,-0.42c-0.11,-0.09,-0.24,-0.13,-0.4,-0.13c-0.22,0,-0.53,0.09,-0.94,0.28l-0.13,-0.28" fill="#000000" stroke="none" fill-opacity="1"/>
<path d="m229.46,513.2l3.01,-1.47l0.3,0l0,10.45c0,0.69,0.02,1.12,0.08,1.29c0.05,0.17,0.17,0.3,0.36,0.39c0.18,0.09,0.55,0.14,1.11,0.15l0,0.33l-4.65,0l0,-0.33c0.58,-0.01,0.96,-0.06,1.13,-0.15c0.17,-0.08,0.28,-0.2,0.35,-0.35c0.06,-0.14,0.1,-0.59,0.1,-1.33l0,-6.68c0,-0.9,-0.03,-1.47,-0.09,-1.73c-0.04,-0.19,-0.12,-0.33,-0.23,-0.42c-0.11,-0.09,-0.24,-0.13,-0.4,-0.13c-0.22,0,-0.53,0.09,-0.94,0.28l-0.13,-0.28" fill="#000000" stroke="none" fill-opacity="1"/>
<path d="m385.14,513.2l3.01,-1.47l0.3,0l0,10.45c0,0.69,0.02,1.12,0.08,1.29c0.05,0.17,0.17,0.3,0.36,0.39c0.18,0.09,0.55,0.14,1.11,0.15l0,0.33l-4.65,0l0,-0.33c0.58,-0.01,0.96,-0.06,1.13,-0.15c0.17,-0.08,0.28,-0.2,0.35,-0.35c0.06,-0.14,0.1,-0.59,0.1,-1.33l0,-6.68c0,-0.9,-0.03,-1.47,-0.09,-1.73c-0.04,-0.19,-0.12,-0.33,-0.23,-0.42c-0.11,-0.09,-0.24,-0.13,-0.4,-0.13c-0.22,0,-0.53,0.09,-0.94,0.28l-0.13,-0.28m7.88,5.04c0,-1.41,0.21,-2.62,0.63,-3.64c0.42,-1.01,0.99,-1.77,1.69,-2.27c0.54,-0.39,1.11,-0.59,1.69,-0.59c0.94,0,1.8,0.48,2.55,1.45c0.94,1.19,1.41,2.82,1.41,4.87c0,1.43,-0.2,2.65,-0.62,3.66c-0.41,1,-0.94,1.73,-1.58,2.18c-0.64,0.45,-1.26,0.68,-1.85,0.68c-1.18,0,-2.16,-0.69,-2.94,-2.09c-0.66,-1.17,-0.99,-2.59,-0.99,-4.24m1.78,0.22c0,1.7,0.21,3.09,0.63,4.17c0.34,0.9,0.86,1.36,1.55,1.36c0.32,0,0.66,-0.14,1.02,-0.44c0.35,-0.29,0.62,-0.78,0.8,-1.48c0.28,-1.04,0.42,-2.52,0.42,-4.42c0,-1.41,-0.14,-2.59,-0.43,-3.53c-0.21,-0.7,-0.5,-1.19,-0.84,-1.48c-0.24,-0.2,-0.55,-0.3,-0.9,-0.3c-0.41,0,-0.78,0.18,-1.1,0.55c-0.43,0.5,-0.73,1.29,-0.89,2.38c-0.15,1.08,-0.23,2.15,-0.23,3.2" fill="#000000" stroke="none" fill-opacity="1"/>
<path d="m540.82,513.2l3.01,-1.47l0.3,0l0,10.45c0,0.69,0.02,1.12,0.08,1.29c0.05,0.17,0.17,0.3,0.36,0.39c0.18,0.09,0.55,0.14,1.11,0.15l0,0.33l-4.65,0l0,-0.33c0.58,-0.01,0.96,-0.06,1.13,-0.15c0.17,-0.08,0.28,-0.2,0.35,-0.35c0.06,-0.14,0.1,-0.59,0.1,-1.33l0,-6.68c0,-0.9,-0.03,-1.47,-0.09,-1.73c-0.04,-0.19,-0.12,-0.33,-0.23,-0.42c-0.11,-0.09,-0.24,-0.13,-0.4,-0.13c-0.22,0,-0.53,0.09,-0.94,0.28l-0.13,-0.28m7.88,5.04c0,-1.41,0.21,-2.62,0.63,-3.64c0.42,-1.01,0.99,-1.77,1.69,-2.27c0.54,-0.39,1.11,-0.59,1.69,-0.59c0.94,0,1.8,0.48,2.55,1.45c0.94,1.19,1.41,2.82,1.41,4.87c0,1.43,-0.2,2.65,-0.62,3.66c-0.41,1,-0.94,1.73,-1.58,2.18c-0.64,0.45,-1.26,0.68,-1.85,0.68c-1.18,0,-2.16,-0.69,-2.94,-2.09c-0.66,-1.17,-0.99,-2.59,-0.99,-4.24m1.78,0.22c0,1.7,0.21,3.09,0.63,4.17c0.34,0.9,0.86,1.36,1.55,1.36c0.32,0,0.66,-0.14,1.02,-0.44c0.35,-0.29,0.62,-0.78,0.8,-1.48c0.28,-1.04,0.42,-2.52,0.42,-4.42c0,-1.41,-0.14,-2.59,-0.43,-3.53c-0.21,-0.7,-0.5,-1.19,-0.84,-1.48c-0.24,-0.2,-0.55,-0.3,-0.9,-0.3c-0.41,0,-0.78,0.18,-1.1,0.55c-0.43,0.5,-0.73,1.29,-0.89,2.38c-0.15,1.08,-0.23,2.15,-0.23,3.2m7.61,-0.22c0,-1.41,0.21,-2.62,0.63,-3.64c0.42,-1.01,0.99,-1.77,1.69,-2.27c0.54,-0.39,1.11,-0.59,1.69,-0.59c0.94,0,1.8,0.48,2.55,1.45c0.94,1.19,1.41,2.82,1.41,4.87c0,1.43,-0.2,2.65,-0.62,3.66c-0.41,1,-0.94,1.73,-1.58,2.18c-0.64,0.45,-1.26,0.68,-1.85,0.68c-1.18,0,-2.16,-0.69,-2.94,-2.09c-0.66,-1.17,-0.99,-2.59,-0.99,-4.24m1.78,0.22c0,1.7,0.21,3.09,0.63,4.17c0.34,0.9,0.86,1.36,1.55,1.36c0.32,0,0.66,-0.14,1.02,-0.44c0.35,-0.29,0.62,-0.78,0.8,-1.48c0.28,-1.04,0.42,-2.52,0.42,-4.42c0,-1.41,-0.14,-2.59,-0.43,-3.53c-0.21,-0.7,-0.5,-1.19,-0.84,-1.48c-0.24,-0.2,-0.55,-0.3,-0.9,-0.3c-0.41,0,-0.78,0.18,-1.1,0.55c-0.43,0.5,-0.73,1.29,-0.89,2.38c-0.15,1.08,-0.23,2.15,-0.23,3.2" fill="#000000" stroke="none" fill-opacity="1"/>
</g>
<g fill="none" stroke-linecap="butt" stroke-width="0.66">
<path d="M559.37,502.67l0,-495.11"/>
<path d="M559.37,502.67l-4,0M559.37,482.04l-4,0M559.37,461.41l-4,0M559.37,440.78l-4,0M559.37,420.15l-4,0M559.37,399.52l-4,0M559.37,378.89l-4,0M559.37,358.26l-4,0M559.37,337.63l-4,0M559.37,317l-4,0M559.37,296.37l-4,0M559.37,275.74l-4,0M559.37,255.11l-4,0M559.37,234.48l-4,0M559.37,213.85l-4,0M559.37,193.22l-4,0M559.37,172.59l-4,0M559.37,151.96l-4,0M559.37,131.33l-4,0M559.37,110.7l-4,0M559.37,90.07l-4,0M559.37,69.44l-4,0M559.37,48.81l-4,0M559.37,28.18l-4,0"/>
<path d="M559.37,502.67l-8,0M559.37,420.15l-8,0M559.37,337.63l-8,0M559.37,255.11l-8,0M559.37,172.59l-8,0M559.37,90.07l-8,0"/>
<path d="M64.25,7.55l495.11,0"/>
<path d="M64.25,7.55l0,4M119.86,7.55l0,4M148.11,7.55l0,4M168.14,7.55l0,4M183.69,7.55l0,4M196.39,7.55l0,4M207.12,7.55l0,4M216.42,7.55l0,4M224.63,7.55l0,4M280.25,7.55l0,4M308.49,7.55l0,4M328.52,7.55l0,4M344.07,7.55l0,4M356.77,7.55l0,4M367.5,7.55l0,4M376.8,7.55l0,4M385.01,7.55l0,4M440.63,7.55l0,4M468.87,7.55l0,4M488.9,7.55l0,4M504.45,7.55l0,4M517.15,7.55l0,4M527.88,7.55l0,4M537.18,7.55l0,4M545.39,7.55l0,4"/>
<path d="M71.59,7.55l0,8M231.97,7.55l0,8M392.35,7.55l0,8M552.73,7.55l0,8"/>
</g>
</g>
</g>
</svg>
