<?xml version="1.0" standalone="no"?>
<!DOCTYPE svg PUBLIC "-//W3C//DTD SVG 1.1//EN"
  "http://www.w3.org/Graphics/SVG/1.1/DTD/svg11.dtd">
<svg width="1181.1px" height="1181.1px" version="1.1"
    xmlns="http://www.w3.org/2000/svg"
    xmlns:xlink="http://www.w3.org/1999/xlink">
<desc>Veusz output document</desc>
<defs>
<clipPath id="c0">
<path d="m0,0l1181.1,0l0,1181.1l-1181.1,0l0,-1181.1"/>
</clipPath>
<clipPath id="c1">
<path d="m133.85,15.74l1031.49,0l0,1031.49l-1031.49,0l0,-1031.49"/>
</clipPath>
</defs>
<g stroke-linejoin="bevel" stroke-linecap="square" stroke="#000000" fill-rule="evenodd">
<g clip-path="url(#c0)">
<g fill="#ffffff" stroke="none" stroke-width="0.1">
<path d="m0,0l1181.1,0l0,1181.1l-1181.1,0l0,-1181.1"/>
</g>
<g fill="#ffffff" stroke-width="1.38">
<path d="m133.85,15.74l1031.49,0l0,1031.49l-1031.49,0l0,-1031.49"/>
</g>
</g>
<g clip-path="url(#c1)">
<g fill="none" stroke="#e41a1c" stroke-linecap="butt" stroke-width="1.38">
<path d="M1050.52,51.81l0,-4.35M921.94,110.99l0,-21.9M827.18,202.15l0,-33.51M623.39,450.04l0,-50.07M494.81,628.58l0,-64.76M400.06,771.2l0,-50.46M196.26,1047.24l0,-40.38"/>
</g>
<g fill="#e41a1c" stroke-linejoin="miter" stroke-width="1.38">
<g transform="translate(1050.52,49.62)">
<path d="m8.33,0c0,4.6,-3.73,8.33,-8.33,8.33c-4.6,0,-8.33,-3.73,-8.33,-8.33c0,-4.6,3.73,-8.33,8.33,-8.33c4.6,0,8.33,3.73,8.33,8.33" id="p0"/>
</g>
<use xlink:href="#p0" x="921.94" y="99.61"/>
<use xlink:href="#p0" x="827.18" y="184.37"/>
<use xlink:href="#p0" x="623.39" y="422.74"/>
<use xlink:href="#p0" x="494.81" y="592.43"/>
<use xlink:href="#p0" x="400.06" y="743.67"/>
<use xlink:href="#p0" x="196.26" y="1025.57"/>
</g>
</g>
<g clip-path="url(#c0)">
<g fill="none" stroke-linecap="butt" stroke-width="1.38">
<path d="M133.85,1047.24l0,-1031.49"/>
<path d="M133.85,1037.65l8.33,0M133.85,1016.42l8.33,0M133.85,998.02l8.33,0M133.85,981.8l8.33,0M133.85,871.81l8.33,0M133.85,815.95l8.33,0M133.85,776.32l8.33,0M133.85,745.59l8.33,0M133.85,720.47l8.33,0M133.85,699.24l8.33,0M133.85,680.84l8.33,0M133.85,664.62l8.33,0M133.85,554.62l8.33,0M133.85,498.77l8.33,0M133.85,459.14l8.33,0M133.85,428.41l8.33,0M133.85,403.29l8.33,0M133.85,382.06l8.33,0M133.85,363.66l8.33,0M133.85,347.44l8.33,0M133.85,237.44l8.33,0M133.85,181.59l8.33,0M133.85,141.96l8.33,0M133.85,111.22l8.33,0M133.85,86.11l8.33,0M133.85,64.88l8.33,0M133.85,46.48l8.33,0M133.85,30.26l8.33,0"/>
<path d="M133.85,967.29l16.66,0M133.85,650.11l16.66,0M133.85,332.92l16.66,0M133.85,15.74l16.66,0"/>
</g>
<g fill="none" stroke-width="0.1">
<g transform="matrix(0 -1 1 0 36.1 631.29)">
<path d="m3.62,0l0,-28.11l15.74,0l0,2.98l-11.75,0l0,9.02l9.85,0l0,2.94l-9.85,0l0,10.18l12.57,0l0,2.98l-16.56,0m21.21,0l0,-20.62l3.74,0l0,3.85c0.7,-1.38,1.63,-2.44,2.76,-3.2c1.13,-0.75,2.36,-1.13,3.69,-1.13c0.37,0,0.77,0.03,1.19,0.09l0,3.49c-0.63,-0.21,-1.2,-0.32,-1.7,-0.32c-1.17,0,-2.26,0.35,-3.25,1.05c-0.99,0.7,-1.88,1.75,-2.68,3.16l0,13.61l-3.74,0m15.9,0l0,-20.62l3.74,0l0,3.85c0.7,-1.38,1.63,-2.44,2.76,-3.2c1.13,-0.75,2.36,-1.13,3.69,-1.13c0.37,0,0.77,0.03,1.19,0.09l0,3.49c-0.63,-0.21,-1.2,-0.32,-1.7,-0.32c-1.17,0,-2.26,0.35,-3.25,1.05c-0.99,0.7,-1.88,1.75,-2.68,3.16l0,13.61l-3.74,0m31.26,-0.66c-2.54,0.75,-4.72,1.13,-6.53,1.13c-3.25,0,-5.8,-1.07,-7.67,-3.23c-1.86,-2.15,-2.79,-4.7,-2.79,-7.64c0,-1.93,0.41,-3.77,1.23,-5.52c0.82,-1.74,1.89,-3.04,3.22,-3.89c1.32,-0.84,2.89,-1.27,4.69,-1.27c2.41,0,4.34,0.85,5.78,2.56c1.43,1.7,2.15,4.26,2.15,7.67l-0.01,1.13l-13.25,0c0.2,1.82,0.6,3.22,1.2,4.21c0.59,0.98,1.38,1.75,2.37,2.3c0.98,0.55,2.24,0.82,3.76,0.82c0.77,0,1.54,-0.06,2.31,-0.19c0.76,-0.13,1.94,-0.48,3.53,-1.05l0,2.96m-13.01,-11.87l9.36,0c0,-2.06,-0.41,-3.53,-1.24,-4.42c-0.82,-0.88,-1.88,-1.32,-3.17,-1.32c-1.47,0,-2.62,0.47,-3.45,1.43c-0.82,0.95,-1.32,2.39,-1.49,4.32m32.24,12.53l0,-3.87c-0.96,1.39,-2.07,2.46,-3.32,3.21c-1.25,0.75,-2.55,1.13,-3.91,1.13c-1.73,0,-3.14,-0.55,-4.24,-1.66c-1.09,-1.1,-1.64,-2.64,-1.64,-4.62l0,-14.81l3.74,0l0,13.59c0,1.43,0.12,2.37,0.37,2.83c0.25,0.45,0.6,0.81,1.06,1.06c0.45,0.25,0.94,0.37,1.48,0.37c0.91,0,1.9,-0.28,2.97,-0.85c1.07,-0.56,2.23,-1.78,3.48,-3.64l0,-13.37l3.74,0l0,20.62l-3.74,0m11.2,0l0,-20.62l3.74,0l0,3.85c0.7,-1.38,1.63,-2.44,2.76,-3.2c1.13,-0.75,2.36,-1.13,3.69,-1.13c0.37,0,0.77,0.03,1.19,0.09l0,3.49c-0.63,-0.21,-1.2,-0.32,-1.7,-0.32c-1.17,0,-2.26,0.35,-3.25,1.05c-0.99,0.7,-1.88,1.75,-2.68,3.16l0,13.61l-3.74,0m28.2,5.62l0,-35.61l2.81,0l0,35.61l-2.81,0m10.3,0l0,-35.61l2.81,0l0,35.61l-2.81,0" fill="#000000" stroke="none" fill-opacity="1"/>
<path d="m162.61,-2.75c-1.17,1.12,-2.25,1.93,-3.22,2.41c-1.15,0.58,-2.45,0.87,-3.89,0.87c-1.7,0,-3.2,-0.43,-4.48,-1.31c-1.44,-0.98,-2.16,-2.31,-2.16,-3.96c0,-2.02,1.55,-3.51,4.65,-4.46c-2.49,-0.88,-3.74,-2.22,-3.74,-4.02c0,-1.58,0.79,-2.79,2.39,-3.64c1.29,-0.68,2.79,-1.02,4.52,-1.02c1.3,0,2.49,0.18,3.57,0.56c1.5,0.54,2.26,1.35,2.26,2.43c0,0.43,-0.16,0.8,-0.49,1.13c-0.32,0.32,-0.7,0.48,-1.13,0.48c-0.7,0,-1.29,-0.49,-1.74,-1.48c-0.63,-1.36,-1.58,-2.05,-2.84,-2.05c-1.07,0,-1.92,0.36,-2.54,1.08c-0.59,0.67,-0.89,1.55,-0.89,2.65c0,2.31,1.19,3.47,3.58,3.47c0.22,0,0.51,-0.02,0.87,-0.07c0.54,-0.07,0.98,-0.11,1.32,-0.11c0.77,0,1.15,0.22,1.15,0.66c0,0.49,-0.39,0.74,-1.17,0.74c-0.31,0,-0.73,-0.04,-1.25,-0.13c-0.45,-0.07,-0.77,-0.11,-0.96,-0.11c-2.53,0,-3.79,1.29,-3.79,3.87c0,1.11,0.33,2.04,0.99,2.79c0.66,0.74,1.54,1.12,2.64,1.12c1.86,0,3.82,-0.79,5.88,-2.39l0.49,0.49" fill="#000000" stroke="none" fill-opacity="1"/>
<path d="m165.97,4.9l0,-16.83l2.24,0l0,8.28l6.81,-8.28l2.39,0l-6.59,8.03l7.76,8.8l-3.02,0l-7.35,-8.53l0,8.53l-2.24,0" fill="#000000" stroke="none" fill-opacity="1"/>
<path d="m182.74,5.62l0,-35.61l2.81,0l0,35.61l-2.81,0m10.3,0l0,-35.61l2.81,0l0,35.61l-2.81,0" fill="#000000" stroke="none" fill-opacity="1"/>
</g>
<path d="m64.51,957.36l6.26,-3.05l0.62,0l0,21.74c0,1.44,0.06,2.34,0.18,2.69c0.12,0.35,0.37,0.62,0.75,0.81c0.37,0.18,1.15,0.29,2.31,0.32l0,0.7l-9.68,0l0,-0.7c1.21,-0.02,2,-0.12,2.35,-0.31c0.35,-0.18,0.6,-0.43,0.74,-0.74c0.13,-0.31,0.2,-1.23,0.2,-2.78l0,-13.9c0,-1.87,-0.06,-3.07,-0.18,-3.6c-0.08,-0.4,-0.25,-0.7,-0.48,-0.89c-0.23,-0.18,-0.51,-0.28,-0.84,-0.28c-0.46,0,-1.12,0.19,-1.95,0.58l-0.28,-0.58m16.34,10.5c0,-2.93,0.44,-5.46,1.32,-7.58c0.88,-2.12,2.06,-3.7,3.53,-4.73c1.13,-0.82,2.31,-1.23,3.53,-1.23c1.97,0,3.74,1,5.31,3.02c1.96,2.49,2.94,5.87,2.94,10.14c0,2.98,-0.43,5.52,-1.29,7.61c-0.86,2.08,-1.95,3.6,-3.29,4.54c-1.33,0.94,-2.62,1.41,-3.86,1.41c-2.45,0,-4.5,-1.44,-6.13,-4.34c-1.38,-2.44,-2.07,-5.38,-2.07,-8.83m3.72,0.47c0,3.54,0.43,6.43,1.31,8.68c0.72,1.88,1.79,2.83,3.22,2.83c0.68,0,1.39,-0.3,2.12,-0.92c0.73,-0.61,1.29,-1.64,1.67,-3.08c0.58,-2.17,0.87,-5.24,0.87,-9.21c0,-2.93,-0.3,-5.38,-0.91,-7.35c-0.45,-1.45,-1.04,-2.48,-1.76,-3.09c-0.51,-0.41,-1.14,-0.62,-1.88,-0.62c-0.86,0,-1.62,0.38,-2.29,1.15c-0.91,1.05,-1.53,2.7,-1.86,4.95c-0.32,2.25,-0.49,4.47,-0.49,6.66" fill="#000000" stroke="none" fill-opacity="1"/>
<path d="m111.64,956.06l-12.26,0l0,-0.93l12.26,0l0,0.93m1.64,7.59l0,-0.42c0.98,-0.01,1.9,-0.24,2.75,-0.68c0.84,-0.44,1.67,-1.21,2.46,-2.32c0.79,-1.1,1.34,-2.32,1.65,-3.65c-1.19,0.76,-2.26,1.14,-3.23,1.14c-1.08,0,-2.01,-0.41,-2.78,-1.25c-0.77,-0.83,-1.16,-1.95,-1.16,-3.33c0,-1.35,0.38,-2.55,1.16,-3.6c0.93,-1.28,2.15,-1.92,3.65,-1.92c1.26,0,2.35,0.52,3.25,1.57c1.1,1.29,1.66,2.89,1.66,4.8c0,1.71,-0.42,3.31,-1.26,4.79c-0.84,1.48,-2.01,2.71,-3.51,3.69c-1.22,0.8,-2.55,1.2,-3.99,1.2l-0.64,0m7.05,-7.92c0.13,-0.98,0.2,-1.77,0.2,-2.36c0,-0.73,-0.12,-1.53,-0.37,-2.38c-0.25,-0.85,-0.6,-1.5,-1.06,-1.96c-0.45,-0.45,-0.98,-0.68,-1.56,-0.68c-0.67,0,-1.26,0.3,-1.77,0.91c-0.5,0.6,-0.76,1.5,-0.76,2.7c0,1.6,0.33,2.85,1.01,3.75c0.49,0.65,1.09,0.97,1.82,0.97c0.34,0,0.76,-0.08,1.24,-0.25c0.47,-0.16,0.89,-0.4,1.26,-0.7" fill="#000000" stroke="none" fill-opacity="1"/>
<path d="m64.51,640.17l6.26,-3.05l0.62,0l0,21.74c0,1.44,0.06,2.34,0.18,2.69c0.12,0.35,0.37,0.62,0.75,0.81c0.37,0.18,1.15,0.29,2.31,0.32l0,0.7l-9.68,0l0,-0.7c1.21,-0.02,2,-0.12,2.35,-0.31c0.35,-0.18,0.6,-0.43,0.74,-0.74c0.13,-0.31,0.2,-1.23,0.2,-2.78l0,-13.9c0,-1.87,-0.06,-3.07,-0.18,-3.6c-0.08,-0.4,-0.25,-0.7,-0.48,-0.89c-0.23,-0.18,-0.51,-0.28,-0.84,-0.28c-0.46,0,-1.12,0.19,-1.95,0.58l-0.28,-0.58m16.34,10.5c0,-2.93,0.44,-5.46,1.32,-7.58c0.88,-2.12,2.06,-3.7,3.53,-4.73c1.13,-0.82,2.31,-1.23,3.53,-1.23c1.97,0,3.74,1,5.31,3.02c1.96,2.49,2.94,5.87,2.94,10.14c0,2.98,-0.43,5.52,-1.29,7.61c-0.86,2.08,-1.95,3.6,-3.29,4.54c-1.33,0.94,-2.62,1.41,-3.86,1.41c-2.45,0,-4.5,-1.44,-6.13,-4.34c-1.38,-2.44,-2.07,-5.38,-2.07,-8.83m3.72,0.47c0,3.54,0.43,6.43,1.31,8.68c0.72,1.88,1.79,2.83,3.22,2.83c0.68,0,1.39,-0.3,2.12,-0.92c0.73,-0.61,1.29,-1.64,1.67,-3.08c0.58,-2.17,0.87,-5.24,0.87,-9.21c0,-2.93,-0.3,-5.38,-0.91,-7.35c-0.45,-1.45,-1.04,-2.48,-1.76,-3.09c-0.51,-0.41,-1.14,-0.62,-1.88,-0.62c-0.86,0,-1.62,0.38,-2.29,1.15c-0.91,1.05,-1.53,2.7,-1.86,4.95c-0.32,2.25,-0.49,4.47,-0.49,6.66" fill="#000000" stroke="none" fill-opacity="1"/>
<path d="m111.64,638.88l-12.26,0l0,-0.93l12.26,0l0,0.93m4.88,-0.48c-1.22,-1,-2,-1.8,-2.36,-2.41c-0.35,-0.6,-0.52,-1.23,-0.52,-1.88c0,-1,0.38,-1.86,1.16,-2.58c0.77,-0.72,1.8,-1.08,3.08,-1.08c1.24,0,2.24,0.33,3,1.01c0.75,0.67,1.13,1.44,1.13,2.3c0,0.57,-0.2,1.16,-0.61,1.76c-0.4,0.59,-1.26,1.3,-2.55,2.11c1.33,1.03,2.21,1.84,2.65,2.43c0.57,0.77,0.86,1.58,0.86,2.44c0,1.08,-0.41,2.01,-1.24,2.78c-0.82,0.76,-1.91,1.15,-3.25,1.15c-1.46,0,-2.6,-0.45,-3.42,-1.37c-0.65,-0.73,-0.97,-1.53,-0.97,-2.41c0,-0.68,0.22,-1.35,0.68,-2.03c0.45,-0.67,1.24,-1.41,2.37,-2.22m1.78,-1.21c0.91,-0.81,1.48,-1.46,1.72,-1.93c0.24,-0.47,0.36,-1.01,0.36,-1.6c0,-0.79,-0.22,-1.42,-0.67,-1.87c-0.44,-0.45,-1.05,-0.67,-1.83,-0.67c-0.77,0,-1.4,0.22,-1.88,0.67c-0.48,0.44,-0.72,0.97,-0.72,1.57c0,0.39,0.1,0.78,0.3,1.18c0.2,0.39,0.48,0.76,0.85,1.12l1.86,1.54m-1.25,1.64c-0.62,0.53,-1.09,1.1,-1.39,1.73c-0.3,0.62,-0.45,1.3,-0.45,2.03c0,0.97,0.26,1.76,0.8,2.34c0.53,0.58,1.21,0.88,2.04,0.88c0.81,0,1.47,-0.23,1.96,-0.69c0.49,-0.46,0.73,-1.02,0.73,-1.68c0,-0.54,-0.14,-1.03,-0.43,-1.46c-0.53,-0.8,-1.62,-1.85,-3.26,-3.15" fill="#000000" stroke="none" fill-opacity="1"/>
<path d="m64.51,322.99l6.26,-3.05l0.62,0l0,21.74c0,1.44,0.06,2.34,0.18,2.69c0.12,0.35,0.37,0.62,0.75,0.81c0.37,0.18,1.15,0.29,2.31,0.32l0,0.7l-9.68,0l0,-0.7c1.21,-0.02,2,-0.12,2.35,-0.31c0.35,-0.18,0.6,-0.43,0.74,-0.74c0.13,-0.31,0.2,-1.23,0.2,-2.78l0,-13.9c0,-1.87,-0.06,-3.07,-0.18,-3.6c-0.08,-0.4,-0.25,-0.7,-0.48,-0.89c-0.23,-0.18,-0.51,-0.28,-0.84,-0.28c-0.46,0,-1.12,0.19,-1.95,0.58l-0.28,-0.58m16.34,10.5c0,-2.93,0.44,-5.46,1.32,-7.58c0.88,-2.12,2.06,-3.7,3.53,-4.73c1.13,-0.82,2.31,-1.23,3.53,-1.23c1.97,0,3.74,1,5.31,3.02c1.96,2.49,2.94,5.87,2.94,10.14c0,2.98,-0.43,5.52,-1.29,7.61c-0.86,2.08,-1.95,3.6,-3.29,4.54c-1.33,0.94,-2.62,1.41,-3.86,1.41c-2.45,0,-4.5,-1.44,-6.13,-4.34c-1.38,-2.44,-2.07,-5.38,-2.07,-8.83m3.72,0.47c0,3.54,0.43,6.43,1.31,8.68c0.72,1.88,1.79,2.83,3.22,2.83c0.68,0,1.39,-0.3,2.12,-0.92c0.73,-0.61,1.29,-1.64,1.67,-3.08c0.58,-2.17,0.87,-5.24,0.87,-9.21c0,-2.93,-0.3,-5.38,-0.91,-7.35c-0.45,-1.45,-1.04,-2.48,-1.76,-3.09c-0.51,-0.41,-1.14,-0.62,-1.88,-0.62c-0.86,0,-1.62,0.38,-2.29,1.15c-0.91,1.05,-1.53,2.7,-1.86,4.95c-0.32,2.25,-0.49,4.47,-0.49,6.66" fill="#000000" stroke="none" fill-opacity="1"/>
<path d="m111.64,321.7l-12.26,0l0,-0.93l12.26,0l0,0.93m2.75,-8.14l8.27,0l0,0.43l-5.14,15.31l-1.27,0l4.6,-13.89l-4.24,0c-0.85,0,-1.46,0.1,-1.83,0.3c-0.63,0.34,-1.14,0.88,-1.53,1.61l-0.32,-0.12l1.47,-3.65" fill="#000000" stroke="none" fill-opacity="1"/>
<path d="m64.51,11.98l6.26,-3.05l0.62,0l0,21.74c0,1.44,0.06,2.34,0.18,2.69c0.12,0.35,0.37,0.62,0.75,0.81c0.37,0.18,1.15,0.29,2.31,0.32l0,0.7l-9.68,0l0,-0.7c1.21,-0.02,2,-0.12,2.35,-0.31c0.35,-0.18,0.6,-0.43,0.74,-0.74c0.13,-0.31,0.2,-1.23,0.2,-2.78l0,-13.9c0,-1.87,-0.06,-3.07,-0.18,-3.6c-0.08,-0.4,-0.25,-0.7,-0.48,-0.89c-0.23,-0.18,-0.51,-0.28,-0.84,-0.28c-0.46,0,-1.12,0.19,-1.95,0.58l-0.28,-0.58m16.34,10.5c0,-2.93,0.44,-5.46,1.32,-7.58c0.88,-2.12,2.06,-3.7,3.53,-4.73c1.13,-0.82,2.31,-1.23,3.53,-1.23c1.97,0,3.74,1,5.31,3.02c1.96,2.49,2.94,5.87,2.94,10.14c0,2.98,-0.43,5.52,-1.29,7.61c-0.86,2.08,-1.95,3.6,-3.29,4.54c-1.33,0.94,-2.62,1.41,-3.86,1.41c-2.45,0,-4.5,-1.44,-6.13,-4.34c-1.38,-2.44,-2.07,-5.38,-2.07,-8.83m3.72,0.47c0,3.54,0.43,6.43,1.31,8.68c0.72,1.88,1.79,2.83,3.22,2.83c0.68,0,1.39,-0.3,2.12,-0.92c0.73,-0.61,1.29,-1.64,1.67,-3.08c0.58,-2.17,0.87,-5.24,0.87,-9.21c0,-2.93,-0.3,-5.38,-0.91,-7.35c-0.45,-1.45,-1.04,-2.48,-1.76,-3.09c-0.51,-0.41,-1.14,-0.62,-1.88,-0.62c-0.86,0,-1.62,0.38,-2.29,1.15c-0.91,1.05,-1.53,2.7,-1.86,4.95c-0.32,2.25,-0.49,4.47,-0.49,6.66" fill="#000000" stroke="none" fill-opacity="1"/>
<path d="m111.64,10.69l-12.26,0l0,-0.93l12.26,0l0,0.93m10.85,-8.46l0,0.42c-1,0.09,-1.81,0.29,-2.45,0.59c-0.63,0.29,-1.25,0.75,-1.87,1.37c-0.61,0.61,-1.13,1.29,-1.53,2.05c-0.4,0.75,-0.74,1.65,-1.01,2.69c1.09,-0.75,2.18,-1.12,3.28,-1.12c1.05,0,1.96,0.42,2.74,1.27c0.77,0.84,1.16,1.94,1.16,3.27c0,1.28,-0.39,2.46,-1.17,3.52c-0.94,1.28,-2.18,1.93,-3.73,1.93c-1.05,0,-1.94,-0.34,-2.68,-1.04c-1.44,-1.35,-2.16,-3.11,-2.16,-5.27c0,-1.38,0.27,-2.69,0.83,-3.93c0.55,-1.24,1.34,-2.34,2.37,-3.31c1.02,-0.96,2.01,-1.61,2.95,-1.94c0.94,-0.33,1.81,-0.5,2.62,-0.5l0.65,0m-7.07,7.96c-0.13,1.02,-0.2,1.85,-0.2,2.48c0,0.72,0.13,1.51,0.4,2.37c0.26,0.85,0.66,1.53,1.2,2.03c0.38,0.35,0.85,0.53,1.41,0.53c0.65,0,1.24,-0.31,1.76,-0.93c0.51,-0.62,0.77,-1.5,0.77,-2.66c0,-1.29,-0.25,-2.41,-0.77,-3.36c-0.51,-0.94,-1.24,-1.42,-2.19,-1.42c-0.28,0,-0.59,0.06,-0.92,0.18c-0.32,0.12,-0.81,0.38,-1.46,0.78" fill="#000000" stroke="none" fill-opacity="1"/>
</g>
<g fill="none" stroke-linecap="butt" stroke-width="1.38">
<path d="M133.85,1047.24l1031.49,0"/>
<path d="M133.85,1047.24l0,-8.33M167.67,1047.24l0,-8.33M196.27,1047.24l0,-8.33M221.04,1047.24l0,-8.33M242.89,1047.24l0,-8.33M391.01,1047.24l0,-8.33M466.22,1047.24l0,-8.33M519.59,1047.24l0,-8.33M560.98,1047.24l0,-8.33M594.8,1047.24l0,-8.33M623.39,1047.24l0,-8.33M648.16,1047.24l0,-8.33M670.01,1047.24l0,-8.33M818.13,1047.24l0,-8.33M893.35,1047.24l0,-8.33M946.71,1047.24l0,-8.33M988.1,1047.24l0,-8.33M1021.92,1047.24l0,-8.33M1050.52,1047.24l0,-8.33M1075.29,1047.24l0,-8.33M1097.14,1047.24l0,-8.33"/>
<path d="M262.43,1047.24l0,-16.66M689.56,1047.24l0,-16.66M1116.68,1047.24l0,-16.66"/>
</g>
<g fill="none" stroke-width="0.1">
<path d="m422.83,1147.94l0,-28.11l15.74,0l0,2.98l-11.75,0l0,9.02l9.85,0l0,2.94l-9.85,0l0,10.18l12.57,0l0,2.98l-16.56,0m21.21,0l0,-20.62l3.74,0l0,3.85c0.7,-1.38,1.63,-2.44,2.76,-3.2c1.13,-0.75,2.36,-1.13,3.69,-1.13c0.37,0,0.77,0.03,1.19,0.09l0,3.49c-0.63,-0.21,-1.2,-0.32,-1.7,-0.32c-1.17,0,-2.26,0.35,-3.25,1.05c-0.99,0.7,-1.88,1.75,-2.68,3.16l0,13.61l-3.74,0m15.9,0l0,-20.62l3.74,0l0,3.85c0.7,-1.38,1.63,-2.44,2.76,-3.2c1.13,-0.75,2.36,-1.13,3.69,-1.13c0.37,0,0.77,0.03,1.19,0.09l0,3.49c-0.63,-0.21,-1.2,-0.32,-1.7,-0.32c-1.17,0,-2.26,0.35,-3.25,1.05c-0.99,0.7,-1.88,1.75,-2.68,3.16l0,13.61l-3.74,0m31.26,-0.66c-2.54,0.75,-4.72,1.13,-6.53,1.13c-3.25,0,-5.8,-1.07,-7.67,-3.23c-1.86,-2.15,-2.79,-4.7,-2.79,-7.64c0,-1.93,0.41,-3.77,1.23,-5.52c0.82,-1.74,1.89,-3.04,3.22,-3.89c1.32,-0.84,2.89,-1.27,4.69,-1.27c2.41,0,4.34,0.85,5.78,2.56c1.43,1.7,2.15,4.26,2.15,7.67l-0.01,1.13l-13.25,0c0.2,1.82,0.6,3.22,1.2,4.21c0.59,0.98,1.38,1.75,2.37,2.3c0.98,0.55,2.24,0.82,3.76,0.82c0.77,0,1.54,-0.06,2.31,-0.19c0.76,-0.13,1.94,-0.48,3.53,-1.05l0,2.96m-13.01,-11.87l9.36,0c0,-2.06,-0.41,-3.53,-1.24,-4.42c-0.82,-0.88,-1.88,-1.32,-3.17,-1.32c-1.47,0,-2.62,0.47,-3.45,1.43c-0.82,0.95,-1.32,2.39,-1.49,4.32m32.24,12.53l0,-3.87c-0.96,1.39,-2.07,2.46,-3.32,3.21c-1.25,0.75,-2.55,1.13,-3.91,1.13c-1.73,0,-3.14,-0.55,-4.24,-1.66c-1.09,-1.1,-1.64,-2.64,-1.64,-4.62l0,-14.81l3.74,0l0,13.59c0,1.43,0.12,2.37,0.37,2.83c0.25,0.45,0.6,0.81,1.06,1.06c0.45,0.25,0.94,0.37,1.48,0.37c0.91,0,1.9,-0.28,2.97,-0.85c1.07,-0.56,2.23,-1.78,3.48,-3.64l0,-13.37l3.74,0l0,20.62l-3.74,0m11.2,0l0,-20.62l3.74,0l0,3.85c0.7,-1.38,1.63,-2.44,2.76,-3.2c1.13,-0.75,2.36,-1.13,3.69,-1.13c0.37,0,0.77,0.03,1.19,0.09l0,3.49c-0.63,-0.21,-1.2,-0.32,-1.7,-0.32c-1.17,0,-2.26,0.35,-3.25,1.05c-0.99,0.7,-1.88,1.75,-2.68,3.16l0,13.61l-3.74,0m27.44,-0.72l0,-3.43c2.44,1.21,4.57,1.82,6.38,1.82c1.06,0,1.95,-0.29,2.66,-0.87c0.71,-0.58,1.07,-1.31,1.07,-2.18c0,-0.54,-0.17,-1.07,-0.53,-1.59c-0.35,-0.51,-1.17,-1.04,-2.45,-1.57l-2.18,-0.93c-1.68,-0.69,-2.91,-1.5,-3.69,-2.43c-0.77,-0.91,-1.16,-2.03,-1.16,-3.36c0,-1.66,0.6,-3.04,1.81,-4.14c1.2,-1.1,2.99,-1.65,5.35,-1.65c1.15,0,2.58,0.15,4.28,0.47l0.78,0.15l0,3.13c-2.09,-0.63,-3.77,-0.94,-5.01,-0.94c-1.2,0,-2.11,0.25,-2.7,0.77c-0.59,0.51,-0.89,1.13,-0.89,1.84c0,0.55,0.2,1.05,0.6,1.5c0.39,0.45,1.1,0.9,2.13,1.35l1.8,0.76c2.42,1.02,3.96,2.04,4.62,3.04c0.65,1,0.98,2.09,0.98,3.26c0,1.12,-0.3,2.17,-0.92,3.13c-0.61,0.96,-1.51,1.71,-2.71,2.26c-1.19,0.54,-2.52,0.81,-3.99,0.81c-1.7,0,-3.78,-0.39,-6.23,-1.19m33.45,0.72l0,-3.87c-0.96,1.39,-2.07,2.46,-3.32,3.21c-1.25,0.75,-2.55,1.13,-3.91,1.13c-1.73,0,-3.14,-0.55,-4.24,-1.66c-1.09,-1.1,-1.64,-2.64,-1.64,-4.62l0,-14.81l3.74,0l0,13.59c0,1.43,0.12,2.37,0.37,2.83c0.25,0.45,0.6,0.81,1.06,1.06c0.45,0.25,0.94,0.37,1.48,0.37c0.91,0,1.9,-0.28,2.97,-0.85c1.07,-0.56,2.23,-1.78,3.48,-3.64l0,-13.37l3.74,0l0,20.62l-3.74,0m11.2,0l0,-20.62l3.74,0l0,3.85c0.7,-1.38,1.63,-2.44,2.76,-3.2c1.13,-0.75,2.36,-1.13,3.69,-1.13c0.37,0,0.77,0.03,1.19,0.09l0,3.49c-0.63,-0.21,-1.2,-0.32,-1.7,-0.32c-1.17,0,-2.26,0.35,-3.25,1.05c-0.99,0.7,-1.88,1.75,-2.68,3.16l0,13.61l-3.74,0m28.2,0l0,-29.99l3.74,0l0,29.99l-3.74,0m22,-2.62c-1.12,1.02,-2.24,1.79,-3.34,2.31c-1.09,0.51,-2.17,0.77,-3.22,0.77c-1.47,0,-2.85,-0.48,-4.12,-1.44c-1.27,-0.96,-1.9,-2.36,-1.9,-4.21c0,-2.02,0.88,-3.7,2.65,-5.02c1.77,-1.32,4.6,-1.98,8.49,-1.98l0.88,0l0,-2.49c0,-0.99,-0.13,-1.71,-0.4,-2.16c-0.27,-0.45,-0.69,-0.8,-1.26,-1.05c-0.57,-0.25,-1.28,-0.38,-2.13,-0.38c-1.97,0,-4.12,0.6,-6.45,1.82l0,-3.09c2.55,-1.02,4.95,-1.53,7.21,-1.53c1.23,0,2.36,0.19,3.39,0.57c1.03,0.38,1.85,0.99,2.47,1.82c0.61,0.83,0.92,2.16,0.92,4l0,9.35c0,1.03,0.08,1.73,0.24,2.1c0.16,0.36,0.39,0.63,0.69,0.82c0.29,0.19,0.64,0.28,1.03,0.28c0.16,0,0.4,-0.02,0.72,-0.07l0.26,2.07c-0.84,0.4,-1.78,0.6,-2.81,0.6c-0.68,0,-1.34,-0.22,-1.97,-0.66c-0.63,-0.44,-1.08,-1.25,-1.36,-2.43m-0.55,-2.03l0,-5.33l-1.22,-0.03c-2,0,-3.68,0.37,-5.04,1.13c-1.35,0.75,-2.03,1.79,-2.03,3.09c0,0.89,0.33,1.65,0.99,2.27c0.66,0.62,1.44,0.93,2.33,0.93c0.8,0,1.61,-0.17,2.44,-0.52c0.82,-0.34,1.66,-0.86,2.52,-1.54m23.54,12.15l0,-28.13l3.74,0l0,3.85c0.76,-1.44,1.72,-2.52,2.85,-3.24c1.13,-0.72,2.46,-1.08,3.99,-1.08c2.52,0,4.48,0.93,5.86,2.81c1.38,1.87,2.07,4.32,2.07,7.33c0,1.96,-0.32,3.83,-0.96,5.6c-0.64,1.77,-1.63,3.18,-2.99,4.23c-1.35,1.05,-2.88,1.57,-4.59,1.57c-0.67,0,-1.57,-0.1,-2.68,-0.3c-1.11,-0.2,-2.29,-1.03,-3.55,-2.5l0,9.83l-3.74,0m3.74,-12.42c1.27,1.14,2.28,1.85,3.03,2.14c0.75,0.29,1.56,0.43,2.43,0.43c1.82,0,3.17,-0.77,4.04,-2.32c0.87,-1.54,1.31,-3.51,1.31,-5.91c0,-2.23,-0.38,-4,-1.16,-5.3c-0.77,-1.3,-1.97,-1.95,-3.59,-1.95c-1.03,0,-2.05,0.28,-3.06,0.84c-1.01,0.56,-2.01,1.41,-3,2.55l0,9.5m28.97,5.39c-1.96,0,-3.67,-0.4,-5.12,-1.2c-1.45,-0.8,-2.6,-2.07,-3.45,-3.8c-0.84,-1.73,-1.27,-3.65,-1.27,-5.78c0,-2,0.38,-3.86,1.15,-5.57c0.77,-1.71,1.89,-3.01,3.37,-3.88c1.47,-0.87,3.24,-1.31,5.31,-1.31c1.96,0,3.67,0.39,5.13,1.19c1.45,0.79,2.6,2.06,3.45,3.8c0.84,1.73,1.26,3.66,1.26,5.77c0,2.02,-0.39,3.9,-1.17,5.61c-0.78,1.71,-1.91,3.01,-3.37,3.87c-1.46,0.86,-3.22,1.3,-5.29,1.3m0,-2.81c1.86,0,3.31,-0.69,4.34,-2.08c1.02,-1.38,1.54,-3.35,1.54,-5.9c0,-2.56,-0.51,-4.52,-1.55,-5.9c-1.03,-1.37,-2.48,-2.06,-4.33,-2.06c-1.85,0,-3.29,0.68,-4.32,2.06c-1.02,1.37,-1.54,3.34,-1.54,5.9c0,2.54,0.51,4.51,1.54,5.9c1.02,1.38,2.47,2.08,4.32,2.08m14.93,1.61l0,-3.43c2.44,1.21,4.57,1.82,6.38,1.82c1.06,0,1.95,-0.29,2.66,-0.87c0.71,-0.58,1.07,-1.31,1.07,-2.18c0,-0.54,-0.17,-1.07,-0.53,-1.59c-0.35,-0.51,-1.17,-1.04,-2.45,-1.57l-2.18,-0.93c-1.68,-0.69,-2.91,-1.5,-3.69,-2.43c-0.77,-0.91,-1.16,-2.03,-1.16,-3.36c0,-1.66,0.6,-3.04,1.81,-4.14c1.2,-1.1,2.99,-1.65,5.35,-1.65c1.15,0,2.58,0.15,4.28,0.47l0.78,0.15l0,3.13c-2.09,-0.63,-3.77,-0.94,-5.01,-0.94c-1.2,0,-2.11,0.25,-2.7,0.77c-0.59,0.51,-0.89,1.13,-0.89,1.84c0,0.55,0.2,1.05,0.6,1.5c0.39,0.45,1.1,0.9,2.13,1.35l1.8,0.76c2.42,1.02,3.96,2.04,4.62,3.04c0.65,1,0.98,2.09,0.98,3.26c0,1.12,-0.3,2.17,-0.92,3.13c-0.61,0.96,-1.51,1.71,-2.71,2.26c-1.19,0.54,-2.52,0.81,-3.99,0.81c-1.7,0,-3.78,-0.39,-6.23,-1.19m20.55,0.72l0,-20.62l3.74,0l0,20.62l-3.74,0m0,-24.36l0,-3.74l3.74,0l0,3.74l-3.74,0m20.39,24.36c-1.15,0.31,-2.15,0.47,-3,0.47c-1.84,0,-3.31,-0.53,-4.4,-1.6c-1.08,-1.07,-1.63,-2.59,-1.63,-4.56l0,-12.11l-2.58,0l0,-2.81l2.58,0l0,-3.74l3.74,-0.36l0,4.1l5.39,0l0,2.81l-5.39,0l0,11.43c0,1.44,0.27,2.47,0.83,3.1c0.55,0.62,1.44,0.94,2.65,0.94c0.49,0,1.09,-0.08,1.8,-0.24l0,2.58m5.3,0l0,-20.62l3.74,0l0,20.62l-3.74,0m0,-24.36l0,-3.74l3.74,0l0,3.74l-3.74,0m19.41,24.84c-1.96,0,-3.67,-0.4,-5.12,-1.2c-1.45,-0.8,-2.6,-2.07,-3.45,-3.8c-0.84,-1.73,-1.27,-3.65,-1.27,-5.78c0,-2,0.38,-3.86,1.15,-5.57c0.77,-1.71,1.89,-3.01,3.37,-3.88c1.47,-0.87,3.24,-1.31,5.31,-1.31c1.96,0,3.67,0.39,5.13,1.19c1.45,0.79,2.6,2.06,3.45,3.8c0.84,1.73,1.26,3.66,1.26,5.77c0,2.02,-0.39,3.9,-1.17,5.61c-0.78,1.71,-1.91,3.01,-3.37,3.87c-1.46,0.86,-3.22,1.3,-5.29,1.3m0,-2.81c1.86,0,3.31,-0.69,4.34,-2.08c1.02,-1.38,1.54,-3.35,1.54,-5.9c0,-2.56,-0.51,-4.52,-1.55,-5.9c-1.03,-1.37,-2.48,-2.06,-4.33,-2.06c-1.85,0,-3.29,0.68,-4.32,2.06c-1.02,1.37,-1.54,3.34,-1.54,5.9c0,2.54,0.51,4.51,1.54,5.9c1.02,1.38,2.47,2.08,4.32,2.08m15.69,2.33l0,-20.62l3.74,0l0,3.85c0.94,-1.38,2.05,-2.44,3.31,-3.2c1.25,-0.75,2.56,-1.13,3.92,-1.13c1.74,0,3.16,0.55,4.25,1.66c1.08,1.1,1.63,2.64,1.63,4.61l0,14.82l-3.74,0l0,-13.61c0,-1.43,-0.12,-2.37,-0.37,-2.83c-0.25,-0.45,-0.6,-0.8,-1.06,-1.05c-0.45,-0.24,-0.94,-0.37,-1.46,-0.37c-0.92,0,-1.92,0.28,-2.99,0.85c-1.07,0.57,-2.23,1.78,-3.48,3.65l0,13.36l-3.74,0m43.9,3.03l0,2.58c-2.06,-1.4,-3.73,-3.08,-5.01,-5.03c-1.27,-1.95,-2.24,-4.03,-2.9,-6.24c-0.65,-2.21,-0.98,-4.39,-0.98,-6.53c0,-2.12,0.32,-4.29,0.98,-6.51c0.65,-2.21,1.62,-4.29,2.9,-6.24c1.27,-1.95,2.95,-3.62,5.01,-5.03l0,2.58c-1.43,1.54,-2.48,3.04,-3.17,4.51c-0.68,1.46,-1.18,3.1,-1.51,4.93c-0.32,1.82,-0.48,3.75,-0.48,5.76c0,2.02,0.16,3.95,0.48,5.78c0.32,1.82,0.82,3.47,1.51,4.92c0.68,1.45,1.74,2.96,3.17,4.52m1.94,-2.33l22.15,-29.51l2.89,0l-22.12,29.51l-2.91,0m5.71,-14.75c-1.87,0,-3.33,-0.64,-4.39,-1.94c-1.05,-1.29,-1.58,-2.99,-1.58,-5.08c0,-2.1,0.53,-3.79,1.59,-5.09c1.06,-1.29,2.52,-1.93,4.38,-1.93c1.84,0,3.3,0.64,4.36,1.93c1.06,1.29,1.59,2.98,1.59,5.09c0,2.08,-0.52,3.78,-1.58,5.08c-1.05,1.29,-2.51,1.94,-4.37,1.94m0,-1.88c0.97,0,1.74,-0.47,2.3,-1.42c0.56,-0.94,0.84,-2.19,0.84,-3.72c0,-1.54,-0.28,-2.79,-0.85,-3.74c-0.56,-0.94,-1.33,-1.42,-2.29,-1.42c-0.97,0,-1.74,0.47,-2.31,1.42c-0.56,0.94,-0.85,2.19,-0.85,3.74c0,1.53,0.28,2.77,0.85,3.72c0.56,0.94,1.34,1.42,2.31,1.42m13.58,15.93c-1.86,0,-3.32,-0.64,-4.37,-1.94c-1.05,-1.29,-1.58,-2.99,-1.58,-5.08c0,-2.1,0.52,-3.79,1.58,-5.09c1.05,-1.29,2.51,-1.93,4.37,-1.93c1.86,0,3.32,0.64,4.38,1.93c1.06,1.29,1.59,2.98,1.59,5.09c0,2.08,-0.52,3.78,-1.58,5.08c-1.05,1.29,-2.52,1.94,-4.39,1.94m0,-1.88c0.97,0,1.74,-0.47,2.31,-1.42c0.56,-0.94,0.85,-2.19,0.85,-3.72c0,-1.54,-0.28,-2.79,-0.86,-3.74c-0.57,-0.94,-1.34,-1.42,-2.3,-1.42c-0.96,0,-1.72,0.47,-2.29,1.42c-0.56,0.94,-0.85,2.19,-0.85,3.74c0,1.53,0.28,2.77,0.84,3.72c0.56,0.94,1.33,1.42,2.3,1.42m7.61,-25.52l0,-2.58c2.06,1.4,3.73,3.08,5.01,5.03c1.27,1.95,2.24,4.03,2.9,6.25c0.65,2.22,0.98,4.39,0.98,6.5c0,2.12,-0.32,4.3,-0.98,6.52c-0.65,2.22,-1.62,4.31,-2.9,6.26c-1.27,1.95,-2.95,3.63,-5.01,5.02l0,-2.58c1.43,-1.55,2.48,-3.06,3.17,-4.52c0.68,-1.45,1.18,-3.1,1.5,-4.93c0.31,-1.83,0.47,-3.76,0.47,-5.77c0,-1.98,-0.15,-3.9,-0.47,-5.74c-0.31,-1.84,-0.81,-3.49,-1.5,-4.95c-0.68,-1.46,-1.74,-2.96,-3.17,-4.51" fill="#000000" stroke="none" fill-opacity="1"/>
<path d="m239.48,1079.31c0,-2.93,0.44,-5.46,1.32,-7.58c0.88,-2.12,2.06,-3.7,3.53,-4.73c1.13,-0.82,2.31,-1.23,3.53,-1.23c1.97,0,3.74,1,5.31,3.02c1.96,2.49,2.94,5.87,2.94,10.14c0,2.98,-0.43,5.52,-1.29,7.61c-0.86,2.08,-1.95,3.6,-3.29,4.54c-1.33,0.94,-2.62,1.41,-3.86,1.41c-2.45,0,-4.5,-1.44,-6.13,-4.34c-1.38,-2.44,-2.07,-5.38,-2.07,-8.83m3.72,0.47c0,3.54,0.43,6.43,1.31,8.68c0.72,1.88,1.79,2.83,3.22,2.83c0.68,0,1.39,-0.3,2.12,-0.92c0.73,-0.61,1.29,-1.64,1.67,-3.08c0.58,-2.17,0.87,-5.24,0.87,-9.21c0,-2.93,-0.3,-5.38,-0.91,-7.35c-0.45,-1.45,-1.04,-2.48,-1.76,-3.09c-0.51,-0.41,-1.14,-0.62,-1.88,-0.62c-0.86,0,-1.62,0.38,-2.29,1.15c-0.91,1.05,-1.53,2.7,-1.86,4.95c-0.32,2.25,-0.49,4.47,-0.49,6.66m16.46,18.72l0,-0.83c1.3,-0.43,2.31,-1.09,3.02,-2c0.71,-0.9,1.07,-1.86,1.07,-2.87c0,-0.24,-0.05,-0.44,-0.17,-0.6c-0.08,-0.11,-0.17,-0.17,-0.26,-0.17c-0.13,0,-0.44,0.12,-0.91,0.37c-0.22,0.11,-0.46,0.17,-0.72,0.17c-0.62,0,-1.11,-0.18,-1.48,-0.55c-0.36,-0.36,-0.55,-0.87,-0.55,-1.51c0,-0.62,0.23,-1.15,0.71,-1.59c0.47,-0.44,1.05,-0.66,1.73,-0.66c0.83,0,1.57,0.36,2.23,1.09c0.65,0.72,0.97,1.69,0.97,2.89c0,1.3,-0.45,2.51,-1.35,3.63c-0.9,1.12,-2.33,2,-4.3,2.64m12.16,-29.7l6.26,-3.05l0.62,0l0,21.74c0,1.44,0.06,2.34,0.18,2.69c0.12,0.35,0.37,0.62,0.75,0.81c0.37,0.18,1.15,0.29,2.31,0.32l0,0.7l-9.68,0l0,-0.7c1.21,-0.02,2,-0.12,2.35,-0.31c0.35,-0.18,0.6,-0.43,0.74,-0.74c0.13,-0.31,0.2,-1.23,0.2,-2.78l0,-13.9c0,-1.87,-0.06,-3.07,-0.18,-3.6c-0.08,-0.4,-0.25,-0.7,-0.48,-0.89c-0.23,-0.18,-0.51,-0.28,-0.84,-0.28c-0.46,0,-1.12,0.19,-1.95,0.58l-0.28,-0.58" fill="#000000" stroke="none" fill-opacity="1"/>
<path d="m684.36,1068.81l6.26,-3.05l0.62,0l0,21.74c0,1.44,0.06,2.34,0.18,2.69c0.12,0.35,0.37,0.62,0.75,0.81c0.37,0.18,1.15,0.29,2.31,0.32l0,0.7l-9.68,0l0,-0.7c1.21,-0.02,2,-0.12,2.35,-0.31c0.35,-0.18,0.6,-0.43,0.74,-0.74c0.13,-0.31,0.2,-1.23,0.2,-2.78l0,-13.9c0,-1.87,-0.06,-3.07,-0.18,-3.6c-0.08,-0.4,-0.25,-0.7,-0.48,-0.89c-0.23,-0.18,-0.51,-0.28,-0.84,-0.28c-0.46,0,-1.12,0.19,-1.95,0.58l-0.28,-0.58" fill="#000000" stroke="none" fill-opacity="1"/>
<path d="m1101.74,1068.81l6.26,-3.05l0.62,0l0,21.74c0,1.44,0.06,2.34,0.18,2.69c0.12,0.35,0.37,0.62,0.75,0.81c0.37,0.18,1.15,0.29,2.31,0.32l0,0.7l-9.68,0l0,-0.7c1.21,-0.02,2,-0.12,2.35,-0.31c0.35,-0.18,0.6,-0.43,0.74,-0.74c0.13,-0.31,0.2,-1.23,0.2,-2.78l0,-13.9c0,-1.87,-0.06,-3.07,-0.18,-3.6c-0.08,-0.4,-0.25,-0.7,-0.48,-0.89c-0.23,-0.18,-0.51,-0.28,-0.84,-0.28c-0.46,0,-1.12,0.19,-1.95,0.58l-0.28,-0.58m16.34,10.5c0,-2.93,0.44,-5.46,1.32,-7.58c0.88,-2.12,2.06,-3.7,3.53,-4.73c1.13,-0.82,2.31,-1.23,3.53,-1.23c1.97,0,3.74,1,5.31,3.02c1.96,2.49,2.94,5.87,2.94,10.14c0,2.98,-0.43,5.52,-1.29,7.61c-0.86,2.08,-1.95,3.6,-3.29,4.54c-1.33,0.94,-2.62,1.41,-3.86,1.41c-2.45,0,-4.5,-1.44,-6.13,-4.34c-1.38,-2.44,-2.07,-5.38,-2.07,-8.83m3.72,0.47c0,3.54,0.43,6.43,1.31,8.68c0.72,1.88,1.79,2.83,3.22,2.83c0.68,0,1.39,-0.3,2.12,-0.92c0.73,-0.61,1.29,-1.64,1.67,-3.08c0.58,-2.17,0.87,-5.24,0.87,-9.21c0,-2.93,-0.3,-5.38,-0.91,-7.35c-0.45,-1.45,-1.04,-2.48,-1.76,-3.09c-0.51,-0.41,-1.14,-0.62,-1.88,-0.62c-0.86,0,-1.62,0.38,-2.29,1.15c-0.91,1.05,-1.53,2.7,-1.86,4.95c-0.32,2.25,-0.49,4.47,-0.49,6.66" fill="#000000" stroke="none" fill-opacity="1"/>
</g>
<g fill="none" stroke-linecap="butt" stroke-width="1.38">
<path d="M1165.35,1047.24l0,-1031.49"/>
<path d="M1165.35,1037.65l-8.33,0M1165.35,1016.42l-8.33,0M1165.35,998.02l-8.33,0M1165.35,981.8l-8.33,0M1165.35,871.81l-8.33,0M1165.35,815.95l-8.33,0M1165.35,776.32l-8.33,0M1165.35,745.59l-8.33,0M1165.35,720.47l-8.33,0M1165.35,699.24l-8.33,0M1165.35,680.84l-8.33,0M1165.35,664.62l-8.33,0M1165.35,554.62l-8.33,0M1165.35,498.77l-8.33,0M1165.35,459.14l-8.33,0M1165.35,428.41l-8.33,0M1165.35,403.29l-8.33,0M1165.35,382.06l-8.33,0M1165.35,363.66l-8.33,0M1165.35,347.44l-8.33,0M1165.35,237.44l-8.33,0M1165.35,181.59l-8.33,0M1165.35,141.96l-8.33,0M1165.35,111.22l-8.33,0M1165.35,86.11l-8.33,0M1165.35,64.88l-8.33,0M1165.35,46.48l-8.33,0M1165.35,30.26l-8.33,0"/>
<path d="M1165.35,967.29l-16.66,0M1165.35,650.11l-16.66,0M1165.35,332.92l-16.66,0M1165.35,15.74l-16.66,0"/>
<path d="M133.85,15.74l1031.49,0"/>
<path d="M133.85,15.74l0,8.33M167.67,15.74l0,8.33M196.27,15.74l0,8.33M221.04,15.74l0,8.33M242.89,15.74l0,8.33M391.01,15.74l0,8.33M466.22,15.74l0,8.33M519.59,15.74l0,8.33M560.98,15.74l0,8.33M594.8,15.74l0,8.33M623.39,15.74l0,8.33M648.16,15.74l0,8.33M670.01,15.74l0,8.33M818.13,15.74l0,8.33M893.35,15.74l0,8.33M946.71,15.74l0,8.33M988.1,15.74l0,8.33M1021.92,15.74l0,8.33M1050.52,15.74l0,8.33M1075.29,15.74l0,8.33M1097.14,15.74l0,8.33"/>
<path d="M262.43,15.74l0,16.66M689.56,15.74l0,16.66M1116.68,15.74l0,16.66"/>
</g>
</g>
</g>
</svg>
